<svg width="167" height="38" viewBox="0 0 167 38" fill="none" xmlns="http://www.w3.org/2000/svg">
<g clip-path="url(#clip0_1_316)">
<path d="M43.612 28.5212V11.5688H45.7999L56.1487 25.2254V11.5688H58.2166V28.5212H56.0287L45.6825 14.7455V28.5212H43.612ZM75.008 27.8568C73.6446 28.3786 72.1742 28.6402 70.5968 28.6402C64.4726 28.6402 61.4092 25.6962 61.4092 19.8082C61.4092 14.2368 64.3656 11.4497 70.2772 11.4497C71.9746 11.4497 73.5506 11.6878 75.008 12.1625V14.0589C73.5506 13.5057 72.0516 13.2284 70.5146 13.2284C65.9039 13.2284 63.5985 15.423 63.5985 19.8069C63.5985 24.5087 65.866 26.8615 70.4089 26.8615C71.1344 26.8615 71.938 26.766 72.8226 26.5751V20.8153H75.0093L75.008 27.8568ZM78.498 21.978V11.5701H80.6847V21.978C80.6847 25.2332 82.3012 26.8628 85.5342 26.8628C88.7659 26.8628 90.3824 25.2332 90.3824 21.978V11.5701H92.5704V21.978C92.5704 26.4194 90.2245 28.6415 85.5342 28.6415C80.8438 28.6415 78.498 26.4208 78.498 21.978ZM98.6594 11.5688V26.7438H107.506V28.5212H96.4727V11.5688H98.6594ZM110.662 28.5212H108.392L116.8 9.33363L125.208 28.5212H122.784L120.596 23.1864H115.003L115.606 21.4104H119.864L116.706 13.728L110.662 28.5212ZM127.514 28.5212V11.5688H134.727C137.945 11.5688 139.552 12.925 139.552 15.6349C139.552 17.8412 137.98 19.4734 134.834 20.5302L140.64 28.5199H137.754L132.375 20.8977V19.4643C135.607 18.949 137.222 17.7039 137.222 15.7303C137.222 14.1662 136.324 13.3828 134.528 13.3828H129.702V28.5212H127.514ZM148.836 11.5688V23.6376C148.836 26.8929 146.925 28.5212 143.101 28.5212V26.7438C145.466 26.7438 146.65 25.7067 146.65 23.6376V11.5688H148.836ZM152.739 27.9287V25.9133C154.513 26.545 156.428 26.8628 158.486 26.8628C161.395 26.8628 162.851 25.7969 162.851 23.6599C162.851 21.8459 161.778 20.9343 159.633 20.9343H157.456C153.917 20.9343 152.146 19.395 152.146 16.3123C152.146 13.0715 154.414 11.451 158.949 11.451C160.919 11.451 162.752 11.6904 164.447 12.1638V14.1792C162.751 13.5462 160.919 13.2284 158.949 13.2284C155.874 13.2284 154.337 14.2564 154.337 16.311C154.337 18.129 155.377 19.0366 157.458 19.0366H159.634C163.236 19.0366 165.039 20.5799 165.039 23.6586C165.039 26.9792 162.855 28.6402 158.488 28.6402C156.428 28.6402 154.514 28.4022 152.739 27.9287Z" fill="#CCCCCC"/>
<path d="M44.1663 27.9667V11.0169H46.3529L56.7004 24.6722V11.0169H58.7709V27.9667H56.583L46.2355 14.191V27.9667H44.1663ZM75.5623 27.3036C74.1989 27.8254 72.7285 28.087 71.1511 28.087C65.0269 28.087 61.9622 25.1443 61.9622 19.2563C61.9622 13.6836 64.9199 10.8965 70.8328 10.8965C72.5276 10.8965 74.1049 11.1359 75.5623 11.6093V13.5057C74.1049 12.9525 72.6058 12.6752 71.0689 12.6752C66.4581 12.6752 64.1515 14.8698 64.1515 19.2537C64.1515 23.9568 66.4216 26.3083 70.9632 26.3083C71.6886 26.3083 72.4936 26.2141 73.3769 26.0232V20.2621H75.5636L75.5623 27.3036ZM79.051 21.4248V11.0156H81.2376V21.4235C81.2376 24.6787 82.8542 26.3083 86.0872 26.3083C89.3202 26.3083 90.9367 24.6787 90.9367 21.4235V11.0156H93.1234V21.4235C93.1234 25.8662 90.7788 28.087 86.0872 28.087C81.3955 28.087 79.051 25.8662 79.051 21.4248ZM99.2123 11.0156V26.1893H108.058V27.9667H97.0257V11.0156H99.2123ZM111.217 27.9667H108.945L117.354 8.77913L125.763 27.9667H123.336L121.148 22.6319H115.556L116.16 20.8545H120.416L117.259 13.1722L111.217 27.9667ZM128.067 27.9667V11.0169H135.28C138.498 11.0169 140.104 12.3718 140.104 15.0817C140.104 17.2867 138.533 18.9202 135.387 19.977L141.193 27.9667H138.307L132.928 20.3458V18.9098C136.16 18.3945 137.776 17.1507 137.776 15.1758C137.776 13.6117 136.877 12.8296 135.079 12.8296H130.255V27.9667H128.067Z" fill="#2C5FA2"/>
<path d="M149.389 11.0156V23.0845C149.389 26.341 147.478 27.968 143.654 27.968V26.1906C146.019 26.1906 147.202 25.1535 147.202 23.0845V11.0156H149.389ZM153.291 27.3742V25.3588C155.066 25.9892 156.98 26.3083 159.039 26.3083C161.947 26.3083 163.403 25.2411 163.403 23.1067C163.403 21.2901 162.33 20.3811 160.185 20.3811H158.009C154.47 20.3811 152.699 18.8392 152.699 15.7579C152.699 12.517 154.965 10.8966 159.5 10.8966C161.472 10.8966 163.304 11.1359 165 11.608V13.6247C163.304 12.9917 161.472 12.6739 159.5 12.6739C156.427 12.6739 154.888 13.7019 154.888 15.7565C154.888 17.5732 155.928 18.4821 158.01 18.4821H160.187C163.789 18.4821 165.592 20.0241 165.592 23.1054C165.592 26.4247 163.408 28.0857 159.04 28.0857C156.981 28.0857 155.066 27.8477 153.291 27.3742Z" fill="#2C5FA2"/>
<path d="M21.1596 -2.03944L1.40924 4.9275L4.53005 30.8662L21.1805 40.0395L37.917 30.7432L41.0365 4.80456L21.1596 -2.03944Z" fill="#B3B3B3"/>
<path d="M39.0648 6.30333L21.1136 0.16687V37.8475L36.158 29.5007L39.0648 6.30333Z" fill="#2C5FA2"/>
<path d="M3.62442 6.41449L6.30033 29.6119L21.1138 37.8475V0.16687L3.62442 6.41449Z" fill="#2C5FA2"/>
<path d="M26.0557 20.2268L21.1136 22.543H15.904L13.4551 28.682L8.9017 28.7657L21.1123 1.5349L26.0557 20.2268ZM25.5769 19.0601L21.1462 10.2661L17.5113 18.9084H21.1136L25.5769 19.0601Z" fill="#F2F2F2"/>
<path d="M21.1136 1.5349L21.1449 10.2661L25.2704 18.9163H21.1214L21.1136 22.5377L26.8477 22.543L29.5289 28.767L33.8865 28.8481L21.1136 1.5349Z" fill="#B3B3B3"/>
</g>
<defs>
<clipPath id="clip0_1_316">
<rect width="167" height="38" fill="white"/>
</clipPath>
</defs>
</svg>
