<svg width="134" height="115" viewBox="0 0 134 115" fill="none" xmlns="http://www.w3.org/2000/svg">
<circle cx="66" cy="52" r="16" fill="#D9EDFF"/>
<path d="M84.5564 64.3185C84.1091 64.3185 83.6617 64.096 83.438 63.6955C83.0353 63.0726 83.2143 62.2717 83.8406 61.8712L103.302 49.6792C107.597 47.0094 109.431 41.6253 107.686 36.9532C105.762 31.7026 100.17 28.8548 94.7567 30.3232L93.0119 30.8126C92.2961 30.9906 91.5803 30.5902 91.3566 29.8782C91.1777 29.1663 91.5803 28.4543 92.2961 28.2318L94.0409 27.7424C100.796 25.918 107.731 29.4778 110.147 36.0187C112.339 41.8923 110.012 48.5667 104.689 51.904L85.2275 64.096C85.0038 64.2295 84.7801 64.3185 84.5564 64.3185Z" fill="black"/>
<path d="M66.9743 71.2155C52.0765 71.2155 39.9972 59.1569 39.9972 44.3841V21.3349C39.9972 20.5785 40.5788 20 41.3394 20H92.654C93.3699 20 93.9962 20.5785 93.9962 21.3349V44.3841C93.9962 59.2014 81.8721 71.2155 66.9743 71.2155ZM42.6815 22.6698V44.3841C42.6815 57.733 53.5976 68.5902 67.0191 68.5902C80.4405 68.5902 91.3566 57.733 91.3566 44.3841V22.6698H42.6815Z" fill="black"/>
<path d="M49.437 64.3185C49.2133 64.3185 48.9448 64.274 48.7212 64.096L29.26 51.904C23.9362 48.5667 21.6546 41.8923 23.802 36.0187C26.2178 29.4778 33.1523 25.918 39.9077 27.7424L41.6525 28.2318C42.3683 28.4098 42.771 29.1663 42.592 29.8782C42.4131 30.5457 41.6973 30.9906 40.9814 30.7681L39.2367 30.3232C33.8233 28.8548 28.2758 31.7026 26.3073 36.9087C24.5625 41.6253 26.3968 47.0094 30.6917 49.6792L50.1528 61.8712C50.7791 62.2717 50.9581 63.0726 50.5554 63.6955C50.3317 64.096 49.8843 64.3185 49.437 64.3185Z" fill="black"/>
<path d="M89.8355 96H44.1579C43.442 96 42.8157 95.4215 42.8157 94.6651V90.3044C42.8157 87.5457 45.0974 85.2763 47.8711 85.2763H86.0775C88.8513 85.2763 91.1329 87.5457 91.1329 90.3044V94.6651C91.1329 95.4215 90.5514 96 89.8355 96ZM45.5 93.3747H88.4934V90.3044C88.4934 88.9695 87.4197 87.9016 86.0775 87.9016H47.8711C46.529 87.9016 45.4553 88.9695 45.4553 90.3044V93.3747H45.5Z" fill="black"/>
<path d="M50.8238 87.9016C50.108 87.9016 49.4817 87.3232 49.4817 86.5668C49.4817 85.8548 50.0633 85.2319 50.8238 85.2319C53.3292 85.2319 55.1635 84.4754 56.4161 82.8735C59.9952 78.3794 57.8477 69.0351 57.803 68.9461C57.6241 68.2787 58.0714 67.5223 58.7872 67.3888C59.5031 67.2108 60.2189 67.6557 60.3978 68.3677C60.4873 68.8127 62.8584 79.0468 58.5188 84.5644C56.7293 86.7892 54.1345 87.9016 50.8238 87.9016Z" fill="black"/>
<path d="M84.288 87.9016C80.9774 87.9016 78.3826 86.7892 76.593 84.5199C72.2087 79.0023 74.5798 68.7682 74.714 68.3232C74.893 67.6112 75.6088 67.1663 76.3246 67.3443C77.0404 67.5223 77.4878 68.2342 77.3089 68.9461C77.2641 69.0351 75.1167 78.3794 78.6957 82.8735C79.9484 84.4754 81.7827 85.2319 84.288 85.2319C85.0038 85.2319 85.6302 85.8103 85.6302 86.5668C85.6302 87.3232 85.0486 87.9016 84.288 87.9016Z" fill="black"/>
<path d="M75.3851 57.911C75.1614 57.911 74.9377 57.8665 74.7588 57.7775L66.9743 53.6838L59.2346 57.7775C58.7872 58 58.2504 57.9555 57.803 57.644C57.4004 57.3771 57.2214 56.8431 57.3109 56.3536L58.7872 47.7658L52.5239 41.6698C52.166 41.3138 52.0318 40.7799 52.166 40.2904C52.3449 39.8009 52.7476 39.445 53.2397 39.4005L61.9189 38.1546L65.8111 30.3232C66.2585 29.4333 67.7349 29.4333 68.1823 30.3232L72.0745 38.1546L80.7537 39.4005C81.2458 39.4895 81.6932 39.8009 81.8274 40.2904C81.9616 40.7799 81.8721 41.3138 81.4695 41.6698L75.2062 47.7658L76.6825 56.3536C76.772 56.8431 76.5483 57.3771 76.1457 57.644C75.922 57.822 75.6535 57.911 75.3851 57.911ZM66.9743 50.8806C67.198 50.8806 67.4217 50.9251 67.6007 51.0141L73.5956 54.1288L72.4324 47.4988C72.3429 47.0539 72.5219 46.6089 72.835 46.3419L77.6668 41.6253L70.956 40.6464C70.5087 40.6019 70.1507 40.3349 69.9718 39.9344L66.9743 33.9274L63.9769 39.9789C63.7979 40.3349 63.44 40.6019 62.9926 40.6909L56.2819 41.6698L61.1136 46.3864C61.4268 46.6979 61.561 47.1429 61.5163 47.5433L60.3531 54.1733L66.348 51.0585C66.5717 50.9251 66.7954 50.8806 66.9743 50.8806Z" fill="black"/>
</svg>
