<svg width="165" height="148" viewBox="0 0 165 148" fill="none" xmlns="http://www.w3.org/2000/svg">
<g clip-path="url(#clip0_3_3104)">
<path d="M163.297 129.883H14.2093C13.2686 129.883 12.5051 129.122 12.5051 128.182V127.84C12.5051 126.901 13.2677 126.139 14.2093 126.139H163.297C164.237 126.139 165.001 126.9 165.001 127.84V128.182C165 129.122 164.237 129.883 163.297 129.883Z" fill="#0775EF"/>
<path d="M115.456 20.7702H161.07C161.74 20.7702 162.298 20.1482 162.335 19.3493C162.474 16.3376 163.256 12.2305 158.958 10.3292C154.633 8.41556 150.263 10.5729 150.263 10.5729C150.263 10.5729 149.599 0.358036 139.526 0.375633C130.252 0.39235 126.097 9.79426 126.097 9.79426C126.097 9.79426 118.002 6.74124 114.271 18.7131C113.962 19.7082 114.568 20.7702 115.456 20.7702Z" fill="#E5F0F8"/>
<path d="M123.423 24.5121H121.281C120.704 24.5121 120.237 24.0458 120.237 23.4704V19.6335H124.466V23.4704C124.466 24.0458 123.998 24.5121 123.423 24.5121Z" fill="#E5F0F8"/>
<path d="M132.886 8.02931H133.99L137.834 16.9931H136.413L135.511 14.7776H131.236L130.348 16.9931H128.927L132.886 8.02931ZM135.067 13.7139L133.393 9.59894H133.367L131.668 13.7139H135.067Z" fill="white"/>
<path d="M139 8.02931H142.159C142.734 8.02931 143.207 8.10762 143.58 8.26335C143.952 8.41996 144.246 8.61792 144.462 8.85812C144.678 9.09831 144.827 9.36842 144.912 9.66844C144.997 9.96847 145.039 10.2571 145.039 10.536C145.039 10.8149 144.997 11.1035 144.912 11.4035C144.827 11.7035 144.678 11.9736 144.462 12.2138C144.246 12.454 143.952 12.6528 143.58 12.8086C143.208 12.9652 142.734 13.0426 142.159 13.0426H140.217V16.9931H139V8.02931ZM140.218 11.9789H141.817C142.054 11.9789 142.288 11.9595 142.521 11.9217C142.754 11.8839 142.961 11.8144 143.143 11.7132C143.324 11.612 143.471 11.4659 143.58 11.2768C143.69 11.0867 143.745 10.8404 143.745 10.536C143.745 10.2324 143.69 9.98518 143.58 9.79514C143.47 9.6051 143.324 9.45992 143.143 9.35786C142.961 9.25668 142.754 9.18717 142.521 9.14934C142.288 9.11151 142.054 9.09215 141.817 9.09215H140.218V11.9789Z" fill="white"/>
<path d="M146.523 8.02931H147.741V16.9931H146.523V8.02931Z" fill="white"/>
<path d="M122.351 22.0732V64.8376" stroke="#E5F0F8" stroke-width="19.4031" stroke-miterlimit="10" stroke-linecap="round"/>
<path d="M0 52.381V0.473347C0 0.271865 0.163983 0.108215 0.365877 0.108215H71.2358C71.4377 0.108215 71.6017 0.271865 71.6017 0.473347V52.3818H0V52.381Z" fill="#BBDBF3"/>
<path d="M70.9372 0.770691H0.665039V51.7175H70.9372V0.770691Z" fill="white"/>
<path d="M71.2394 0.395035H0.36235V5.57198H71.2394V0.395035Z" fill="#BBDBF3"/>
<path d="M66.4953 4.55315L69.2627 1.79047" stroke="white" stroke-width="5.0344" stroke-miterlimit="10" stroke-linecap="round" stroke-linejoin="round"/>
<path d="M69.2627 4.55315L66.4953 1.79047" stroke="white" stroke-width="5.0344" stroke-miterlimit="10" stroke-linecap="round" stroke-linejoin="round"/>
<path d="M17.3226 5.57281H0.665039V51.7184H17.3226V5.57281Z" fill="#E5F0F8"/>
<path d="M15.6608 8.16046H2.32617V9.23298H15.6608V8.16046Z" fill="white"/>
<path d="M15.6608 10.9935H2.32617V12.066H15.6608V10.9935Z" fill="white"/>
<path d="M15.6608 13.8266H2.32617V14.8991H15.6608V13.8266Z" fill="white"/>
<path d="M15.6608 16.6606H2.32617V17.7331H15.6608V16.6606Z" fill="white"/>
<path d="M15.6608 19.4936H2.32617V20.5661H15.6608V19.4936Z" fill="white"/>
<path d="M15.6608 22.3267H2.32617V23.3992H15.6608V22.3267Z" fill="white"/>
<path d="M15.6608 25.1597H2.32617V26.2322H15.6608V25.1597Z" fill="white"/>
<path d="M40.5427 50.5967V34.1957L19.1754 34.1957L19.1754 50.5967H40.5427Z" fill="#E5F0F8"/>
<path d="M34.6073 42.1512L26.5721 37.5215V46.78L34.6073 42.1512Z" fill="white"/>
<path d="M40.5418 49.7045H19.1746V50.5975H40.5418V49.7045Z" fill="white"/>
<path d="M29.6634 49.7045H19.1746V50.5975H29.6634V49.7045Z" fill="#E5F0F8"/>
<path d="M30.426 50.5967H29.1009C28.8549 50.5967 28.6539 50.396 28.6539 50.1506C28.6539 49.9051 28.8549 49.7045 29.1009 49.7045H30.426C30.672 49.7045 30.873 49.9051 30.873 50.1506C30.873 50.396 30.672 50.5967 30.426 50.5967Z" fill="white"/>
<path d="M15.6608 27.9929H2.32617V29.0654H15.6608V27.9929Z" fill="white"/>
<path d="M15.6608 30.8259H2.32617V31.8984H15.6608V30.8259Z" fill="white"/>
<path d="M15.6608 33.6599H2.32617V34.7324H15.6608V33.6599Z" fill="white"/>
<path d="M15.6608 36.4929H2.32617V37.5654H15.6608V36.4929Z" fill="white"/>
<path d="M15.6608 39.326H2.32617V40.3985H15.6608V39.326Z" fill="white"/>
<path d="M69.2151 11.5302H19.1746V33.0307H69.2151V11.5302Z" fill="#E5F0F8"/>
<path d="M34.667 13.3304H20.6199V31.2298H34.667V13.3304Z" fill="white"/>
<path d="M27.6421 24.6618C29.2567 24.6618 30.5656 22.9884 30.5656 20.9242C30.5656 18.8601 29.2567 17.1867 27.6421 17.1867C26.0275 17.1867 24.7186 18.8601 24.7186 20.9242C24.7186 22.9884 26.0275 24.6618 27.6421 24.6618Z" fill="#E5F0F8"/>
<path d="M33.9216 31.2297H21.3602C21.4492 27.0347 24.229 23.6684 27.6409 23.6684C31.0572 23.6684 33.8326 27.0347 33.9216 31.2297Z" fill="#E5F0F8"/>
<path d="M47.631 13.3304H36.5525V14.2568H47.631V13.3304Z" fill="white"/>
<path d="M67.9841 13.3304H65.5984V14.2569H67.9841V13.3304Z" fill="white"/>
<path d="M64.8806 13.3304H62.4949V14.2569H64.8806V13.3304Z" fill="white"/>
<path d="M61.7759 13.3304H59.3902V14.2568H61.7759V13.3304Z" fill="white"/>
<path d="M54.1957 17.1805H36.5525V18.107H54.1957V17.1805Z" fill="white"/>
<path d="M50.5942 15.2554H36.5525V16.1819H50.5942V15.2554Z" fill="white"/>
<path d="M39.0951 19.7417H36.5525V20.5415H39.0951V19.7417Z" fill="white"/>
<path d="M49.4954 19.7417H39.4519V20.5415H49.4954V19.7417Z" fill="white"/>
<path d="M58.5933 19.7417H49.8942V20.5415H58.5933V19.7417Z" fill="white"/>
<path d="M67.984 19.7417H58.9499V20.5415H67.984V19.7417Z" fill="white"/>
<path d="M41.8264 21.2682H36.5525V22.068H41.8264V21.2682Z" fill="white"/>
<path d="M51.6588 21.2682H42.2351V22.068H51.6588V21.2682Z" fill="white"/>
<path d="M67.9844 21.2682H52.0683V22.068H67.9844V21.2682Z" fill="white"/>
<path d="M44.6414 22.7956H36.5525V23.5954H44.6414V22.7956Z" fill="white"/>
<path d="M56.4288 22.7956H44.9773V23.5954H56.4288V22.7956Z" fill="white"/>
<path d="M67.9844 22.7956H56.8697V23.5954H67.9844V22.7956Z" fill="white"/>
<path d="M46.4629 24.3221H36.5525V25.1219H46.4629V24.3221Z" fill="white"/>
<path d="M56.8582 24.3221H46.9478V25.1219H56.8582V24.3221Z" fill="white"/>
<path d="M67.9667 24.3221H57.3043V25.1219H67.9667V24.3221Z" fill="white"/>
<path d="M45.2859 25.8495H36.5525V26.6493H45.2859V25.8495Z" fill="white"/>
<path d="M58.208 25.8495H45.65V26.6493H58.208V25.8495Z" fill="white"/>
<path d="M67.9668 25.8495H58.5933V26.6493H67.9668V25.8495Z" fill="white"/>
<path d="M41.084 27.3761H36.5525V28.1758H41.084V27.3761Z" fill="white"/>
<path d="M47.597 27.376H41.5075V28.1758H47.597V27.376Z" fill="white"/>
<path d="M57.746 27.3761H48.063V28.1758H57.746V27.3761Z" fill="white"/>
<path d="M67.8909 27.3761H58.208V28.1758H67.8909V27.3761Z" fill="white"/>
<path d="M46.7362 28.9034H36.5525V29.7032H46.7362V28.9034Z" fill="white"/>
<path d="M55.2876 28.9035H47.1775V29.7032H55.2876V28.9035Z" fill="white"/>
<path d="M62.5159 28.9035H55.7917V29.7032H62.5159V28.9035Z" fill="white"/>
<path d="M67.89 28.9034H62.9353V29.7032H67.89V28.9034Z" fill="white"/>
<path d="M43.9061 30.43H36.5525V31.2297H43.9061V30.43Z" fill="white"/>
<path d="M58.5635 6.79852H24.5264V9.52161H58.5635V6.79852Z" stroke="#BBDBF3" stroke-width="2.3691" stroke-miterlimit="10"/>
<path d="M58.5635 6.79852H53.1221V9.52161H58.5635V6.79852Z" fill="#BBDBF3" stroke="#BBDBF3" stroke-width="1.6563" stroke-miterlimit="10"/>
<path d="M69.216 6.79848H63.7746V9.52157H69.216V6.79848Z" fill="#BBDBF3" stroke="#BBDBF3" stroke-width="1.6563" stroke-miterlimit="10"/>
<path d="M54.9023 8.71392C55.2937 8.93212 55.7768 8.82478 56.0475 8.48428L57.5022 9.29549L57.6433 9.04386L56.1894 8.23265C56.3393 7.82441 56.1771 7.35809 55.7848 7.13902C55.3492 6.89618 54.7982 7.05015 54.5549 7.48479C54.3107 7.92031 54.4667 8.47109 54.9023 8.71392ZM55.6878 7.31146C56.0263 7.50063 56.1489 7.93175 55.9593 8.27048C55.7689 8.61098 55.3378 8.73064 54.9984 8.54147C54.6572 8.35143 54.5364 7.92295 54.7268 7.58245C54.9164 7.2446 55.3466 7.12142 55.6878 7.31146Z" fill="white"/>
<path d="M69.216 46.2846H42.2531V50.5966H69.216V46.2846Z" fill="#E5F0F8"/>
<path d="M46.5488 48.441L43.7814 46.8459V50.0353L46.5488 48.441Z" fill="white"/>
<path d="M47.7824 48.4411H67.4516" stroke="white" stroke-width="1.9936" stroke-miterlimit="10"/>
<path d="M48.1456 47.7152H47.7824V49.1661H48.1456V47.7152Z" fill="white"/>
<path d="M69.216 40.2401H42.2531V44.5522H69.216V40.2401Z" fill="#E5F0F8"/>
<path d="M46.5488 42.3957L43.7814 40.8014V43.9908L46.5488 42.3957Z" fill="white"/>
<path d="M47.7824 42.3958H67.4516" stroke="white" stroke-width="1.9936" stroke-miterlimit="10"/>
<path d="M48.1456 41.6708H47.7824V43.1216H48.1456V41.6708Z" fill="white"/>
<path d="M69.216 34.1956H42.2531V38.5077H69.216V34.1956Z" fill="#E5F0F8"/>
<path d="M46.5488 36.3512L43.7814 34.7569V37.9463L46.5488 36.3512Z" fill="white"/>
<path d="M47.7824 36.3513H67.4516" stroke="white" stroke-width="1.9936" stroke-miterlimit="10"/>
<path d="M48.1456 35.6263H47.7824V37.0772H48.1456V35.6263Z" fill="white"/>
<path d="M160.01 114.787V54.5616L100.487 54.5616L100.487 114.787L160.01 114.787Z" fill="#BBDBF3"/>
<path d="M159.391 55.1709H101.107V114.178H159.391V55.1709Z" fill="white"/>
<path d="M107.688 57.7084H102.55V58.5055H107.688V57.7084Z" fill="#E5F0F8"/>
<path d="M120.661 59.7338H113.865H101.107V62.4472H159.391V59.7338H120.661Z" fill="#E5F0F8"/>
<path d="M114.008 57.7084H108.87V58.5055H114.008V57.7084Z" fill="#E5F0F8"/>
<path d="M120.329 57.7084H115.19V58.5055H120.329V57.7084Z" fill="#E5F0F8"/>
<path d="M109.064 60.8107H102.55V61.3491H109.064V60.8107Z" fill="white"/>
<path d="M117.077 60.8106H110.562V61.3491H117.077V60.8106Z" fill="white"/>
<path d="M125.09 60.8107H118.575V61.3491H125.09V60.8107Z" fill="white"/>
<path d="M133.104 60.8106H126.59V61.3491H133.104V60.8106Z" fill="white"/>
<path d="M148.693 56.7819H141.225V59.2217H148.693V56.7819Z" stroke="#E5F0F8" stroke-width="2.7385" stroke-miterlimit="10"/>
<path d="M157.197 56.7819H149.729V59.2216H157.197V56.7819Z" fill="#E5F0F8"/>
<path d="M119.471 76.8466V63.9711H103.279V76.8466H119.471Z" fill="#E5F0F8"/>
<path d="M118.856 64.6202H103.895V76.1971H118.856V64.6202Z" fill="white"/>
<path d="M103.895 76.1972L108.124 71.0731L111.096 74.7446L115.288 67.684L118.856 76.1972H103.895Z" fill="#E5F0F8"/>
<path d="M111.375 68.1616C111.793 68.1616 112.132 67.8232 112.132 67.4058C112.132 66.9884 111.793 66.65 111.375 66.65C110.956 66.65 110.617 66.9884 110.617 67.4058C110.617 67.8232 110.956 68.1616 111.375 68.1616Z" fill="#E5F0F8"/>
<path d="M138.334 76.8466V63.9711H122.142V76.8466H138.334Z" fill="#E5F0F8"/>
<path d="M137.719 64.6202H122.758V76.1971H137.719V64.6202Z" fill="white"/>
<path d="M122.758 76.1972L126.987 71.0731L129.959 74.7446L134.151 67.684L137.719 76.1972H122.758Z" fill="#E5F0F8"/>
<path d="M130.238 68.1616C130.656 68.1616 130.995 67.8232 130.995 67.4058C130.995 66.9884 130.656 66.65 130.238 66.65C129.82 66.65 129.48 66.9884 129.48 67.4058C129.48 67.8232 129.82 68.1616 130.238 68.1616Z" fill="#E5F0F8"/>
<path d="M157.197 76.8466V63.9711H141.005V76.8466H157.197Z" fill="#E5F0F8"/>
<path d="M156.582 64.6202H141.621V76.1971H156.582V64.6202Z" fill="white"/>
<path d="M141.621 76.1972L145.85 71.0731L148.822 74.7446L153.014 67.684L156.582 76.1972H141.621Z" fill="#E5F0F8"/>
<path d="M149.101 68.1616C149.519 68.1616 149.858 67.8232 149.858 67.4058C149.858 66.9884 149.519 66.65 149.101 66.65C148.683 66.65 148.344 66.9884 148.344 67.4058C148.344 67.8232 148.683 68.1616 149.101 68.1616Z" fill="#E5F0F8"/>
<path d="M118.021 78.3792H104.727V79.2722H118.021V78.3792Z" fill="#E5F0F8"/>
<path d="M118.595 80.0421H104.154V80.9351H118.595V80.0421Z" fill="#E5F0F8"/>
<path d="M119.47 82.7687H103.278V83.4215H119.47V82.7687Z" fill="#E5F0F8"/>
<path d="M119.47 84.3876H103.278V85.0404H119.47V84.3876Z" fill="#E5F0F8"/>
<path d="M119.47 86.0056H103.278V86.6584H119.47V86.0056Z" fill="#E5F0F8"/>
<path d="M119.47 87.6245H103.278V88.2773H119.47V87.6245Z" fill="#E5F0F8"/>
<path d="M119.47 89.2434H103.278V89.8962H119.47V89.2434Z" fill="#E5F0F8"/>
<path d="M119.47 90.8614H103.278V91.5142H119.47V90.8614Z" fill="#E5F0F8"/>
<path d="M119.47 92.4803H103.278V93.1331H119.47V92.4803Z" fill="#E5F0F8"/>
<path d="M119.47 94.0992H103.278V94.752H119.47V94.0992Z" fill="#E5F0F8"/>
<path d="M119.47 95.7181H103.278V96.3709H119.47V95.7181Z" fill="#E5F0F8"/>
<path d="M119.47 97.3361H103.278V97.9889H119.47V97.3361Z" fill="#E5F0F8"/>
<path d="M109.945 98.8213H103.278V99.4741H109.945V98.8213Z" fill="#E5F0F8"/>
<path d="M155.748 78.3792H142.454V79.2722H155.748V78.3792Z" fill="#E5F0F8"/>
<path d="M156.322 80.0421H141.881V80.9351H156.322V80.0421Z" fill="#E5F0F8"/>
<path d="M157.197 82.7687H141.005V83.4215H157.197V82.7687Z" fill="#E5F0F8"/>
<path d="M157.197 84.3876H141.005V85.0404H157.197V84.3876Z" fill="#E5F0F8"/>
<path d="M157.197 86.0056H141.005V86.6585H157.197V86.0056Z" fill="#E5F0F8"/>
<path d="M157.197 87.6245H141.005V88.2774H157.197V87.6245Z" fill="#E5F0F8"/>
<path d="M157.197 89.2434H141.005V89.8962H157.197V89.2434Z" fill="#E5F0F8"/>
<path d="M157.197 90.8615H141.005V91.5143H157.197V90.8615Z" fill="#E5F0F8"/>
<path d="M157.197 92.4803H141.005V93.1332H157.197V92.4803Z" fill="#E5F0F8"/>
<path d="M157.197 94.0992H141.005V94.7521H157.197V94.0992Z" fill="#E5F0F8"/>
<path d="M157.197 95.7181H141.005V96.371H157.197V95.7181Z" fill="#E5F0F8"/>
<path d="M157.197 97.3361H141.005V97.9889H157.197V97.3361Z" fill="#E5F0F8"/>
<path d="M147.672 98.8213H141.005V99.4741H147.672V98.8213Z" fill="#E5F0F8"/>
<path d="M136.885 78.3792H123.591V79.2722H136.885V78.3792Z" fill="#E5F0F8"/>
<path d="M137.459 80.0421H123.018V80.9351H137.459V80.0421Z" fill="#E5F0F8"/>
<path d="M138.334 82.7687H122.142V83.4215H138.334V82.7687Z" fill="#E5F0F8"/>
<path d="M138.334 84.3876H122.142V85.0404H138.334V84.3876Z" fill="#E5F0F8"/>
<path d="M138.334 86.0056H122.142V86.6584H138.334V86.0056Z" fill="#E5F0F8"/>
<path d="M138.334 87.6245H122.142V88.2773H138.334V87.6245Z" fill="#E5F0F8"/>
<path d="M138.334 89.2434H122.142V89.8962H138.334V89.2434Z" fill="#E5F0F8"/>
<path d="M138.334 90.8614H122.142V91.5142H138.334V90.8614Z" fill="#E5F0F8"/>
<path d="M138.334 92.4803H122.142V93.1331H138.334V92.4803Z" fill="#E5F0F8"/>
<path d="M138.334 94.0992H122.142V94.752H138.334V94.0992Z" fill="#E5F0F8"/>
<path d="M138.334 95.7181H122.142V96.3709H138.334V95.7181Z" fill="#E5F0F8"/>
<path d="M138.334 97.3361H122.142V97.9889H138.334V97.3361Z" fill="#E5F0F8"/>
<path d="M128.809 98.8213H122.142V99.4741H128.809V98.8213Z" fill="#E5F0F8"/>
<path d="M119.47 101.359H103.278V105.198H119.47V101.359Z" fill="#E5F0F8"/>
<path d="M118.627 103.278L116.15 101.851V104.705L118.627 103.278Z" fill="white"/>
<path d="M113.381 102.333H103.81V102.985H113.381V102.333Z" fill="white"/>
<path d="M111.451 103.57H103.81V104.223H111.451V103.57Z" fill="white"/>
<path d="M138.31 101.359H122.118V105.198H138.31V101.359Z" fill="#E5F0F8"/>
<path d="M137.467 103.278L134.991 101.851V104.705L137.467 103.278Z" fill="white"/>
<path d="M132.22 102.333H122.649V102.985H132.22V102.333Z" fill="white"/>
<path d="M130.291 103.57H122.649V104.223H130.291V103.57Z" fill="white"/>
<path d="M157.15 101.359H140.958V105.198H157.15V101.359Z" fill="#E5F0F8"/>
<path d="M156.306 103.278L153.83 101.851V104.705L156.306 103.278Z" fill="white"/>
<path d="M151.06 102.333H141.489V102.986H151.06V102.333Z" fill="white"/>
<path d="M149.13 103.57H141.489V104.223H149.13V103.57Z" fill="white"/>
<path d="M159.391 107.059H101.107V114.178H159.391V107.059Z" fill="#E5F0F8"/>
<path d="M123.838 108.257H115.176V108.632H123.838V108.257Z" fill="white"/>
<path d="M123.838 108.982H115.176V109.356H123.838V108.982Z" fill="white"/>
<path d="M123.838 109.707H115.176V110.081H123.838V109.707Z" fill="white"/>
<path d="M123.838 110.432H115.176V110.806H123.838V110.432Z" fill="white"/>
<path d="M123.838 111.156H115.176V111.53H123.838V111.156Z" fill="white"/>
<path d="M123.838 111.881H115.176V112.255H123.838V111.881Z" fill="white"/>
<path d="M123.838 112.605H115.176V112.98H123.838V112.605Z" fill="white"/>
<path d="M136.66 108.632H145.322V108.258H136.66V108.632Z" fill="white"/>
<path d="M136.66 109.357H145.322V108.983H136.66V109.357Z" fill="white"/>
<path d="M136.66 110.082H145.322V109.707H136.66V110.082Z" fill="white"/>
<path d="M136.66 110.806H145.322V110.431H136.66V110.806Z" fill="white"/>
<path d="M136.66 111.531H145.322V111.156H136.66V111.531Z" fill="white"/>
<path d="M136.66 112.255H145.322V111.88H136.66V112.255Z" fill="white"/>
<path d="M136.66 112.98H145.322V112.605H136.66V112.98Z" fill="white"/>
<path d="M100.626 0H57.1012C50.2007 0 44.5547 5.63446 44.5547 12.5148V113.418C44.5547 120.304 50.2007 125.939 57.1012 125.939H100.626C107.526 125.939 113.172 120.304 113.172 113.418V12.5148C113.172 5.63446 107.527 0 100.626 0ZM104.206 14.724H53.5218V12.4285C53.5218 10.4586 55.1272 8.85642 57.1012 8.85642H100.626C102.6 8.85642 104.205 10.4586 104.205 12.4285V14.724H104.206Z" fill="#586773"/>
<path d="M100.627 4.38245H57.1016C52.6546 4.38245 49.0391 7.99153 49.0391 12.4285V113.325C49.0391 117.763 52.6555 121.378 57.1016 121.378H100.626C105.073 121.378 108.695 117.762 108.695 113.325V12.4285C108.696 7.99153 105.073 4.38245 100.627 4.38245ZM104.206 14.724H53.5222V12.4285C53.5222 10.4586 55.1276 8.85641 57.1016 8.85641H100.626C102.6 8.85641 104.205 10.4586 104.205 12.4285V14.724H104.206Z" fill="#E5F0F8"/>
<path d="M104.206 12.4286V14.7241H53.5215V12.4286C53.5215 10.4586 55.1269 8.85645 57.1009 8.85645H100.625C102.6 8.85645 104.206 10.4586 104.206 12.4286Z" fill="#BBDBF3"/>
<path d="M104.206 14.724V113.325C104.206 115.295 102.6 116.897 100.626 116.897H57.1009C55.1269 116.897 53.5215 115.295 53.5215 113.325V14.724H104.206Z" fill="white"/>
<path d="M58.4443 13.2485C59.2511 13.2485 59.9051 12.5958 59.9051 11.7906C59.9051 10.9855 59.2511 10.3328 58.4443 10.3328C57.6374 10.3328 56.9834 10.9855 56.9834 11.7906C56.9834 12.5958 57.6374 13.2485 58.4443 13.2485Z" fill="#40A87B"/>
<path d="M62.5556 13.2485C63.3624 13.2485 64.0165 12.5958 64.0165 11.7906C64.0165 10.9855 63.3624 10.3328 62.5556 10.3328C61.7488 10.3328 61.0947 10.9855 61.0947 11.7906C61.0947 12.5958 61.7488 13.2485 62.5556 13.2485Z" fill="white"/>
<path d="M66.6678 13.2486C67.4746 13.2486 68.1286 12.5958 68.1286 11.7907C68.1286 10.9855 67.4746 10.3328 66.6678 10.3328C65.861 10.3328 65.2069 10.9855 65.2069 11.7907C65.2069 12.5958 65.861 13.2486 66.6678 13.2486Z" fill="#F74242"/>
<path d="M122.091 17.5571H75.2002V40.6519H122.091V17.5571Z" fill="#BBDBF3"/>
<path d="M93.5055 20.0303H77.4563V20.9735H93.5055V20.0303Z" fill="white"/>
<path d="M110.196 20.0303H94.1467V20.9735H110.196V20.0303Z" fill="white"/>
<path d="M119.835 20.0303H110.741V20.9735H119.835V20.0303Z" fill="white"/>
<path d="M87.6444 21.9422H77.4563V22.8854H87.6444V21.9422Z" fill="white"/>
<path d="M102.771 21.9422H88.1731V22.8854H102.771V21.9422Z" fill="white"/>
<path d="M119.834 21.9422H103.184V22.8854H119.834V21.9422Z" fill="white"/>
<path d="M91.3279 23.8541H77.4563V24.7973H91.3279V23.8541Z" fill="white"/>
<path d="M105.713 23.8541H91.8419V24.7973H105.713V23.8541Z" fill="white"/>
<path d="M119.834 23.854H106.157V24.7972H119.834V23.854Z" fill="white"/>
<path d="M85.4809 25.7651H77.4563V26.7083H85.4809V25.7651Z" fill="white"/>
<path d="M99.6443 25.7651H86.009V26.7083H99.6443V25.7651Z" fill="white"/>
<path d="M113.822 25.7651H100.187V26.7083H113.822V25.7651Z" fill="white"/>
<path d="M119.835 25.7651H114.3V26.7082H119.835V25.7651Z" fill="white"/>
<path d="M93.5055 27.7605H77.4563V28.7037H93.5055V27.7605Z" fill="white"/>
<path d="M110.196 27.7605H94.1467V28.7037H110.196V27.7605Z" fill="white"/>
<path d="M119.835 27.7605H110.741V28.7037H119.835V27.7605Z" fill="white"/>
<path d="M87.6444 29.6715H77.4563V30.6147H87.6444V29.6715Z" fill="white"/>
<path d="M102.771 29.6716H88.1731V30.6147H102.771V29.6716Z" fill="white"/>
<path d="M119.834 29.6715H103.184V30.6147H119.834V29.6715Z" fill="white"/>
<path d="M91.3279 31.5834H77.4563V32.5266H91.3279V31.5834Z" fill="white"/>
<path d="M105.713 31.5834H91.8419V32.5266H105.713V31.5834Z" fill="white"/>
<path d="M119.834 31.5834H106.157V32.5266H119.834V31.5834Z" fill="white"/>
<path d="M85.4809 33.4953H77.4563V34.4385H85.4809V33.4953Z" fill="white"/>
<path d="M99.5027 33.4953H85.8674V34.4385H99.5027V33.4953Z" fill="white"/>
<path d="M113.679 33.4953H100.043V34.4385H113.679V33.4953Z" fill="white"/>
<path d="M119.692 33.4953H114.157V34.4385H119.692V33.4953Z" fill="white"/>
<path d="M85.4809 35.4591H77.4563V36.4023H85.4809V35.4591Z" fill="white"/>
<path d="M99.5027 35.4592H85.8674V36.4023H99.5027V35.4592Z" fill="white"/>
<path d="M113.679 35.4592H100.043V36.4023H113.679V35.4592Z" fill="white"/>
<path d="M119.692 35.4592H114.157V36.4023H119.692V35.4592Z" fill="white"/>
<path d="M93.2278 37.2355H77.4563V38.1787H93.2278V37.2355Z" fill="white"/>
<path d="M122.091 67.9171H75.2002V83.4734H122.091V67.9171Z" fill="#BBDBF3"/>
<path d="M93.5055 70.3903H77.4563V71.3335H93.5055V70.3903Z" fill="white"/>
<path d="M110.196 70.3903H94.1467V71.3335H110.196V70.3903Z" fill="white"/>
<path d="M119.835 70.3903H110.741V71.3335H119.835V70.3903Z" fill="white"/>
<path d="M87.6444 72.3022H77.4563V73.2454H87.6444V72.3022Z" fill="white"/>
<path d="M102.771 72.3022H88.1731V73.2453H102.771V72.3022Z" fill="white"/>
<path d="M119.834 72.3022H103.184V73.2454H119.834V72.3022Z" fill="white"/>
<path d="M91.3279 74.2132H77.4563V75.1564H91.3279V74.2132Z" fill="white"/>
<path d="M105.713 74.2132H91.8419V75.1564H105.713V74.2132Z" fill="white"/>
<path d="M119.834 74.2132H106.157V75.1564H119.834V74.2132Z" fill="white"/>
<path d="M85.4809 76.125H77.4563V77.0682H85.4809V76.125Z" fill="white"/>
<path d="M99.6443 76.125H86.009V77.0682H99.6443V76.125Z" fill="white"/>
<path d="M113.822 76.125H100.187V77.0682H113.822V76.125Z" fill="white"/>
<path d="M119.835 76.125H114.3V77.0682H119.835V76.125Z" fill="white"/>
<path d="M93.5055 78.1196H77.4563V79.0628H93.5055V78.1196Z" fill="white"/>
<path d="M110.196 78.1197H94.1467V79.0628H110.196V78.1197Z" fill="white"/>
<path d="M119.835 78.1196H110.741V79.0628H119.835V78.1196Z" fill="white"/>
<path d="M87.6444 80.0315H77.4563V80.9747H87.6444V80.0315Z" fill="white"/>
<path d="M122.091 42.6095H75.2002V53.0567H122.091V42.6095Z" fill="#BBDBF3"/>
<path d="M93.5055 44.4941H77.4563V45.4373H93.5055V44.4941Z" fill="white"/>
<path d="M110.196 44.4941H94.1467V45.4373H110.196V44.4941Z" fill="white"/>
<path d="M119.835 44.4941H110.741V45.4373H119.835V44.4941Z" fill="white"/>
<path d="M87.6444 46.406H77.4563V47.3492H87.6444V46.406Z" fill="white"/>
<path d="M102.771 46.406H88.1731V47.3492H102.771V46.406Z" fill="white"/>
<path d="M119.834 46.406H103.184V47.3492H119.834V46.406Z" fill="white"/>
<path d="M91.3279 48.3179H77.4563V49.2611H91.3279V48.3179Z" fill="white"/>
<path d="M105.713 48.3179H91.8419V49.2611H105.713V48.3179Z" fill="white"/>
<path d="M119.834 48.3178H106.157V49.261H119.834V48.3178Z" fill="white"/>
<path d="M85.4809 50.2289H77.4563V51.1721H85.4809V50.2289Z" fill="white"/>
<path d="M122.091 93.2238H75.2002V103.671H122.091V93.2238Z" fill="#BBDBF3"/>
<path d="M93.5055 95.1084H77.4563V96.0515H93.5055V95.1084Z" fill="white"/>
<path d="M110.196 95.1084H94.1467V96.0515H110.196V95.1084Z" fill="white"/>
<path d="M119.835 95.1084H110.741V96.0515H119.835V95.1084Z" fill="white"/>
<path d="M87.6444 97.0202H77.4563V97.9634H87.6444V97.0202Z" fill="white"/>
<path d="M102.771 97.0202H88.1731V97.9634H102.771V97.0202Z" fill="white"/>
<path d="M119.834 97.0202H103.184V97.9634H119.834V97.0202Z" fill="white"/>
<path d="M91.3279 98.9313H77.4563V99.8744H91.3279V98.9313Z" fill="white"/>
<path d="M105.713 98.9313H91.8419V99.8744H105.713V98.9313Z" fill="white"/>
<path d="M119.834 98.9312H106.157V99.8744H119.834V98.9312Z" fill="white"/>
<path d="M85.4809 100.843H77.4563V101.786H85.4809V100.843Z" fill="white"/>
<path d="M64.484 33.0783C68.8491 33.0783 72.3878 29.5468 72.3878 25.1905C72.3878 20.8343 68.8491 17.3028 64.484 17.3028C60.1188 17.3028 56.5801 20.8343 56.5801 25.1905C56.5801 29.5468 60.1188 33.0783 64.484 33.0783Z" fill="#E5F0F8"/>
<mask id="mask0_3_3104" style="mask-type:luminance" maskUnits="userSpaceOnUse" x="56" y="17" width="17" height="17">
<path d="M64.484 33.0783C68.8491 33.0783 72.3878 29.5468 72.3878 25.1905C72.3878 20.8343 68.8491 17.3028 64.484 17.3028C60.1188 17.3028 56.5801 20.8343 56.5801 25.1905C56.5801 29.5468 60.1188 33.0783 64.484 33.0783Z" fill="white"/>
</mask>
<g mask="url(#mask0_3_3104)">
<path d="M71.5229 34.8916C70.7929 35.3386 69.8302 35.1089 69.3823 34.3804L66.0162 28.907C65.5684 28.1785 65.7985 27.2177 66.5285 26.7707C67.2585 26.3238 68.2212 26.5534 68.6691 27.2819L72.0351 32.7554C72.4839 33.483 72.2529 34.4446 71.5229 34.8916Z" fill="#F9E181"/>
<path d="M63.5486 20.362C63.5486 20.362 62.1741 21.3395 62.0427 23.4027C61.9114 25.4659 59.5274 25.7686 59.5274 25.7686C59.5274 25.7686 59.6209 27.896 62.2464 28.3324C64.8719 28.7688 64.8419 24.4233 64.8419 24.4233L63.5486 20.362Z" fill="#332B27"/>
<path d="M66.0918 20.3621C66.0918 20.3621 66.9629 20.5565 67.0695 22.1156C67.1762 23.6747 66.172 25.9974 65.6766 26.0326C65.1802 26.0678 64.1223 20.5917 66.0918 20.3621Z" fill="#332B27"/>
<path d="M63.4511 25.9068L60.7269 27.1869C60.7269 27.1869 61.3326 34.1358 61.3951 34.9022C61.4577 35.6676 61.2232 36.8237 61.2232 36.8237H67.7517C67.7517 36.8237 67.6732 33.0739 68.1114 32.0278C68.4085 31.3186 68.6122 30.8875 68.4403 30.0745C68.2683 29.2624 67.6891 28.0439 67.8928 26.637L66.2177 25.9648L63.4511 25.9068Z" fill="#F9E181"/>
<path d="M66.2182 22.8044V25.9657C66.2182 25.9657 66.2182 26.0044 66.2102 26.066C66.1776 26.3238 66.0101 26.9872 65.1496 26.9775C64.3632 26.9678 63.8139 26.3915 63.5794 26.0889C63.4939 25.9806 63.4507 25.9067 63.4507 25.9067L63.8474 22.8044H66.2182Z" fill="#B37661"/>
<path d="M66.2169 25.9648L64.8089 24.1708L66.2169 23.8998V25.9648Z" fill="#824C3A"/>
<path d="M66.4813 24.3838C65.9621 24.6627 65.1571 24.5817 64.5135 24.111C63.8699 23.6412 62.2698 21.7355 63.7148 20.4544C65.1615 19.1734 66.417 20.6383 66.5043 20.8838C66.5043 20.8838 66.6815 21.7742 66.8049 22.4024C66.8375 22.5616 66.8657 22.7042 66.8869 22.8106C66.8895 22.8282 66.8939 22.8441 66.8966 22.859C66.9945 23.3517 67.0006 24.1066 66.4813 24.3838Z" fill="#B37661"/>
<path d="M58.0093 35.7547C57.237 35.3861 56.9063 34.4543 57.2758 33.6836L60.0502 27.889C60.4197 27.1183 61.3533 26.7883 62.1256 27.157C62.8979 27.5256 63.2285 28.4574 62.8591 29.2281L60.0846 35.0227C59.7152 35.7934 58.7816 36.1234 58.0093 35.7547Z" fill="#F9E181"/>
<path d="M64.8089 19.9362C64.8089 19.9362 66.2979 19.718 66.7432 21.0993L65.9982 21.2709C65.9982 21.2709 65.9224 20.7835 65.5062 20.6392C65.5062 20.6392 65.8395 20.9621 65.8139 21.3413L64.9587 21.5841C64.9587 21.5841 64.8256 21.0641 64.8344 20.8468C64.8344 20.8468 64.711 21.3659 64.756 21.6554L64.1732 21.9334C64.1732 21.9334 64.2658 22.4252 64.0762 22.6417C63.8867 22.8581 63.7324 23.701 63.7324 23.701C63.7324 23.701 62.7829 22.0751 62.9636 21.4706C63.1452 20.8644 63.4873 19.8834 64.8089 19.9362Z" fill="#332B27"/>
<path d="M64.0552 23.071C64.2034 23.3447 64.2351 23.5321 64.02 23.6482C63.8049 23.7643 63.4654 23.6984 63.3173 23.4247C63.1692 23.1511 63.223 22.8352 63.4381 22.7191C63.6541 22.603 63.9071 22.7974 64.0552 23.071Z" fill="#B37661"/>
<path d="M63.4476 23.02C63.4476 23.02 63.8108 22.9365 63.899 23.2409C63.899 23.2409 63.7588 23.152 63.5816 23.218" stroke="#724638" stroke-width="0.439" stroke-miterlimit="10" stroke-linecap="round" stroke-linejoin="round"/>
<path d="M65.3356 22.4076C65.3559 22.5264 65.4353 22.6109 65.512 22.5977C65.5887 22.5845 65.6345 22.478 65.6133 22.3592C65.5931 22.2405 65.5137 22.156 65.437 22.1692C65.3603 22.1824 65.3145 22.2889 65.3356 22.4076Z" fill="#332B27"/>
<path d="M66.3323 22.1392C66.3526 22.258 66.4319 22.3425 66.5086 22.3293C66.5853 22.3161 66.6312 22.2096 66.61 22.0908C66.5897 21.9721 66.5104 21.8876 66.4337 21.9008C66.357 21.9149 66.312 22.0213 66.3323 22.1392Z" fill="#332B27"/>
<path d="M65.9581 23.7133C66.1062 23.7362 66.2455 23.635 66.2693 23.4872L65.7315 23.4027C65.7077 23.5505 65.8091 23.6904 65.9581 23.7133Z" fill="white"/>
<path d="M65.0235 22.2167C65.0235 22.2167 65.2104 21.8806 65.5067 21.9387" stroke="#332B27" stroke-width="0.6517" stroke-miterlimit="10"/>
<path d="M66.2864 21.7487C66.2864 21.7487 66.4539 21.6862 66.6708 21.8411" stroke="#332B27" stroke-width="0.6517" stroke-miterlimit="10"/>
<path d="M65.9778 22.2185C65.9778 22.2185 66.0933 22.8027 66.4513 22.8142C66.4513 22.8142 66.3587 22.9329 66.2282 22.9981" stroke="#332B27" stroke-width="0.6517" stroke-miterlimit="10"/>
<path d="M65.6389 23.0191C65.6301 23.137 65.4458 23.2197 65.2272 23.2039C65.0086 23.188 64.8384 23.0798 64.8463 22.9619C64.8552 22.844 65.0394 22.7613 65.2581 22.7772C65.4776 22.793 65.6477 22.9012 65.6389 23.0191Z" fill="#A14C53"/>
<path d="M66.8864 22.8106C66.7612 22.8379 66.6537 22.8168 66.6149 22.7446C66.5638 22.6505 66.6475 22.5071 66.8053 22.4015C66.8379 22.5625 66.8662 22.7041 66.8864 22.8106Z" fill="#A14C53"/>
<path d="M69.2413 33.9801C68.8675 33.1214 69.184 32.1492 69.943 31.8201L76.8691 29.8546C77.086 29.7384 77.3285 29.5959 77.5154 29.4542C77.95 29.1234 79.2354 28.3641 79.3439 28.5498C79.4523 28.7354 78.6765 29.434 78.7867 29.4745C78.896 29.5149 79.5846 29.1348 79.8658 28.9501C80.1462 28.7644 80.684 28.2709 80.8691 28.3386C81.0543 28.4055 81.0278 28.6941 81.0278 28.6941C81.0278 28.6941 81.2094 28.4803 81.3214 28.6193C81.4334 28.7583 81.2306 29.1595 81.2306 29.1595C81.2306 29.1595 81.3196 29.0301 81.4043 29.214C81.4889 29.3979 80.982 29.8915 80.982 29.8915C80.982 29.8915 81.1124 29.8352 81.1583 29.9839C81.2032 30.1326 80.4653 30.7071 79.8226 30.9385C79.2487 31.1453 77.8319 31.4849 77.5339 31.5553L71.3025 34.9426C70.5417 35.2726 69.6142 34.8388 69.2413 33.9801Z" fill="#B37661"/>
<path d="M61.2687 32.5495L62.1926 30.6191" stroke="#332B27" stroke-width="0.9026" stroke-miterlimit="10"/>
<path d="M64.1044 23.7335C64.1256 23.8576 64.0427 23.9763 63.9175 23.9975C63.7932 24.0186 63.6742 23.9359 63.653 23.8109C63.6319 23.6869 63.7147 23.5681 63.8399 23.547C63.9642 23.525 64.0833 23.6086 64.1044 23.7335Z" stroke="white" stroke-width="0.7434" stroke-miterlimit="10"/>
<path d="M68.089 32.0867C68.089 32.0867 68.58 31.0564 68.4998 30.5215C68.4205 29.9865 67.9832 28.541 67.9259 28.0975" stroke="#332B27" stroke-width="0.9026" stroke-miterlimit="10"/>
<path d="M59.8135 35.4002C59.2933 35.9404 58.4602 36.017 57.8519 35.6175L52.7366 30.3315L54.0485 28.6862L59.9281 33.0977C60.5382 33.6836 60.4007 34.7905 59.8135 35.4002Z" fill="#B37661"/>
</g>
<path d="M59.049 36.1084L59.7887 37.6041L61.4426 37.8443L60.2453 39.0083L60.5283 40.6518L59.049 39.8758L57.5696 40.6518L57.8526 39.0083L56.6553 37.8443L58.3093 37.6041L59.049 36.1084Z" fill="#F9E181"/>
<path d="M64.4845 36.1084L65.2242 37.6041L66.8781 37.8443L65.6809 39.0083L65.9639 40.6518L64.4845 39.8758L63.0051 40.6518L63.2881 39.0083L62.0909 37.8443L63.7448 37.6041L64.4845 36.1084Z" fill="#F9E181"/>
<path d="M69.9191 36.1084L70.6588 37.6041L72.3127 37.8443L71.1155 39.0083L71.3985 40.6518L69.9191 39.8758L68.4397 40.6518L68.7227 39.0083L67.5255 37.8443L69.1794 37.6041L69.9191 36.1084Z" fill="#F9E181"/>
<path d="M71.9827 33.6344H56.9835V34.728H71.9827V33.6344Z" fill="#E5F0F8"/>
<path d="M70.0719 56.0748C73.1585 52.9945 73.1585 48.0003 70.0719 44.92C66.9853 41.8397 61.9809 41.8397 58.8943 44.92C55.8077 48.0003 55.8077 52.9945 58.8943 56.0748C61.9809 59.1551 66.9853 59.1551 70.0719 56.0748Z" fill="#E5F0F8"/>
<mask id="mask1_3_3104" style="mask-type:luminance" maskUnits="userSpaceOnUse" x="56" y="42" width="17" height="17">
<path d="M70.0719 56.0748C73.1585 52.9945 73.1585 48.0003 70.0719 44.92C66.9853 41.8397 61.9809 41.8397 58.8943 44.92C55.8077 48.0003 55.8077 52.9945 58.8943 56.0748C61.9809 59.1551 66.9853 59.1551 70.0719 56.0748Z" fill="white"/>
</mask>
<g mask="url(#mask1_3_3104)">
<path d="M65.2726 54.5392L68.7365 56.0956L68.2587 70.1369L58.4135 70.2891L56.9209 55.8457L61.7302 54.2832L65.2726 54.5392Z" fill="#E5F0F8"/>
<path d="M65.2717 52.5121V54.7046C65.2717 54.7046 65.1403 55.1779 64.0233 55.1823C62.9089 55.185 61.7293 54.4468 61.7293 54.4468L62.0749 49.6526L65.2717 52.5121Z" fill="#FDAE97"/>
<path d="M65.2726 54.4037L62.9909 52.0396L65.2726 52.0097V54.4037Z" fill="#E89780"/>
<path d="M66.2071 48.1006C66.2071 48.1006 66.2071 49.4449 66.2071 50.3987V51.187C66.2071 51.8099 66.0317 52.7338 65.3299 52.9476C64.6299 53.1614 63.6645 52.8693 62.9918 52.1408C62.3191 51.4096 60.8265 48.1182 62.9019 46.9022C64.9799 45.6872 66.1586 47.7794 66.2071 48.1006Z" fill="#FDAE97"/>
<path d="M73.1826 67.4068C72.0991 68.02 70.7105 67.6373 70.0951 66.556L66.0096 59.3686C65.3951 58.2873 65.7786 56.9015 66.8622 56.2874C67.9457 55.6742 69.3342 56.0569 69.9487 57.1382L74.0342 64.3256C74.6496 65.4078 74.2661 66.7935 73.1826 67.4068Z" fill="#E7888B"/>
<path d="M63.117 46.7896C63.117 46.7896 65.6279 45.6335 66.2071 46.3928C66.7863 47.1521 65.8218 47.4169 65.8218 47.4169C65.8218 47.4169 67.0191 47.2762 66.9732 48.0812C66.9265 48.8871 63.9299 47.7865 63.9299 47.7865C63.9299 47.7865 64.9235 48.2361 64.3495 48.5924C63.7747 48.9487 63.1179 48.4842 63.1179 48.4842C63.1179 48.4842 62.5483 48.8097 62.6409 50.3028C62.7344 51.7959 61.8413 52.1258 61.8413 52.1258C61.8413 52.1258 61.948 49.8637 61.5107 49.2593C61.0725 48.6549 61.7152 46.4113 63.117 46.7896Z" fill="#322A28"/>
<path d="M62.7816 50.6494C63.025 51.0304 63.0902 51.2978 62.7904 51.4888C62.4907 51.6797 61.9926 51.619 61.7492 51.2389C61.5059 50.8579 61.5509 50.3943 61.8506 50.2033C62.1495 50.0124 62.5374 50.2684 62.7816 50.6494Z" fill="#FDAE97"/>
<path d="M61.9987 50.6195C61.9987 50.6195 62.3064 50.5737 62.5171 50.967C62.5171 50.967 62.3223 50.9222 62.086 50.967" stroke="#E89780" stroke-width="0.626" stroke-miterlimit="10"/>
<path d="M64.3416 49.8506C64.3416 49.9948 64.4174 50.1119 64.5109 50.1119C64.6043 50.1119 64.6801 49.9948 64.6801 49.8506C64.6801 49.7063 64.6043 49.5892 64.5109 49.5892C64.4174 49.5884 64.3416 49.7054 64.3416 49.8506Z" fill="#2C3447"/>
<path d="M64.45 51.4914C64.45 51.4914 64.7022 51.9806 65.3387 51.8663" stroke="#2C3447" stroke-width="0.7837" stroke-miterlimit="10"/>
<path d="M65.0613 49.95L65.3805 50.8729C65.4131 50.9662 65.377 51.07 65.2941 51.1237L65.034 51.2926" stroke="#2C3447" stroke-width="0.7837" stroke-miterlimit="10"/>
<path d="M64.074 49.4159C64.074 49.4159 64.4311 49.1669 64.7714 49.3244" stroke="#2C3447" stroke-width="0.7837" stroke-miterlimit="10"/>
<path d="M66.0925 49.8506C66.0925 49.9948 66.0167 50.1119 65.9232 50.1119C65.8298 50.1119 65.7539 49.9948 65.7539 49.8506C65.7539 49.7063 65.8298 49.5892 65.9232 49.5892C66.0167 49.5884 66.0925 49.7054 66.0925 49.8506Z" fill="#2C3447"/>
<path d="M66.249 49.4018C66.249 49.4018 66.0013 49.1669 65.6609 49.3253" stroke="#2C3447" stroke-width="0.7837" stroke-miterlimit="10"/>
<path d="M60.7524 68.0631C59.5605 68.4239 58.2892 67.7464 57.9277 66.5569L55.5226 58.6498C55.1611 57.4602 55.84 56.1915 57.032 55.8308C58.2239 55.4701 59.4952 56.1475 59.8567 57.3371L62.2618 65.2441C62.6233 66.4337 61.9444 67.7024 60.7524 68.0631Z" fill="#E7888B"/>
<path d="M64.6105 50.8043C64.5655 50.9371 64.3151 50.9732 64.0506 50.8844C63.7862 50.7964 63.6081 50.6169 63.6521 50.484C63.6962 50.3512 63.9475 50.3151 64.212 50.404C64.4765 50.4928 64.6554 50.6714 64.6105 50.8043Z" fill="#E89780"/>
<path d="M66.2067 50.3996V50.9125C65.9898 50.938 65.8126 50.8782 65.7826 50.7656C65.7509 50.6319 65.9395 50.4682 66.2067 50.3996Z" fill="#E89780"/>
<path d="M64.6343 55.5721H63.8329L63.7623 55.7243L64.1317 55.9988H64.4474L64.7101 55.6777L64.6343 55.5721Z" fill="#F74242"/>
<path d="M61.7437 54.2576L64.2634 55.1823L63.8041 56.232L61.6326 54.4881L61.7437 54.2576Z" fill="white"/>
<path d="M65.2721 54.5127L65.3929 54.7582L64.7405 56.1325L64.2635 55.1823L65.2721 54.5127Z" fill="white"/>
<path d="M64.4477 55.9988L65.6414 65.2441L64.7104 66.4416L63.5008 65.3559L64.132 55.9988H64.4477Z" fill="#F74242"/>
<path d="M65.6376 54.7072C65.6376 54.7072 65.8747 57.1796 66.2582 60.9136C66.6417 64.6476 66.6171 70.4756 67.8249 71.5939C67.8249 71.5939 69.0698 71.6863 71.5904 72.428C71.5904 72.428 70.885 70.0639 70.0219 68.7248C69.1588 67.3857 68.7356 56.0956 68.7356 56.0956L65.6376 54.7072Z" fill="#E7888B"/>
<path d="M65.8421 56.7968L66.1348 59.7082L65.2047 58.9172L65.2717 56.8532L65.8421 56.7968Z" fill="#E5F0F8"/>
<path d="M60.8721 54.5612C60.8721 54.5612 61.8022 58.5653 62.258 62.2791C62.7138 65.992 62.5595 69.5835 63.7312 71.7637C63.7312 71.7637 59.0286 72.6084 59.0392 74.5009C59.0392 74.5009 57.7132 73.0421 57.7017 71.0431C57.6903 69.045 56.9197 55.8449 56.9197 55.8449L60.8721 54.5612Z" fill="#E7888B"/>
<path d="M75.2412 64.9512C75.2412 64.9512 64.9534 66.7223 62.8287 73.3043C59.1629 84.663 66.7625 122.036 28.1815 123.822" stroke="#93ACBF" stroke-width="17.222" stroke-miterlimit="10" stroke-linecap="round"/>
<path d="M86.0981 68.7195L79.5713 53.1729L74.3106 55.3724C70.2199 57.0828 68.2926 61.7785 70.0065 65.8609L70.3265 66.6238C72.0404 70.7062 76.7457 72.6295 80.8365 70.9191L86.0981 68.7195Z" fill="#586773"/>
<path d="M74.1652 59.908C74.8484 59.622 75.1711 58.8364 74.8846 58.1545C74.792 57.9336 74.6474 57.7524 74.4711 57.6151C74.248 57.4409 73.9712 57.3406 73.6847 57.3345C73.5004 57.3274 73.3082 57.36 73.1275 57.4365C72.4442 57.7225 72.1215 58.5082 72.4081 59.19C72.4998 59.4091 72.6443 59.5904 72.8207 59.7267C73.0437 59.901 73.3179 60.0021 73.6044 60.0083C73.7922 60.0162 73.9818 59.9845 74.1652 59.908Z" fill="#F9ECB8"/>
</g>
<path d="M59.0487 61.416L59.7884 62.9108L61.4423 63.151L60.2451 64.315L60.5281 65.9586L59.0487 65.1826L57.5693 65.9586L57.8523 64.315L56.6551 63.151L58.309 62.9108L59.0487 61.416Z" fill="#F9E181"/>
<path d="M64.4843 61.416L65.224 62.9108L66.8779 63.151L65.6806 64.315L65.9636 65.9586L64.4843 65.1826L63.0049 65.9586L63.2879 64.315L62.0906 63.151L63.7446 62.9108L64.4843 61.416Z" fill="#F9E181"/>
<path d="M69.9188 61.416L70.6585 62.9108L72.3125 63.151L71.1152 64.315L71.3982 65.9586L69.9188 65.1826L68.4395 65.9586L68.7225 64.315L67.5252 63.151L69.1791 62.9108L69.9188 61.416Z" fill="#F9E181"/>
<path d="M71.9834 58.9419H56.9842V60.0356H71.9834V58.9419Z" fill="#E5F0F8"/>
<path d="M70.0718 106.495C73.1584 103.415 73.1584 98.4205 70.0718 95.3402C66.9852 92.2599 61.9809 92.2599 58.8942 95.3402C55.8076 98.4205 55.8076 103.415 58.8942 106.495C61.9809 109.575 66.9852 109.575 70.0718 106.495Z" fill="#E5F0F8"/>
<mask id="mask2_3_3104" style="mask-type:luminance" maskUnits="userSpaceOnUse" x="56" y="93" width="17" height="16">
<path d="M70.0718 106.495C73.1584 103.415 73.1584 98.4205 70.0718 95.3402C66.9852 92.2599 61.9809 92.2599 58.8942 95.3402C55.8076 98.4205 55.8076 103.415 58.8942 106.495C61.9809 109.575 66.9852 109.575 70.0718 106.495Z" fill="white"/>
</mask>
<g mask="url(#mask2_3_3104)">
<path d="M65.2726 104.96L68.7365 106.516L68.2586 120.557L58.4135 120.709L56.9209 106.266L61.7302 104.703L65.2726 104.96Z" fill="#E5F0F8"/>
<path d="M65.2717 102.932V105.124C65.2717 105.124 65.1403 105.598 64.0233 105.602C62.9089 105.605 61.7293 104.867 61.7293 104.867L62.0749 100.072L65.2717 102.932Z" fill="#FDAE97"/>
<path d="M65.2725 104.824L62.9909 102.459L65.2725 102.43V104.824Z" fill="#E89780"/>
<path d="M66.2071 98.5213C66.2071 98.5213 66.2071 99.8657 66.2071 100.819V101.608C66.2071 102.231 66.0316 103.154 65.3299 103.368C64.6298 103.582 63.6644 103.29 62.9918 102.561C62.3191 101.83 60.8265 98.5389 62.9018 97.3229C64.9798 96.1079 66.1586 98.1993 66.2071 98.5213Z" fill="#FDAE97"/>
<path d="M73.1825 117.827C72.099 118.441 70.7104 118.058 70.0951 116.977L66.0096 109.789C65.3951 108.708 65.7786 107.322 66.8621 106.708C67.9457 106.095 69.3342 106.478 69.9487 107.559L74.0342 114.746C74.6496 115.828 74.2661 117.214 73.1825 117.827Z" fill="#E7888B"/>
<path d="M63.117 97.2094C63.117 97.2094 65.6278 96.0533 66.2071 96.8126C66.7863 97.5719 65.8218 97.8368 65.8218 97.8368C65.8218 97.8368 67.0191 97.696 66.9732 98.501C66.9265 99.307 63.9298 98.2063 63.9298 98.2063C63.9298 98.2063 64.9234 98.6559 64.3495 99.0122C63.7747 99.3685 63.1178 98.904 63.1178 98.904C63.1178 98.904 62.5483 99.2295 62.6409 100.723C62.7343 102.216 61.8412 102.546 61.8412 102.546C61.8412 102.546 61.9479 100.284 61.5106 99.6791C61.0725 99.0756 61.7152 96.832 63.117 97.2094Z" fill="#322A28"/>
<path d="M62.7816 101.069C63.0249 101.45 63.0902 101.718 62.7904 101.909C62.4907 102.1 61.9925 102.039 61.7492 101.659C61.5059 101.278 61.5508 100.814 61.8506 100.623C62.1495 100.433 62.5374 100.688 62.7816 101.069Z" fill="#FDAE97"/>
<path d="M61.9987 101.04C61.9987 101.04 62.3064 100.994 62.5171 101.388C62.5171 101.388 62.3223 101.343 62.086 101.388" stroke="#E89780" stroke-width="0.626" stroke-miterlimit="10"/>
<path d="M64.3416 100.27C64.3416 100.415 64.4174 100.532 64.5108 100.532C64.6043 100.532 64.6801 100.415 64.6801 100.27C64.6801 100.126 64.6043 100.009 64.5108 100.009C64.4174 100.009 64.3416 100.126 64.3416 100.27Z" fill="#2C3447"/>
<path d="M64.45 101.911C64.45 101.911 64.7021 102.4 65.3387 102.286" stroke="#2C3447" stroke-width="0.7837" stroke-miterlimit="10"/>
<path d="M65.0613 100.371L65.3805 101.294C65.4131 101.387 65.3769 101.491 65.294 101.544L65.034 101.713" stroke="#2C3447" stroke-width="0.7837" stroke-miterlimit="10"/>
<path d="M64.074 99.8357C64.074 99.8357 64.4311 99.5867 64.7714 99.7442" stroke="#2C3447" stroke-width="0.7837" stroke-miterlimit="10"/>
<path d="M66.0924 100.27C66.0924 100.415 66.0166 100.532 65.9232 100.532C65.8297 100.532 65.7539 100.415 65.7539 100.27C65.7539 100.126 65.8297 100.009 65.9232 100.009C66.0166 100.009 66.0924 100.126 66.0924 100.27Z" fill="#2C3447"/>
<path d="M66.249 99.8217C66.249 99.8217 66.0012 99.5867 65.6609 99.7451" stroke="#2C3447" stroke-width="0.7837" stroke-miterlimit="10"/>
<path d="M60.7524 118.484C59.5604 118.845 58.2891 118.167 57.9277 116.978L55.5226 109.07C55.1611 107.881 55.84 106.612 57.0319 106.252C58.2239 105.891 59.4952 106.568 59.8567 107.758L62.2618 115.665C62.6232 116.854 61.9444 118.123 60.7524 118.484Z" fill="#E7888B"/>
<path d="M64.6104 101.224C64.5655 101.357 64.3151 101.393 64.0506 101.304C63.7861 101.216 63.608 101.037 63.6521 100.904C63.6971 100.771 63.9475 100.735 64.212 100.824C64.4773 100.913 64.6554 101.091 64.6104 101.224Z" fill="#E89780"/>
<path d="M66.2066 100.819V101.332C65.9897 101.358 65.8125 101.298 65.7826 101.185C65.7508 101.052 65.9395 100.889 66.2066 100.819Z" fill="#E89780"/>
<path d="M64.6343 105.993H63.8329L63.7623 106.144L64.1317 106.419H64.4474L64.7101 106.098L64.6343 105.993Z" fill="#F74242"/>
<path d="M61.7437 104.678L64.2634 105.603L63.8041 106.653L61.6326 104.909L61.7437 104.678Z" fill="white"/>
<path d="M65.272 104.933L65.3928 105.179L64.7404 106.553L64.2635 105.603L65.272 104.933Z" fill="white"/>
<path d="M64.4476 106.419L65.6414 115.665L64.7104 116.861L63.5008 115.776L64.132 106.419H64.4476Z" fill="#F74242"/>
<path d="M65.6375 105.128C65.6375 105.128 65.8747 107.6 66.2582 111.334C66.6417 115.068 66.617 120.896 67.8249 122.015C67.8249 122.015 69.0697 122.107 71.5903 122.849C71.5903 122.849 70.885 120.485 70.0219 119.145C69.1588 117.806 68.7356 106.516 68.7356 106.516L65.6375 105.128Z" fill="#E7888B"/>
<path d="M65.8421 107.217L66.1348 110.128L65.2047 109.337L65.2717 107.274L65.8421 107.217Z" fill="#E5F0F8"/>
<path d="M60.8721 104.982C60.8721 104.982 61.8022 108.986 62.258 112.7C62.7138 116.414 62.5595 120.004 63.7312 122.184C63.7312 122.184 59.0286 123.029 59.0391 124.922C59.0391 124.922 57.7132 123.463 57.7017 121.464C57.6903 119.466 56.9197 106.266 56.9197 106.266L60.8721 104.982Z" fill="#E7888B"/>
<path d="M75.2412 115.372C75.2412 115.372 64.9534 117.143 62.8287 123.725C59.1628 135.084 66.7625 172.456 28.1814 174.242" stroke="#93ACBF" stroke-width="17.222" stroke-miterlimit="10" stroke-linecap="round"/>
<path d="M86.098 119.139L79.5713 103.593L74.3106 105.792C70.2198 107.503 68.2926 112.198 70.0065 116.281L70.3265 117.044C72.0404 121.126 76.7457 123.049 80.8364 121.339L86.098 119.139Z" fill="#586773"/>
<path d="M74.1651 110.328C74.8484 110.042 75.1711 109.256 74.8845 108.574C74.792 108.353 74.6474 108.172 74.4711 108.035C74.248 107.861 73.9712 107.76 73.6846 107.754C73.5004 107.747 73.3082 107.78 73.1274 107.856C72.4442 108.142 72.1215 108.928 72.408 109.61C72.4997 109.829 72.6443 110.01 72.8206 110.147C73.0437 110.321 73.3179 110.422 73.6044 110.428C73.7922 110.436 73.9817 110.404 74.1651 110.328Z" fill="#F9ECB8"/>
</g>
<path d="M59.0487 111.836L59.7884 113.332L61.4423 113.572L60.2451 114.736L60.5281 116.379L59.0487 115.603L57.5693 116.379L57.8523 114.736L56.6551 113.572L58.309 113.332L59.0487 111.836Z" fill="#F9E181"/>
<path d="M64.4843 111.836L65.224 113.332L66.8779 113.572L65.6806 114.736L65.9636 116.379L64.4843 115.603L63.0049 116.379L63.2879 114.736L62.0906 113.572L63.7446 113.332L64.4843 111.836Z" fill="#F9E181"/>
<path d="M69.9188 111.836L70.6585 113.332L72.3125 113.572L71.1152 114.736L71.3982 116.379L69.9188 115.603L68.4395 116.379L68.7225 114.736L67.5252 113.572L69.1791 113.332L69.9188 111.836Z" fill="#F9E181"/>
<path d="M71.9831 109.362H56.9839V110.455H71.9831V109.362Z" fill="#E5F0F8"/>
<path d="M64.484 83.6925C68.8491 83.6925 72.3878 80.1611 72.3878 75.8048C72.3878 71.4485 68.8491 67.9171 64.484 67.9171C60.1188 67.9171 56.5801 71.4485 56.5801 75.8048C56.5801 80.1611 60.1188 83.6925 64.484 83.6925Z" fill="#E5F0F8"/>
<mask id="mask3_3_3104" style="mask-type:luminance" maskUnits="userSpaceOnUse" x="56" y="67" width="17" height="17">
<path d="M64.484 83.6925C68.8491 83.6925 72.3878 80.1611 72.3878 75.8048C72.3878 71.4485 68.8491 67.9171 64.484 67.9171C60.1188 67.9171 56.5801 71.4485 56.5801 75.8048C56.5801 80.1611 60.1188 83.6925 64.484 83.6925Z" fill="white"/>
</mask>
<g mask="url(#mask3_3_3104)">
<path d="M71.5229 85.5059C70.7929 85.9528 69.8302 85.7232 69.3823 84.9947L66.0162 79.5212C65.5684 78.7927 65.7985 77.8319 66.5285 77.385C67.2585 76.938 68.2212 77.1677 68.6691 77.8962L72.0351 83.3696C72.4839 84.0972 72.2529 85.0589 71.5229 85.5059Z" fill="#F9E181"/>
<path d="M63.5486 70.9754C63.5486 70.9754 62.1741 71.9529 62.0427 74.0161C61.9114 76.0793 59.5274 76.382 59.5274 76.382C59.5274 76.382 59.6209 78.5094 62.2464 78.9458C64.8719 79.3822 64.8419 75.0367 64.8419 75.0367L63.5486 70.9754Z" fill="#332B27"/>
<path d="M66.0918 70.9754C66.0918 70.9754 66.9629 71.1699 67.0695 72.729C67.1771 74.288 66.172 76.6108 65.6766 76.646C65.1802 76.6821 64.1223 71.206 66.0918 70.9754Z" fill="#332B27"/>
<path d="M63.4511 76.5201L60.7269 77.8003C60.7269 77.8003 61.3326 84.7492 61.3951 85.5156C61.4577 86.2819 61.2232 87.4371 61.2232 87.4371H67.7517C67.7517 87.4371 67.6732 83.6873 68.1114 82.6411C68.4085 81.932 68.6122 81.5009 68.4403 80.6879C68.2683 79.8758 67.6891 78.6572 67.8928 77.2504L66.2177 76.5782L63.4511 76.5201Z" fill="#F9E181"/>
<path d="M66.2182 73.4187V76.5799C66.2182 76.5799 66.2182 76.6187 66.2102 76.6802C66.1776 76.938 66.0101 77.6014 65.1496 77.5918C64.3632 77.5821 63.8139 77.0058 63.5794 76.7031C63.4939 76.5949 63.4507 76.521 63.4507 76.521L63.8474 73.4187H66.2182Z" fill="#B37661"/>
<path d="M66.2169 76.579L64.8089 74.7841L66.2169 74.514V76.579Z" fill="#824C3A"/>
<path d="M66.4813 74.998C65.9621 75.2769 65.1571 75.196 64.5135 74.7253C63.8699 74.2554 62.2698 72.3497 63.7148 71.0687C65.1615 69.7876 66.417 71.2526 66.5043 71.498C66.5043 71.498 66.6815 72.3884 66.8049 73.0166C66.8375 73.1759 66.8657 73.3184 66.8869 73.4249C66.8895 73.4425 66.8939 73.4583 66.8966 73.4733C66.9945 73.9651 67.0006 74.7209 66.4813 74.998Z" fill="#B37661"/>
<path d="M58.0093 86.369C57.237 86.0003 56.9063 85.0686 57.2758 84.2978L60.0502 78.5033C60.4197 77.7325 61.3533 77.4026 62.1256 77.7712C62.8979 78.1399 63.2285 79.0716 62.8591 79.8424L60.0846 85.637C59.7152 86.4077 58.7816 86.7368 58.0093 86.369Z" fill="#F9E181"/>
<path d="M64.8089 70.5495C64.8089 70.5495 66.2979 70.3314 66.7432 71.7127L65.9982 71.8843C65.9982 71.8843 65.9224 71.3968 65.5062 71.2525C65.5062 71.2525 65.8395 71.5754 65.8139 71.9546L64.9587 72.1975C64.9587 72.1975 64.8256 71.6775 64.8344 71.4602C64.8344 71.4602 64.711 71.9793 64.756 72.2687L64.1732 72.5468C64.1732 72.5468 64.2658 73.0386 64.0762 73.255C63.8867 73.4715 63.7324 74.3144 63.7324 74.3144C63.7324 74.3144 62.7829 72.6884 62.9636 72.084C63.1452 71.4778 63.4873 70.4976 64.8089 70.5495Z" fill="#332B27"/>
<path d="M64.0552 73.6853C64.2034 73.9589 64.2351 74.1463 64.02 74.2624C63.8049 74.3786 63.4654 74.3126 63.3173 74.039C63.1692 73.7653 63.223 73.4495 63.4381 73.3333C63.6541 73.2172 63.9071 73.4116 64.0552 73.6853Z" fill="#B37661"/>
<path d="M63.4476 73.6334C63.4476 73.6334 63.8108 73.5498 63.899 73.8542C63.899 73.8542 63.7588 73.7654 63.5816 73.8314" stroke="#724638" stroke-width="0.439" stroke-miterlimit="10" stroke-linecap="round" stroke-linejoin="round"/>
<path d="M65.3356 73.0219C65.3559 73.1407 65.4353 73.2251 65.512 73.2119C65.5887 73.1987 65.6345 73.0923 65.6133 72.9735C65.5931 72.8547 65.5137 72.7702 65.437 72.7834C65.3603 72.7966 65.3145 72.9031 65.3356 73.0219Z" fill="#332B27"/>
<path d="M66.3323 72.7536C66.3526 72.8724 66.4319 72.9568 66.5086 72.9436C66.5853 72.9304 66.6312 72.824 66.61 72.7052C66.5897 72.5864 66.5104 72.5019 66.4337 72.5151C66.357 72.5283 66.312 72.6357 66.3323 72.7536Z" fill="#332B27"/>
<path d="M65.9581 74.3276C66.1062 74.3504 66.2455 74.2493 66.2693 74.1014L65.7315 74.017C65.7077 74.1648 65.8091 74.3038 65.9581 74.3276Z" fill="white"/>
<path d="M65.0235 72.831C65.0235 72.831 65.2104 72.4949 65.5067 72.5529" stroke="#332B27" stroke-width="0.6517" stroke-miterlimit="10"/>
<path d="M66.2864 72.3629C66.2864 72.3629 66.4539 72.3004 66.6708 72.4553" stroke="#332B27" stroke-width="0.6517" stroke-miterlimit="10"/>
<path d="M65.9778 72.8327C65.9778 72.8327 66.0933 73.417 66.4513 73.4284C66.4513 73.4284 66.3587 73.5472 66.2282 73.6123" stroke="#332B27" stroke-width="0.6517" stroke-miterlimit="10"/>
<path d="M65.6389 73.6325C65.6301 73.7504 65.4458 73.8331 65.2272 73.8173C65.0086 73.8014 64.8384 73.6932 64.8463 73.5753C64.8552 73.4574 65.0394 73.3747 65.2581 73.3905C65.4776 73.4064 65.6477 73.5146 65.6389 73.6325Z" fill="#A14C53"/>
<path d="M66.8864 73.4249C66.7612 73.4521 66.6537 73.431 66.6149 73.3589C66.5638 73.2647 66.6475 73.1213 66.8053 73.0157C66.8379 73.1759 66.8662 73.3184 66.8864 73.4249Z" fill="#A14C53"/>
<path d="M69.2413 84.5944C68.8675 83.7356 69.184 82.7634 69.943 82.4344L76.8691 80.4688C77.086 80.3527 77.3285 80.2101 77.5154 80.0685C77.95 79.7377 79.2354 78.9784 79.3439 79.164C79.4523 79.3497 78.6765 80.0483 78.7867 80.0887C78.896 80.1292 79.5846 79.7491 79.8658 79.5643C80.1462 79.3787 80.684 78.8851 80.8691 78.9529C81.0543 79.0197 81.0278 79.3083 81.0278 79.3083C81.0278 79.3083 81.2094 79.0945 81.3214 79.2335C81.4334 79.3725 81.2306 79.7737 81.2306 79.7737C81.2306 79.7737 81.3196 79.6444 81.4043 79.8283C81.4889 80.0122 80.982 80.5058 80.982 80.5058C80.982 80.5058 81.1124 80.4495 81.1583 80.5981C81.2032 80.7468 80.4653 81.3214 79.8226 81.5528C79.2487 81.7595 77.8319 82.0991 77.5339 82.1695L71.3025 85.5569C70.5417 85.8868 69.6142 85.4531 69.2413 84.5944Z" fill="#B37661"/>
<path d="M61.2687 83.1637L62.1926 81.2334" stroke="#332B27" stroke-width="0.9026" stroke-miterlimit="10"/>
<path d="M64.1044 74.3469C64.1256 74.4709 64.0427 74.5897 63.9175 74.6108C63.7932 74.6319 63.6742 74.5492 63.653 74.4243C63.6319 74.3002 63.7147 74.1815 63.8399 74.1604C63.9642 74.1392 64.0833 74.2228 64.1044 74.3469Z" stroke="white" stroke-width="0.7434" stroke-miterlimit="10"/>
<path d="M68.089 82.7009C68.089 82.7009 68.58 81.6707 68.4998 81.1357C68.4205 80.6008 67.9832 79.1552 67.9259 78.7118" stroke="#332B27" stroke-width="0.9026" stroke-miterlimit="10"/>
<path d="M59.8135 86.0136C59.2933 86.5538 58.4602 86.6303 57.8519 86.2309L52.7366 80.9448L54.0485 79.2995L59.9281 83.711C60.5382 84.297 60.4007 85.4047 59.8135 86.0136Z" fill="#B37661"/>
</g>
<path d="M59.049 86.7226L59.7887 88.2183L61.4426 88.4577L60.2453 89.6217L60.5283 91.2661L59.049 90.4901L57.5696 91.2661L57.8526 89.6217L56.6553 88.4577L58.3093 88.2183L59.049 86.7226Z" fill="#F9E181"/>
<path d="M64.4845 86.7226L65.2242 88.2183L66.8781 88.4577L65.6809 89.6217L65.9639 91.2661L64.4845 90.4901L63.0051 91.2661L63.2881 89.6217L62.0909 88.4577L63.7448 88.2183L64.4845 86.7226Z" fill="#F9E181"/>
<path d="M69.9191 86.7226L70.6588 88.2183L72.3127 88.4577L71.1155 89.6217L71.3985 91.2661L69.9191 90.4901L68.4397 91.2661L68.7227 89.6217L67.5255 88.4577L69.1794 88.2183L69.9191 86.7226Z" fill="#F9E181"/>
<path d="M71.9827 84.2486H56.9835V85.3423H71.9827V84.2486Z" fill="#E5F0F8"/>
<path d="M161.58 56.4335H137.315C136.604 56.4335 136.027 55.858 136.027 55.1489V41.2326C136.027 40.5234 136.604 39.948 137.315 39.948H161.58C162.29 39.948 162.867 40.5234 162.867 41.2326V55.148C162.867 55.858 162.29 56.4335 161.58 56.4335Z" fill="#088CFC"/>
<path d="M145.558 46.0813C145.266 45.7672 144.983 45.5578 144.71 45.4531C144.437 45.3484 144.161 45.2956 143.884 45.2956C143.471 45.2956 143.098 45.3687 142.765 45.5147C142.432 45.6608 142.145 45.8623 141.906 46.1209C141.666 46.3787 141.48 46.6805 141.349 47.0236C141.218 47.3676 141.153 47.7381 141.153 48.134C141.153 48.5598 141.218 48.9531 141.349 49.3121C141.481 49.6711 141.666 49.9816 141.906 50.2429C142.145 50.5051 142.432 50.7101 142.765 50.8597C143.098 51.0093 143.471 51.0841 143.884 51.0841C144.206 51.0841 144.52 51.0075 144.823 50.8544C145.126 50.7013 145.409 50.4559 145.671 50.1198L146.84 50.9495C146.48 51.443 146.042 51.802 145.525 52.0264C145.007 52.2507 144.457 52.3625 143.873 52.3625C143.258 52.3625 142.694 52.263 142.181 52.0651C141.668 51.8671 141.225 51.5865 140.855 51.224C140.484 50.8615 140.193 50.426 139.984 49.9174C139.774 49.4089 139.669 48.844 139.669 48.2237C139.669 47.5885 139.774 47.0104 139.984 46.4905C140.194 45.9705 140.484 45.5279 140.855 45.161C141.226 44.795 141.668 44.5126 142.181 44.3137C142.694 44.1158 143.258 44.0164 143.873 44.0164C144.412 44.0164 144.912 44.1114 145.373 44.3023C145.834 44.4932 146.263 44.8161 146.66 45.2728L145.558 46.0813Z" fill="white"/>
<path d="M151.696 45.9248C151.546 45.7083 151.346 45.5491 151.094 45.4479C150.843 45.3467 150.58 45.2966 150.302 45.2966C150.137 45.2966 149.977 45.315 149.824 45.3529C149.671 45.3907 149.531 45.4497 149.408 45.5324C149.284 45.6151 149.185 45.7215 149.11 45.8517C149.035 45.9828 148.997 46.1377 148.997 46.3172C148.997 46.5864 149.091 46.7923 149.278 46.9339C149.465 47.0756 149.698 47.1996 149.976 47.3043C150.253 47.409 150.556 47.5102 150.886 47.607C151.216 47.7038 151.519 47.8384 151.796 48.0109C152.073 48.1833 152.306 48.4112 152.494 48.6954C152.681 48.9796 152.775 49.357 152.775 49.8286C152.775 50.2553 152.696 50.6275 152.539 50.9451C152.381 51.2627 152.169 51.5267 151.904 51.7361C151.638 51.9455 151.328 52.103 150.976 52.2068C150.624 52.3115 150.253 52.3634 149.864 52.3634C149.369 52.3634 148.893 52.2807 148.436 52.117C147.979 51.9525 147.586 51.6762 147.256 51.2874L148.324 50.2553C148.495 50.5175 148.723 50.7207 149.003 50.8668C149.284 51.0129 149.582 51.0859 149.897 51.0859C150.062 51.0859 150.227 51.063 150.392 51.019C150.557 50.9741 150.707 50.9064 150.841 50.8166C150.976 50.7269 151.085 50.6125 151.168 50.4744C151.25 50.3363 151.291 50.177 151.291 49.9975C151.291 49.7054 151.198 49.4811 151.01 49.3244C150.822 49.1678 150.59 49.035 150.312 48.9259C150.036 48.8177 149.731 48.7147 149.402 48.6179C149.072 48.5212 148.769 48.3883 148.491 48.2194C148.214 48.0513 147.981 47.827 147.795 47.5463C147.607 47.2656 147.513 46.8899 147.513 46.4192C147.513 46.0084 147.598 45.6529 147.766 45.3538C147.935 45.0546 148.156 44.8056 148.429 44.6077C148.703 44.4097 149.016 44.2619 149.368 44.1651C149.72 44.0683 150.08 44.019 150.447 44.019C150.867 44.019 151.273 44.0824 151.667 44.21C152.06 44.3375 152.414 44.5469 152.729 44.8382L151.696 45.9248Z" fill="white"/>
<path d="M158.148 45.9247C157.998 45.7083 157.798 45.549 157.547 45.4478C157.295 45.3467 157.032 45.2965 156.754 45.2965C156.589 45.2965 156.43 45.315 156.276 45.3528C156.123 45.3907 155.984 45.4496 155.86 45.5323C155.737 45.615 155.637 45.7215 155.562 45.8517C155.487 45.9828 155.449 46.1376 155.449 46.3171C155.449 46.5864 155.543 46.7922 155.731 46.9339C155.917 47.0755 156.15 47.1996 156.428 47.3043C156.705 47.409 157.008 47.5102 157.339 47.607C157.668 47.7037 157.972 47.8384 158.248 48.0108C158.525 48.1833 158.758 48.4111 158.946 48.6953C159.134 48.9795 159.227 49.357 159.227 49.8285C159.227 50.2553 159.149 50.6274 158.991 50.9451C158.833 51.2627 158.621 51.5266 158.356 51.736C158.09 51.9454 157.78 52.1029 157.429 52.2067C157.076 52.3114 156.705 52.3634 156.316 52.3634C155.821 52.3634 155.345 52.2806 154.889 52.117C154.431 51.9525 154.038 51.6762 153.708 51.2873L154.776 50.2553C154.948 50.5175 155.175 50.7207 155.455 50.8668C155.737 51.0128 156.035 51.0858 156.349 51.0858C156.514 51.0858 156.679 51.063 156.844 51.019C157.009 50.9741 157.159 50.9063 157.294 50.8166C157.429 50.7269 157.537 50.6125 157.62 50.4743C157.702 50.3362 157.743 50.177 157.743 49.9975C157.743 49.7054 157.65 49.481 157.462 49.3244C157.274 49.1678 157.042 49.0349 156.765 48.9258C156.488 48.8176 156.184 48.7147 155.854 48.6179C155.524 48.5211 155.221 48.3883 154.943 48.2193C154.666 48.0513 154.434 47.8269 154.247 47.5463C154.059 47.2656 153.965 46.8899 153.965 46.4192C153.965 46.0083 154.05 45.6528 154.219 45.3537C154.387 45.0546 154.608 44.8056 154.881 44.6076C155.155 44.4096 155.468 44.2618 155.82 44.1651C156.172 44.0683 156.532 44.019 156.9 44.019C157.319 44.019 157.726 44.0823 158.119 44.2099C158.512 44.3375 158.866 44.5469 159.181 44.8381L158.148 45.9247Z" fill="white"/>
<path d="M26.3088 77.4043H5.97041C5.30831 77.4043 4.77139 76.8685 4.77139 76.2078V61.7072C4.77139 61.0465 5.30831 60.5106 5.97041 60.5106H26.3079C26.97 60.5106 27.5069 61.0465 27.5069 61.7072V76.2078C27.5078 76.8685 26.9709 77.4043 26.3088 77.4043Z" fill="#F9E181"/>
<path d="M14.7378 71.4865C14.7378 71.9344 14.6646 72.3655 14.5209 72.7825C14.3763 73.1978 14.1621 73.5638 13.8791 73.8788C13.5961 74.1929 13.2408 74.4437 12.8132 74.6302C12.3847 74.8167 11.8875 74.91 11.3214 74.91C10.4231 74.91 9.68867 74.7014 9.11737 74.2862C8.54431 73.8691 8.16873 73.2092 7.98624 72.3013L9.8791 71.8534C9.94434 72.2273 10.096 72.5256 10.3375 72.75C10.5774 72.9743 10.8736 73.0861 11.228 73.0861C11.8046 73.0861 12.1978 72.8916 12.4067 72.5027C12.6157 72.113 12.7188 71.5763 12.7188 70.8944V63.2917H14.7404V71.4865H14.7378Z" fill="white"/>
<path d="M22.7562 65.7245C22.542 65.4148 22.2563 65.1878 21.8975 65.0444C21.5396 64.9001 21.1631 64.8279 20.7672 64.8279C20.5327 64.8279 20.3053 64.8543 20.0857 64.9071C19.8662 64.9608 19.6678 65.0461 19.4915 65.164C19.3152 65.2811 19.1733 65.4333 19.0657 65.6198C18.959 65.8063 18.9061 66.0272 18.9061 66.2841C18.9061 66.6686 19.0392 66.9615 19.3064 67.1648C19.5726 67.368 19.9041 67.544 20.3009 67.6927C20.6967 67.8423 21.1287 67.9874 21.5995 68.1247C22.0694 68.2637 22.5023 68.4555 22.8981 68.7001C23.294 68.9464 23.6255 69.272 23.8926 69.6767C24.1598 70.0814 24.2929 70.6208 24.2929 71.293C24.2929 71.9009 24.1809 72.4323 23.9561 72.8863C23.7313 73.3395 23.4298 73.716 23.0507 74.0143C22.6707 74.3126 22.2299 74.5378 21.7273 74.6865C21.2248 74.8361 20.6958 74.9108 20.1404 74.9108C19.4342 74.9108 18.7554 74.7938 18.103 74.5589C17.4505 74.3249 16.8889 73.9298 16.419 73.3747L17.9425 71.9018C18.1894 72.2757 18.5129 72.5661 18.9132 72.7746C19.3134 72.9814 19.7393 73.0861 20.188 73.0861C20.4225 73.0861 20.6579 73.0544 20.8924 72.991C21.127 72.9259 21.3412 72.8309 21.5343 72.7016C21.7265 72.574 21.8816 72.4112 21.9989 72.2142C22.1161 72.0162 22.1752 71.7892 22.1752 71.5332C22.1752 71.1179 22.0421 70.7976 21.7749 70.5733C21.5078 70.3489 21.1763 70.1606 20.7805 70.0058C20.3846 69.8509 19.9517 69.7049 19.4818 69.5658C19.011 69.4277 18.579 69.2377 18.1832 68.9984C17.7864 68.7573 17.455 68.4379 17.1887 68.0367C16.9216 67.6372 16.7884 67.1014 16.7884 66.4292C16.7884 65.8415 16.9083 65.3347 17.149 64.908C17.3888 64.4822 17.7053 64.1267 18.095 63.8443C18.4856 63.5619 18.9317 63.3507 19.4342 63.2126C19.9367 63.0736 20.4499 63.004 20.9744 63.004C21.5722 63.004 22.1532 63.0955 22.7139 63.2759C23.2755 63.4572 23.7798 63.7554 24.2294 64.1725L22.7562 65.7245Z" fill="white"/>
<path d="M54.1247 31.7963H32.0592C31.3715 31.7963 30.8135 31.2394 30.8135 30.5531V16.1625C30.8135 15.4762 31.3715 14.9193 32.0592 14.9193H54.1247C54.8124 14.9193 55.3704 15.4762 55.3704 16.1625V30.5531C55.3704 31.2402 54.8124 31.7963 54.1247 31.7963Z" fill="#088CFC"/>
<path d="M32.126 24.8597V23.6306L39.2346 19.791V21.6677L34.4861 24.2447L39.2346 26.8218V28.6985L32.126 24.8597Z" fill="white"/>
<path d="M41.3978 30.2355L40.2314 29.7235L44.6149 16.4811L45.7813 17.0275L41.3978 30.2355Z" fill="white"/>
<path d="M54.0568 23.6306V24.8597L46.9482 28.6993V26.8226L51.6967 24.2456L46.9482 21.6686V19.7919L54.0568 23.6306Z" fill="white"/>
<path d="M128.204 122.745H96.0599C95.2444 122.745 94.5832 122.085 94.5832 121.271V107.628C94.5832 106.815 95.2444 106.155 96.0599 106.155H128.204C129.02 106.155 129.681 106.815 129.681 107.628V121.271C129.681 122.085 129.02 122.745 128.204 122.745Z" fill="#F9E181"/>
<path d="M97.4894 110.572H98.8718V113.661H102.505V110.572H103.888V118.327H102.505V114.909H98.8718V118.327H97.4894V110.572Z" fill="white"/>
<path d="M107.214 111.821H104.832V110.573H110.979V111.821H108.598V118.327H107.215V111.821H107.214Z" fill="white"/>
<path d="M111.957 110.572H114.064L116.139 116.005L118.235 110.572H120.321V118.327H119.005V111.886H118.983L116.623 118.327H115.657L113.297 111.886H113.275V118.327H111.959V110.572H111.957Z" fill="white"/>
<path d="M122.088 110.572H123.47V117.078H126.775V118.326H122.088V110.572Z" fill="white"/>
</g>
<defs>
<clipPath id="clip0_3_3104">
<rect width="165" height="148" fill="white"/>
</clipPath>
</defs>
</svg>
