<svg width="68" height="128" viewBox="0 0 68 128" fill="none" xmlns="http://www.w3.org/2000/svg">
<g clip-path="url(#clip0_1_302)">
<path d="M22.3433 66.3549C22.3433 66.3549 19.0481 68.3613 24.6356 68.9346C31.3691 69.7944 34.9509 69.6513 42.4008 68.218C42.4008 68.218 44.4066 69.5078 47.1286 70.5111C30.3663 77.6769 9.16263 70.081 22.3433 66.3549L22.3433 66.3549ZM20.1942 57.0395C20.1942 57.0395 16.6126 59.7624 22.2 60.3357C29.5067 61.0523 35.2374 61.1955 45.1229 59.1891C45.1229 59.1891 46.4123 60.6223 48.5613 61.3389C28.3606 67.3582 5.72415 61.9122 20.1944 57.0395L20.1942 57.0395ZM59.7362 73.3774C59.7362 73.3774 62.1718 75.3839 57.0141 76.9602C47.4151 79.8266 16.7557 80.6864 8.15958 76.9602C5.15099 75.6705 10.8817 73.8073 12.7441 73.5207C14.6066 73.0908 15.6095 73.0908 15.6095 73.0908C12.3144 70.7977 -6.31048 77.8201 6.15376 79.8265C40.3948 85.4158 68.6188 77.3902 59.7359 73.3774L59.7362 73.3774ZM23.9192 47.294C23.9192 47.294 8.303 51.0202 18.3318 52.31C22.6298 52.8832 31.0826 52.74 38.9624 52.1667C45.4094 51.5935 51.8566 50.447 51.8566 50.447C51.8566 50.447 49.5643 51.4501 47.9882 52.4534C32.0856 56.6095 1.56941 54.7464 10.3087 50.447C17.7587 46.864 23.9191 47.294 23.9191 47.294L23.9192 47.294ZM51.8566 62.9153C67.9026 54.603 60.4527 46.5774 55.295 47.5807C54.0056 47.8673 53.4325 48.154 53.4325 48.154C53.4325 48.154 53.8623 47.294 54.8652 47.0074C65.0373 43.4245 73.0603 57.756 51.5701 63.3453C51.5701 63.3453 51.7133 63.202 51.8566 62.9153L51.8566 62.9153ZM25.4952 85.5592C40.9682 86.5624 64.6074 84.9859 65.1804 77.6769C65.1804 77.6769 64.0344 80.5432 52.4297 82.6928C39.249 85.1293 22.9165 84.8426 13.3174 83.2661C13.3174 83.2661 15.3231 84.9859 25.4952 85.5591L25.4952 85.5592Z" fill="#4E7896"/>
<path d="M42.1144 6.10352e-05C42.1144 6.10352e-05 50.997 9.0289 33.6615 22.6439C19.7645 33.6791 30.5096 39.9849 33.6615 47.1507C25.4952 39.8417 19.6212 33.3925 23.6327 27.3732C29.5068 18.4876 45.696 14.1883 42.1144 8.86819e-05V6.10352e-05ZM37.5298 41.1315C41.6845 45.861 36.3836 50.1605 36.3836 50.1605C36.3836 50.1605 46.9855 44.7145 42.1144 37.9786C37.673 31.5295 34.2346 28.3766 52.8594 17.6279C52.8594 17.6279 23.4895 24.937 37.5298 41.1316L37.5298 41.1315ZM26.928 118.092V104.047C26.928 100.464 24.9222 98.0277 19.9078 98.0277C17.0424 98.0277 14.6068 98.7442 12.4578 99.6041L13.1742 102.184C14.7501 101.61 16.7559 101.037 18.9049 101.037C21.627 101.037 22.9164 102.184 22.9164 104.477V106.34H21.4837C14.6068 106.34 11.4549 108.92 11.4549 113.076C11.4549 116.515 13.604 118.522 17.4722 118.522C19.9077 118.522 21.7703 117.375 23.4895 115.942L23.7761 118.092H26.928L26.928 118.092ZM22.9164 113.506C21.4838 114.795 19.9078 115.512 18.4751 115.512C16.6127 115.512 15.4665 114.366 15.4665 112.359C15.4665 110.353 16.6127 108.92 21.1972 108.92H22.9164V113.506H22.9164ZM40.3952 118.092H35.3807L29.3634 98.4576H33.6615L37.3865 110.496L38.2461 114.079C40.1086 108.92 41.5413 103.617 42.1144 98.4576H46.4124C45.2663 104.907 43.2606 111.929 40.3952 118.092H40.3952ZM63.6046 118.092V104.047C63.6046 100.464 61.5988 98.0277 56.5844 98.0277C53.719 98.0277 51.2835 98.7442 49.1344 99.6041L49.7075 102.184C51.4267 101.61 53.4325 101.037 55.5816 101.037C58.3037 101.037 59.593 102.184 59.593 104.477V106.34H58.1604C51.2835 106.34 48.1316 108.92 48.1316 113.076C48.1316 116.515 50.1374 118.522 54.0056 118.522C56.5844 118.522 58.4469 117.375 60.1662 115.942L60.4527 118.092H63.6046V118.092ZM59.593 113.506C58.1604 114.795 56.5844 115.512 55.1516 115.512C53.2893 115.512 52.1431 114.366 52.1431 112.359C52.1431 110.353 53.2892 108.92 57.8738 108.92H59.593V113.506H59.593ZM7.01358 121.388C5.86744 123.108 4.14818 124.398 1.99928 125.114L0.136719 122.821C1.56936 121.961 3.00212 120.671 3.57512 119.525C4.14819 118.522 4.29156 117.089 4.29156 113.792V91.4352H8.5896V113.506C8.5896 117.948 8.15978 119.668 7.01359 121.388L7.01358 121.388Z" fill="#F58219"/>
</g>
<g clip-path="url(#clip1_1_302)">
<path d="M22.3433 66.3549C22.3433 66.3549 19.0481 68.3613 24.6356 68.9346C31.3691 69.7944 34.9509 69.6513 42.4008 68.218C42.4008 68.218 44.4066 69.5078 47.1286 70.5111C30.3663 77.6769 9.16263 70.081 22.3433 66.3549L22.3433 66.3549ZM20.1942 57.0395C20.1942 57.0395 16.6126 59.7624 22.2 60.3357C29.5067 61.0523 35.2374 61.1955 45.1229 59.1891C45.1229 59.1891 46.4123 60.6223 48.5613 61.3389C28.3606 67.3582 5.72415 61.9122 20.1944 57.0395L20.1942 57.0395ZM59.7362 73.3774C59.7362 73.3774 62.1718 75.3839 57.0141 76.9602C47.4151 79.8266 16.7557 80.6864 8.15958 76.9602C5.15099 75.6705 10.8817 73.8073 12.7441 73.5207C14.6066 73.0908 15.6095 73.0908 15.6095 73.0908C12.3144 70.7977 -6.31048 77.8201 6.15376 79.8265C40.3948 85.4158 68.6188 77.3902 59.7359 73.3774L59.7362 73.3774ZM23.9192 47.294C23.9192 47.294 8.303 51.0202 18.3318 52.31C22.6298 52.8832 31.0826 52.74 38.9624 52.1667C45.4094 51.5935 51.8566 50.447 51.8566 50.447C51.8566 50.447 49.5643 51.4501 47.9882 52.4534C32.0856 56.6095 1.56941 54.7464 10.3087 50.447C17.7587 46.864 23.9191 47.294 23.9191 47.294L23.9192 47.294ZM51.8566 62.9153C67.9026 54.603 60.4527 46.5774 55.295 47.5807C54.0056 47.8673 53.4325 48.154 53.4325 48.154C53.4325 48.154 53.8623 47.294 54.8652 47.0074C65.0373 43.4245 73.0603 57.756 51.5701 63.3453C51.5701 63.3453 51.7133 63.202 51.8566 62.9153L51.8566 62.9153ZM25.4952 85.5592C40.9682 86.5624 64.6074 84.9859 65.1804 77.6769C65.1804 77.6769 64.0344 80.5432 52.4297 82.6928C39.249 85.1293 22.9165 84.8426 13.3174 83.2661C13.3174 83.2661 15.3231 84.9859 25.4952 85.5591L25.4952 85.5592Z" fill="#2C5FA2"/>
<path d="M42.1144 6.10352e-05C42.1144 6.10352e-05 50.997 9.0289 33.6615 22.6439C19.7645 33.6791 30.5096 39.9849 33.6615 47.1507C25.4952 39.8417 19.6212 33.3925 23.6327 27.3732C29.5068 18.4876 45.696 14.1883 42.1144 8.86819e-05V6.10352e-05ZM37.5298 41.1315C41.6845 45.861 36.3836 50.1605 36.3836 50.1605C36.3836 50.1605 46.9855 44.7145 42.1144 37.9786C37.673 31.5295 34.2346 28.3766 52.8594 17.6279C52.8594 17.6279 23.4895 24.937 37.5298 41.1316L37.5298 41.1315ZM26.928 118.092V104.047C26.928 100.464 24.9222 98.0277 19.9078 98.0277C17.0424 98.0277 14.6068 98.7442 12.4578 99.6041L13.1742 102.184C14.7501 101.61 16.7559 101.037 18.9049 101.037C21.627 101.037 22.9164 102.184 22.9164 104.477V106.34H21.4837C14.6068 106.34 11.4549 108.92 11.4549 113.076C11.4549 116.515 13.604 118.522 17.4722 118.522C19.9077 118.522 21.7703 117.375 23.4895 115.942L23.7761 118.092H26.928L26.928 118.092ZM22.9164 113.506C21.4838 114.795 19.9078 115.512 18.4751 115.512C16.6127 115.512 15.4665 114.366 15.4665 112.359C15.4665 110.353 16.6127 108.92 21.1972 108.92H22.9164V113.506H22.9164ZM40.3952 118.092H35.3807L29.3634 98.4576H33.6615L37.3865 110.496L38.2461 114.079C40.1086 108.92 41.5413 103.617 42.1144 98.4576H46.4124C45.2663 104.907 43.2606 111.929 40.3952 118.092H40.3952ZM63.6046 118.092V104.047C63.6046 100.464 61.5988 98.0277 56.5844 98.0277C53.719 98.0277 51.2835 98.7442 49.1344 99.6041L49.7075 102.184C51.4267 101.61 53.4325 101.037 55.5816 101.037C58.3037 101.037 59.593 102.184 59.593 104.477V106.34H58.1604C51.2835 106.34 48.1316 108.92 48.1316 113.076C48.1316 116.515 50.1374 118.522 54.0056 118.522C56.5844 118.522 58.4469 117.375 60.1662 115.942L60.4527 118.092H63.6046V118.092ZM59.593 113.506C58.1604 114.795 56.5844 115.512 55.1516 115.512C53.2893 115.512 52.1431 114.366 52.1431 112.359C52.1431 110.353 53.2892 108.92 57.8738 108.92H59.593V113.506H59.593ZM7.01358 121.388C5.86744 123.108 4.14818 124.398 1.99928 125.114L0.136719 122.821C1.56936 121.961 3.00212 120.671 3.57512 119.525C4.14819 118.522 4.29156 117.089 4.29156 113.792V91.4352H8.5896V113.506C8.5896 117.948 8.15978 119.668 7.01359 121.388L7.01358 121.388Z" fill="#2C5FA2"/>
</g>
<defs>
<clipPath id="clip0_1_302">
<rect width="67" height="127.069" fill="white" transform="translate(0.136719)"/>
</clipPath>
<clipPath id="clip1_1_302">
<rect width="67" height="127.069" fill="white" transform="translate(0.136719)"/>
</clipPath>
</defs>
</svg>
