<svg width="184" height="40" viewBox="0 0 184 40" fill="none" xmlns="http://www.w3.org/2000/svg">
<path d="M64.692 22.5433L63.5996 25.6382H63.5086C63.3266 24.9403 62.9928 23.8783 62.4466 22.604L56.5905 7.88788H50.8557V31.3426H54.6486V16.8692C54.6486 15.959 54.6486 14.9273 54.6182 13.6529C54.5879 13.0158 54.5272 12.5303 54.4969 12.1662H54.5879C54.7699 13.0764 54.9823 13.744 55.1341 14.1688L62.1735 31.2819H64.8437L71.8225 14.0171C71.9742 13.6226 72.1259 12.8337 72.2776 12.1662H72.3687C72.2776 13.8957 72.2169 15.4431 72.1866 16.3838V31.2516H76.2222V7.82719H70.6998L64.692 22.5433ZM80.0453 14.4418H83.9899V31.2516H80.0453V14.4418ZM82.048 7.34172C81.3804 7.34172 80.8343 7.58445 80.3791 8.00925C79.924 8.43404 79.6812 8.98021 79.6812 9.64774C79.6812 10.2849 79.924 10.8311 80.3791 11.2559C80.8343 11.6807 81.3804 11.8931 82.048 11.8931C82.7155 11.8931 83.292 11.6503 83.7168 11.2559C84.1719 10.8311 84.4147 10.2849 84.4147 9.64774C84.4147 9.01055 84.1719 8.46439 83.7168 8.00925C83.3223 7.58445 82.7458 7.34172 82.048 7.34172ZM97.9778 14.2901C97.2496 14.1384 96.491 14.0474 95.7628 14.0474C93.9726 14.0474 92.3341 14.4418 90.9687 15.2307C89.6033 16.0197 88.5109 17.112 87.8131 18.4774C87.0848 19.8731 86.7207 21.4813 86.7207 23.3322C86.7207 24.9403 87.0848 26.3664 87.7827 27.6711C88.4806 28.9455 89.4516 29.9772 90.7563 30.6751C92.0003 31.3729 93.4568 31.737 95.0953 31.737C96.9765 31.737 98.5847 31.3426 99.8591 30.6144L99.8894 30.584V26.9429L99.7377 27.0643C99.1612 27.4891 98.4937 27.8532 97.8261 28.0656C97.1282 28.3083 96.4911 28.4297 95.9449 28.4297C94.3671 28.4297 93.123 27.9746 92.2431 26.9733C91.3328 26.0023 90.8777 24.6672 90.8777 22.9984C90.8777 21.2689 91.3328 19.9035 92.2734 18.9022C93.214 17.9009 94.4581 17.3851 95.9752 17.3851C97.2496 17.3851 98.5543 17.8099 99.7377 18.6594L99.8894 18.7808V14.9273L99.8591 14.897C99.3433 14.6846 98.7667 14.4418 97.9778 14.2901ZM110.995 14.1688C110.024 14.1688 109.114 14.4722 108.325 15.1094C107.657 15.6555 107.202 16.4444 106.808 17.3851H106.777V14.4418H102.833V31.2516H106.777V22.6646C106.777 21.2082 107.081 19.9945 107.748 19.1146C108.416 18.2043 109.265 17.7492 110.297 17.7492C110.661 17.7492 111.025 17.8402 111.48 17.9009C111.905 18.0223 112.209 18.1436 112.421 18.2953L112.573 18.4167V14.4722L112.482 14.4418C112.209 14.2598 111.662 14.1688 110.995 14.1688ZM121.736 14.0777C118.975 14.0777 116.76 14.897 115.212 16.5051C113.635 18.1133 112.876 20.3283 112.876 23.1198C112.876 25.7292 113.665 27.8532 115.182 29.4007C116.699 30.9178 118.763 31.7067 121.342 31.7067C124.042 31.7067 126.196 30.8874 127.744 29.249C129.322 27.6105 130.08 25.4258 130.08 22.7253C130.08 20.0552 129.352 17.9312 127.865 16.3838C126.439 14.8363 124.346 14.0777 121.736 14.0777ZM124.892 27.0036C124.164 27.9442 123.011 28.3994 121.584 28.3994C120.158 28.3994 119.005 27.9442 118.186 26.9429C117.367 26.0023 116.972 24.6369 116.972 22.9074C116.972 21.1172 117.397 19.7518 118.186 18.7808C119.005 17.8099 120.128 17.3244 121.554 17.3244C122.95 17.3244 124.042 17.7795 124.831 18.7201C125.62 19.6607 126.045 21.0262 126.045 22.8164C125.984 24.6369 125.65 26.063 124.892 27.0036ZM138.88 21.4206C137.636 20.9048 136.847 20.5103 136.483 20.1766C136.179 19.8731 136.027 19.4483 136.027 18.9022C136.027 18.447 136.21 17.9919 136.665 17.6885C137.12 17.3851 137.636 17.2333 138.394 17.2333C139.062 17.2333 139.76 17.3547 140.427 17.5368C141.095 17.7188 141.702 17.9919 142.187 18.356L142.339 18.4774V14.7756L142.248 14.7453C141.793 14.5632 141.186 14.3812 140.458 14.2294C139.729 14.1081 139.062 14.0474 138.516 14.0474C136.634 14.0474 135.087 14.5025 133.873 15.5038C132.659 16.4444 132.083 17.7188 132.083 19.2056C132.083 19.9945 132.204 20.6924 132.477 21.2689C132.75 21.8454 133.145 22.3916 133.691 22.8467C134.237 23.2715 135.026 23.757 136.119 24.2121C137.029 24.6066 137.727 24.91 138.151 25.1527C138.576 25.3955 138.849 25.6685 139.062 25.8809C139.213 26.1237 139.304 26.4271 139.304 26.8216C139.304 27.9442 138.455 28.4904 136.725 28.4904C136.058 28.4904 135.36 28.369 134.541 28.0959C133.721 27.8229 132.963 27.4284 132.326 26.9733L132.174 26.8519V30.7054L132.265 30.7357C132.842 31.0088 133.539 31.1909 134.389 31.4033C135.239 31.555 135.997 31.6764 136.665 31.6764C138.698 31.6764 140.366 31.2212 141.55 30.2199C142.764 29.249 143.401 28.0049 143.401 26.3968C143.401 25.2741 143.097 24.2728 142.43 23.5142C141.55 22.786 140.458 22.0275 138.88 21.4206ZM153.808 14.0777C151.047 14.0777 148.832 14.897 147.285 16.5051C145.737 18.1133 144.948 20.3283 144.948 23.1198C144.948 25.7292 145.737 27.8532 147.254 29.4007C148.771 30.9178 150.835 31.7067 153.414 31.7067C156.114 31.7067 158.269 30.8874 159.816 29.249C161.394 27.6105 162.152 25.4258 162.152 22.7253C162.152 20.0552 161.424 17.9312 159.937 16.3838C158.511 14.8363 156.418 14.0777 153.808 14.0777ZM156.934 27.0036C156.205 27.9442 155.052 28.3994 153.626 28.3994C152.17 28.3994 151.047 27.9442 150.228 26.9429C149.409 26.0023 149.014 24.6369 149.014 22.9074C149.014 21.1172 149.439 19.7518 150.228 18.7808C151.047 17.8099 152.17 17.3244 153.596 17.3244C154.961 17.3244 156.084 17.7795 156.873 18.7201C157.662 19.6607 158.087 21.0262 158.087 22.8164C158.087 24.6369 157.692 26.063 156.934 27.0036ZM183.241 17.6885V14.4418H179.266V9.46569L179.144 9.49603L175.382 10.6187L175.291 10.649V14.4418H169.344V12.3179C169.344 11.3469 169.586 10.5884 170.011 10.1029C170.436 9.6174 171.073 9.37466 171.862 9.37466C172.408 9.37466 172.985 9.49603 173.622 9.76911L173.774 9.86014V6.43144L173.683 6.4011C173.137 6.21905 172.408 6.09768 171.468 6.09768C170.284 6.09768 169.253 6.37076 168.312 6.82589C167.371 7.34172 166.674 8.03959 166.158 8.98021C165.642 9.89048 165.369 10.9221 165.369 12.1055V14.4418H162.608V17.6581H165.369V31.2516H169.344V17.6885H175.291V26.3361C175.291 29.8861 176.96 31.6764 180.297 31.6764C180.844 31.6764 181.42 31.5853 181.966 31.4943C182.543 31.3729 182.968 31.2212 183.21 31.0998L183.241 31.0695V27.8229L183.089 27.9442C182.846 28.0959 182.634 28.2173 182.27 28.3083C181.966 28.3994 181.693 28.4297 181.481 28.4297C180.692 28.4297 180.146 28.2477 179.751 27.7925C179.387 27.3677 179.205 26.6698 179.205 25.6382V17.6885H183.241Z" fill="#2C5FA2"/>
<path d="M0 0H18.6V18.5999H0V0Z" fill="#2C5FA2"/>
<path d="M20.5408 0H39.1408V18.5999H20.5408V0Z" fill="#2C5FA2"/>
<path d="M0 20.5424H18.6V39.1424H0V20.5424Z" fill="#2C5FA2"/>
<path d="M20.5408 20.5424H39.1408V39.1424H20.5408V20.5424Z" fill="#2C5FA2"/>
</svg>
