<svg width="106" height="76" viewBox="0 0 106 76" fill="none" xmlns="http://www.w3.org/2000/svg">
<g clip-path="url(#clip0_1_284)">
<path d="M52.0405 69.6204C51.6921 69.6194 51.3501 69.5274 51.0484 69.3537L47.8988 67.4862C47.4264 67.2246 47.6574 67.1305 47.8148 67.0781C48.31 66.9217 48.7842 66.7056 49.2269 66.4347C49.263 66.4146 49.3036 66.404 49.345 66.404C49.3864 66.404 49.427 66.4146 49.4631 66.4347L51.8935 67.8733C51.939 67.8967 51.9894 67.9089 52.0405 67.9089C52.0917 67.9089 52.1421 67.8967 52.1875 67.8733L61.6677 62.4173C61.7124 62.3909 61.7495 62.3534 61.7753 62.3085C61.801 62.2635 61.8146 62.2127 61.8147 62.1609V51.2646C61.815 51.212 61.8016 51.1603 61.7759 51.1145C61.7501 51.0686 61.7128 51.0302 61.6677 51.003L52.1927 45.5575C52.1481 45.5318 52.0974 45.5182 52.0458 45.5182C51.9942 45.5182 51.9435 45.5318 51.8988 45.5575L42.4238 51.0083C42.3785 51.0343 42.3406 51.0716 42.314 51.1165C42.2873 51.1614 42.2727 51.2124 42.2716 51.2646V62.1662C42.2721 62.2171 42.2859 62.2671 42.3116 62.3112C42.3374 62.3552 42.3743 62.3918 42.4186 62.4173L45.017 63.9133C46.429 64.6143 47.2899 63.7878 47.2899 62.9561V52.1957C47.2899 52.1236 47.3187 52.0544 47.3699 52.0034C47.4211 51.9524 47.4905 51.9237 47.5629 51.9237H48.765C48.8374 51.9237 48.9068 51.9524 48.958 52.0034C49.0092 52.0544 49.0379 52.1236 49.0379 52.1957V62.9613C49.0379 64.834 47.9881 65.9116 46.2296 65.9116C45.4602 65.9246 44.7029 65.7196 44.0459 65.3205L41.5577 63.8924C41.2555 63.7161 41.0048 63.4639 40.8308 63.1611C40.6567 62.8582 40.5653 62.5152 40.5656 62.1662V51.2646C40.5651 50.9162 40.6565 50.5739 40.8307 50.2719C41.0048 49.9698 41.2555 49.7187 41.5577 49.5436L51.0694 44.0875C51.3758 43.9227 51.7186 43.8364 52.0668 43.8364C52.415 43.8364 52.7577 43.9227 53.0641 44.0875L62.5443 49.5436C62.8423 49.7217 63.0885 49.974 63.2588 50.2758C63.4291 50.5776 63.5175 50.9184 63.5154 51.2646V62.1662C63.5148 62.5143 63.423 62.8562 63.249 63.1581C63.0749 63.46 62.8248 63.7113 62.5233 63.8872L53.0431 69.3432C52.7399 69.5178 52.396 69.6098 52.0458 69.61" fill="#689F63"/>
<path d="M54.9696 62.1034C50.8227 62.1034 49.9513 60.2045 49.9513 58.6142C49.9513 58.5421 49.9801 58.4729 50.0313 58.4219C50.0824 58.3709 50.1519 58.3422 50.2243 58.3422H51.4474C51.513 58.3414 51.5768 58.3643 51.6269 58.4066C51.6771 58.4488 51.7102 58.5077 51.7203 58.5724C51.904 59.8174 52.4552 60.4451 54.9644 60.4451C56.9643 60.4451 57.8147 59.9952 57.8147 58.9386C57.8147 58.3318 57.5733 57.8924 54.4709 57.5785C51.8725 57.3222 50.2715 56.752 50.2715 54.6857C50.2715 52.7816 51.883 51.6464 54.5864 51.6464C57.6205 51.6464 59.1271 52.6927 59.3108 54.9525C59.3136 54.9905 59.3086 55.0287 59.2959 55.0647C59.2833 55.1007 59.2633 55.1338 59.2373 55.1617C59.2116 55.189 59.1807 55.2109 59.1465 55.2261C59.1123 55.2414 59.0753 55.2497 59.0378 55.2507H57.8042C57.7417 55.2509 57.681 55.2297 57.6323 55.1906C57.5836 55.1516 57.5497 55.0971 57.5365 55.0362C57.2373 53.7284 56.5234 53.3099 54.5759 53.3099C52.3975 53.3099 52.1403 54.0684 52.1403 54.6334C52.1403 55.3239 52.4395 55.5227 55.3843 55.9098C58.3292 56.2969 59.6835 56.8409 59.6835 58.881C59.6835 60.9211 57.9617 62.1191 54.9591 62.1191L54.9696 62.1034ZM66.5075 50.5584H66.8173C66.8572 50.563 66.8978 50.5588 66.936 50.5463C66.9742 50.5338 67.0093 50.5131 67.0387 50.4857C67.0682 50.4584 67.0913 50.425 67.1065 50.3879C67.1218 50.3507 67.1287 50.3107 67.127 50.2707C67.127 49.9934 66.9327 49.9934 66.8277 49.9934H66.5023L66.5075 50.5584ZM66.1191 49.6639H66.8173C67.0587 49.6639 67.5364 49.6639 67.5364 50.187C67.5517 50.3072 67.5198 50.4287 67.4475 50.5262C67.3751 50.6236 67.2678 50.6895 67.148 50.7101C67.4314 50.7101 67.4472 50.9141 67.4892 51.1756C67.5005 51.3539 67.5358 51.5299 67.5941 51.6988H67.1585C67.1585 51.6046 67.0797 51.0815 67.0797 51.0553C67.0535 50.9402 67.0115 50.8827 66.8645 50.8827H66.5075V51.6988H66.1086L66.1191 49.6639ZM65.274 50.6787C65.2698 50.9812 65.3559 51.2781 65.5213 51.5318C65.6867 51.7855 65.924 51.9845 66.2031 52.1037C66.4822 52.2228 66.7905 52.2566 67.0889 52.2009C67.3873 52.1452 67.6624 52.0025 67.8792 51.7907C68.0961 51.579 68.245 51.3079 68.3071 51.0117C68.3691 50.7156 68.3415 50.4077 68.2277 50.1272C68.114 49.8467 67.9192 49.6062 67.6681 49.4362C67.417 49.2661 67.1208 49.1742 66.8173 49.1721C66.4125 49.1735 66.0248 49.3343 65.7386 49.6195C65.4525 49.9047 65.2911 50.2911 65.2897 50.6944L65.274 50.6787ZM68.6493 50.6944C68.6461 51.0535 68.5365 51.4037 68.3341 51.7009C68.1318 51.9981 67.8457 52.229 67.5119 52.3645C67.1782 52.5 66.8117 52.5342 66.4585 52.4626C66.1053 52.391 65.7813 52.2169 65.5272 51.9622C65.2731 51.7075 65.1002 51.3837 65.0304 51.0313C64.9606 50.679 64.9969 50.3139 65.1349 49.9821C65.2728 49.6503 65.5061 49.3665 65.8055 49.1665C66.1048 48.9666 66.4569 48.8593 66.8173 48.8583C67.3013 48.8597 67.7651 49.0519 68.1074 49.393C68.4497 49.7341 68.6426 50.1963 68.644 50.6787" fill="#689F63"/>
<path d="M22.6813 26.9557C22.681 26.7434 22.6245 26.5349 22.5176 26.3513C22.4107 26.1676 22.2572 26.0152 22.0724 25.9095L12.02 20.1553C11.8521 20.0585 11.6627 20.0046 11.4688 19.9984H11.3638C11.1683 20.0046 10.9772 20.0585 10.8074 20.1553L0.75505 25.9095C0.570975 26.016 0.417979 26.1686 0.311186 26.3521C0.204393 26.5356 0.147501 26.7436 0.146133 26.9557L0.151383 42.4816C0.150201 42.5874 0.17729 42.6916 0.229872 42.7835C0.282453 42.8755 0.358632 42.9518 0.450592 43.0047C0.541211 43.0608 0.645756 43.0905 0.752425 43.0905C0.859094 43.0905 0.963639 43.0608 1.05426 43.0047L7.02794 39.594C7.21202 39.4875 7.36501 39.335 7.4718 39.1515C7.5786 38.968 7.63549 38.7599 7.63686 38.5478V31.2923C7.63717 31.08 7.69362 30.8715 7.80052 30.6878C7.90742 30.5042 8.06099 30.3518 8.24577 30.2461L10.8127 28.7709C10.9977 28.6641 11.2078 28.6081 11.4216 28.6088C11.6337 28.6081 11.8422 28.6641 12.0253 28.7709L14.5659 30.2304C14.7507 30.3361 14.9043 30.4885 15.0112 30.6721C15.1181 30.8558 15.1745 31.0643 15.1748 31.2766V38.5426C15.1767 38.7546 15.2338 38.9625 15.3406 39.1459C15.4473 39.3293 15.6 39.4819 15.7837 39.5888L21.7522 42.9995C21.8442 43.0543 21.9494 43.0833 22.0566 43.0833C22.1639 43.0833 22.2691 43.0543 22.3611 42.9995C22.4523 42.9458 22.5279 42.8693 22.5804 42.7775C22.6329 42.6858 22.6604 42.582 22.6603 42.4764L22.6813 26.9557ZM70.1138 35.0482C70.1141 35.1014 70.1002 35.1537 70.0734 35.1997C70.0467 35.2456 70.008 35.2837 69.9616 35.3098L66.5075 37.2924C66.4613 37.319 66.4088 37.333 66.3553 37.333C66.3019 37.333 66.2494 37.319 66.2031 37.2924L62.7491 35.3098C62.7065 35.2811 62.672 35.242 62.6491 35.1961C62.6261 35.1503 62.6153 35.0994 62.6178 35.0482V31.0674C62.6175 31.0148 62.6309 30.9631 62.6566 30.9172C62.6824 30.8714 62.7197 30.833 62.7648 30.8058L66.2136 28.818C66.2599 28.7914 66.3124 28.7774 66.3658 28.7774C66.4193 28.7774 66.4718 28.7914 66.518 28.818L69.9721 30.8058C70.0182 30.8324 70.0565 30.8705 70.0832 30.9164C70.1099 30.9622 70.1241 31.0143 70.1243 31.0674L70.1138 35.0482ZM71.0482 5.62863C70.9561 5.57803 70.8524 5.55206 70.7472 5.55325C70.6421 5.55444 70.539 5.58275 70.4481 5.63543C70.3572 5.6881 70.2815 5.76334 70.2284 5.85383C70.1754 5.94431 70.1467 6.04695 70.1453 6.15174V21.5207C70.1449 21.5946 70.1251 21.6671 70.0879 21.7311C70.0506 21.795 69.9972 21.8481 69.933 21.8852C69.8688 21.9222 69.796 21.9418 69.7218 21.9421C69.6476 21.9424 69.5746 21.9233 69.5101 21.8868L66.9905 20.4431C66.8061 20.337 66.597 20.2812 66.3842 20.2812C66.1713 20.2812 65.9622 20.337 65.7779 20.4431L55.7203 26.2234C55.5355 26.3291 55.3819 26.4815 55.275 26.6651C55.1681 26.8488 55.1117 27.0573 55.1114 27.2696V38.8408C55.1122 39.053 55.1689 39.2613 55.2757 39.4448C55.3826 39.6284 55.5358 39.7809 55.7203 39.887L65.7674 45.6726C65.9519 45.7781 66.1609 45.8336 66.3737 45.8336C66.5864 45.8336 66.7955 45.7781 66.98 45.6726L77.0376 39.8817C77.222 39.7756 77.3753 39.6232 77.4822 39.4396C77.589 39.256 77.6457 39.0477 77.6465 38.8355V10.0018C77.6441 9.78805 77.585 9.57872 77.4753 9.39501C77.3657 9.21129 77.2092 9.05971 77.0219 8.9556L71.0482 5.62863ZM104.533 30.9732C104.717 30.8669 104.87 30.7142 104.976 30.5306C105.082 30.347 105.137 30.1388 105.137 29.927V27.1127C105.137 26.9009 105.082 26.6927 104.976 26.5091C104.87 26.3255 104.717 26.1728 104.533 26.0665L94.5597 20.3123C94.3747 20.2052 94.1647 20.1489 93.9508 20.1489C93.7369 20.1489 93.5268 20.2052 93.3419 20.3123L83.2685 26.0717C83.0837 26.1774 82.9301 26.3298 82.8232 26.5134C82.7163 26.6971 82.6599 26.9056 82.6596 27.1179V38.6838C82.6609 38.8966 82.7184 39.1052 82.8262 39.2888C82.934 39.4724 83.0883 39.6246 83.2737 39.73L93.2474 45.4058C93.4292 45.508 93.6344 45.5617 93.8432 45.5617C94.0519 45.5617 94.2571 45.508 94.439 45.4058L100.481 42.0579C100.574 42.0054 100.651 41.9293 100.704 41.8374C100.758 41.7455 100.786 41.6411 100.786 41.5348C100.786 41.4284 100.758 41.324 100.704 41.2321C100.651 41.1402 100.574 41.0642 100.481 41.0117L90.3865 35.2313C90.2939 35.1787 90.217 35.1025 90.1635 35.0107C90.1101 34.9188 90.082 34.8144 90.0821 34.7082V31.0831C90.082 30.9769 90.1101 30.8725 90.1635 30.7806C90.217 30.6887 90.2939 30.6126 90.3865 30.56L93.5361 28.75C93.6263 28.7046 93.7265 28.6828 93.8275 28.6864C93.9285 28.6901 94.0269 28.7192 94.1135 28.7709L97.2631 30.5809C97.3556 30.6335 97.4326 30.7097 97.4861 30.8015C97.5395 30.8934 97.5676 30.9978 97.5675 31.104V33.9549C97.5663 34.0619 97.5938 34.1672 97.647 34.2601C97.7002 34.3529 97.7773 34.43 97.8704 34.4833C97.9634 34.5366 98.069 34.5642 98.1764 34.5632C98.2837 34.5623 98.3888 34.5329 98.4809 34.478L104.533 30.9732Z" fill="#2C5FA2"/>
<path d="M93.7828 30.4239C93.8179 30.4037 93.8577 30.3931 93.8983 30.3931C93.9388 30.3931 93.9787 30.4037 94.0138 30.4239L95.9455 31.5329C95.9805 31.5531 96.0097 31.5821 96.0299 31.6169C96.0502 31.6518 96.0609 31.6914 96.061 31.7317V33.9549C96.0609 33.9952 96.0502 34.0348 96.0299 34.0697C96.0097 34.1046 95.9805 34.1335 95.9455 34.1537L94.0138 35.2627C93.9787 35.2829 93.9388 35.2935 93.8983 35.2935C93.8577 35.2935 93.8179 35.2829 93.7828 35.2627L91.8563 34.1537C91.8203 34.1342 91.7901 34.1055 91.7689 34.0706C91.7477 34.0357 91.7362 33.9958 91.7356 33.9549V31.7317C91.7357 31.6914 91.7464 31.6518 91.7667 31.6169C91.7869 31.5821 91.816 31.5531 91.8511 31.5329L93.7828 30.4239Z" fill="#689F63"/>
</g>
<g clip-path="url(#clip1_1_284)">
<path d="M52.0405 69.6204C51.6921 69.6194 51.3501 69.5274 51.0484 69.3537L47.8988 67.4862C47.4264 67.2246 47.6574 67.1305 47.8148 67.0781C48.31 66.9217 48.7842 66.7056 49.2269 66.4347C49.263 66.4146 49.3036 66.404 49.345 66.404C49.3864 66.404 49.427 66.4146 49.4631 66.4347L51.8935 67.8733C51.939 67.8967 51.9894 67.9089 52.0405 67.9089C52.0917 67.9089 52.1421 67.8967 52.1875 67.8733L61.6677 62.4173C61.7124 62.3909 61.7495 62.3534 61.7753 62.3085C61.801 62.2635 61.8146 62.2127 61.8147 62.1609V51.2646C61.815 51.212 61.8016 51.1603 61.7759 51.1145C61.7501 51.0686 61.7128 51.0302 61.6677 51.003L52.1927 45.5575C52.1481 45.5318 52.0974 45.5182 52.0458 45.5182C51.9942 45.5182 51.9435 45.5318 51.8988 45.5575L42.4238 51.0083C42.3785 51.0343 42.3406 51.0716 42.314 51.1165C42.2873 51.1614 42.2727 51.2124 42.2716 51.2646V62.1662C42.2721 62.2171 42.2859 62.2671 42.3116 62.3112C42.3374 62.3552 42.3743 62.3918 42.4186 62.4173L45.017 63.9133C46.429 64.6143 47.2899 63.7878 47.2899 62.9561V52.1957C47.2899 52.1236 47.3187 52.0544 47.3699 52.0034C47.4211 51.9524 47.4905 51.9237 47.5629 51.9237H48.765C48.8374 51.9237 48.9068 51.9524 48.958 52.0034C49.0092 52.0544 49.0379 52.1236 49.0379 52.1957V62.9613C49.0379 64.834 47.9881 65.9116 46.2296 65.9116C45.4602 65.9246 44.7029 65.7196 44.0459 65.3205L41.5577 63.8924C41.2555 63.7161 41.0048 63.4639 40.8308 63.1611C40.6567 62.8582 40.5653 62.5152 40.5656 62.1662V51.2646C40.5651 50.9162 40.6565 50.5739 40.8307 50.2719C41.0048 49.9698 41.2555 49.7187 41.5577 49.5436L51.0694 44.0875C51.3758 43.9227 51.7186 43.8364 52.0668 43.8364C52.415 43.8364 52.7577 43.9227 53.0641 44.0875L62.5443 49.5436C62.8423 49.7217 63.0885 49.974 63.2588 50.2758C63.4291 50.5776 63.5175 50.9184 63.5154 51.2646V62.1662C63.5148 62.5143 63.423 62.8562 63.249 63.1581C63.0749 63.46 62.8248 63.7113 62.5233 63.8872L53.0431 69.3432C52.7399 69.5178 52.396 69.6098 52.0458 69.61" fill="#2C5FA2"/>
<path d="M54.9696 62.1034C50.8227 62.1034 49.9513 60.2045 49.9513 58.6142C49.9513 58.5421 49.9801 58.4729 50.0313 58.4219C50.0824 58.3709 50.1519 58.3422 50.2243 58.3422H51.4474C51.513 58.3414 51.5768 58.3643 51.6269 58.4066C51.6771 58.4488 51.7102 58.5077 51.7203 58.5724C51.904 59.8174 52.4552 60.4451 54.9644 60.4451C56.9643 60.4451 57.8147 59.9952 57.8147 58.9386C57.8147 58.3318 57.5733 57.8924 54.4709 57.5785C51.8725 57.3222 50.2715 56.752 50.2715 54.6857C50.2715 52.7816 51.883 51.6464 54.5864 51.6464C57.6205 51.6464 59.1271 52.6927 59.3108 54.9525C59.3136 54.9905 59.3086 55.0287 59.2959 55.0647C59.2833 55.1007 59.2633 55.1338 59.2373 55.1617C59.2116 55.189 59.1807 55.2109 59.1465 55.2261C59.1123 55.2414 59.0753 55.2497 59.0378 55.2507H57.8042C57.7417 55.2509 57.681 55.2297 57.6323 55.1906C57.5836 55.1516 57.5497 55.0971 57.5365 55.0362C57.2373 53.7284 56.5234 53.3099 54.5759 53.3099C52.3975 53.3099 52.1403 54.0684 52.1403 54.6334C52.1403 55.3239 52.4395 55.5227 55.3843 55.9098C58.3292 56.2969 59.6835 56.8409 59.6835 58.881C59.6835 60.9211 57.9617 62.1191 54.9591 62.1191L54.9696 62.1034ZM66.5075 50.5584H66.8173C66.8572 50.563 66.8978 50.5588 66.936 50.5463C66.9742 50.5338 67.0093 50.5131 67.0387 50.4857C67.0682 50.4584 67.0913 50.425 67.1065 50.3879C67.1218 50.3507 67.1287 50.3107 67.127 50.2707C67.127 49.9934 66.9327 49.9934 66.8277 49.9934H66.5023L66.5075 50.5584ZM66.1191 49.6639H66.8173C67.0587 49.6639 67.5364 49.6639 67.5364 50.187C67.5517 50.3072 67.5198 50.4287 67.4475 50.5262C67.3751 50.6236 67.2678 50.6895 67.148 50.7101C67.4314 50.7101 67.4472 50.9141 67.4892 51.1756C67.5005 51.3539 67.5358 51.5299 67.5941 51.6988H67.1585C67.1585 51.6046 67.0797 51.0815 67.0797 51.0553C67.0535 50.9402 67.0115 50.8827 66.8645 50.8827H66.5075V51.6988H66.1086L66.1191 49.6639ZM65.274 50.6787C65.2698 50.9812 65.3559 51.2781 65.5213 51.5318C65.6867 51.7855 65.924 51.9845 66.2031 52.1037C66.4822 52.2228 66.7905 52.2566 67.0889 52.2009C67.3873 52.1452 67.6624 52.0025 67.8792 51.7907C68.0961 51.579 68.245 51.3079 68.3071 51.0117C68.3691 50.7156 68.3415 50.4077 68.2277 50.1272C68.114 49.8467 67.9192 49.6062 67.6681 49.4362C67.417 49.2661 67.1208 49.1742 66.8173 49.1721C66.4125 49.1735 66.0248 49.3343 65.7386 49.6195C65.4525 49.9047 65.2911 50.2911 65.2897 50.6944L65.274 50.6787ZM68.6493 50.6944C68.6461 51.0535 68.5365 51.4037 68.3341 51.7009C68.1318 51.9981 67.8457 52.229 67.5119 52.3645C67.1782 52.5 66.8117 52.5342 66.4585 52.4626C66.1053 52.391 65.7813 52.2169 65.5272 51.9622C65.2731 51.7075 65.1002 51.3837 65.0304 51.0313C64.9606 50.679 64.9969 50.3139 65.1349 49.9821C65.2728 49.6503 65.5061 49.3665 65.8055 49.1665C66.1048 48.9666 66.4569 48.8593 66.8173 48.8583C67.3013 48.8597 67.7651 49.0519 68.1074 49.393C68.4497 49.7341 68.6426 50.1963 68.644 50.6787" fill="#2C5FA2"/>
<path d="M22.6813 26.9557C22.681 26.7434 22.6245 26.5349 22.5176 26.3513C22.4107 26.1676 22.2572 26.0152 22.0724 25.9095L12.02 20.1553C11.8521 20.0585 11.6627 20.0046 11.4688 19.9984H11.3638C11.1683 20.0046 10.9772 20.0585 10.8074 20.1553L0.75505 25.9095C0.570975 26.016 0.417979 26.1686 0.311186 26.3521C0.204393 26.5356 0.147501 26.7436 0.146133 26.9557L0.151383 42.4816C0.150201 42.5874 0.17729 42.6916 0.229872 42.7835C0.282453 42.8755 0.358632 42.9518 0.450592 43.0047C0.541211 43.0608 0.645756 43.0905 0.752425 43.0905C0.859094 43.0905 0.963639 43.0608 1.05426 43.0047L7.02794 39.594C7.21202 39.4875 7.36501 39.335 7.4718 39.1515C7.5786 38.968 7.63549 38.7599 7.63686 38.5478V31.2923C7.63717 31.08 7.69362 30.8715 7.80052 30.6878C7.90742 30.5042 8.06099 30.3518 8.24577 30.2461L10.8127 28.7709C10.9977 28.6641 11.2078 28.6081 11.4216 28.6088C11.6337 28.6081 11.8422 28.6641 12.0253 28.7709L14.5659 30.2304C14.7507 30.3361 14.9043 30.4885 15.0112 30.6721C15.1181 30.8558 15.1745 31.0643 15.1748 31.2766V38.5426C15.1767 38.7546 15.2338 38.9625 15.3406 39.1459C15.4473 39.3293 15.6 39.4819 15.7837 39.5888L21.7522 42.9995C21.8442 43.0543 21.9494 43.0833 22.0566 43.0833C22.1639 43.0833 22.2691 43.0543 22.3611 42.9995C22.4523 42.9458 22.5279 42.8693 22.5804 42.7775C22.6329 42.6858 22.6604 42.582 22.6603 42.4764L22.6813 26.9557ZM70.1138 35.0482C70.1141 35.1014 70.1002 35.1537 70.0734 35.1997C70.0467 35.2456 70.008 35.2837 69.9616 35.3098L66.5075 37.2924C66.4613 37.319 66.4088 37.333 66.3553 37.333C66.3019 37.333 66.2494 37.319 66.2031 37.2924L62.7491 35.3098C62.7065 35.2811 62.672 35.242 62.6491 35.1961C62.6261 35.1503 62.6153 35.0994 62.6178 35.0482V31.0674C62.6175 31.0148 62.6309 30.9631 62.6566 30.9172C62.6824 30.8714 62.7197 30.833 62.7648 30.8058L66.2136 28.818C66.2599 28.7914 66.3124 28.7774 66.3658 28.7774C66.4193 28.7774 66.4718 28.7914 66.518 28.818L69.9721 30.8058C70.0182 30.8324 70.0565 30.8705 70.0832 30.9164C70.1099 30.9622 70.1241 31.0143 70.1243 31.0674L70.1138 35.0482ZM71.0482 5.62863C70.9561 5.57803 70.8524 5.55206 70.7472 5.55325C70.6421 5.55444 70.539 5.58275 70.4481 5.63543C70.3572 5.6881 70.2815 5.76334 70.2284 5.85383C70.1754 5.94431 70.1467 6.04695 70.1453 6.15174V21.5207C70.1449 21.5946 70.1251 21.6671 70.0879 21.7311C70.0506 21.795 69.9972 21.8481 69.933 21.8852C69.8688 21.9222 69.796 21.9418 69.7218 21.9421C69.6476 21.9424 69.5746 21.9233 69.5101 21.8868L66.9905 20.4431C66.8061 20.337 66.597 20.2812 66.3842 20.2812C66.1713 20.2812 65.9622 20.337 65.7779 20.4431L55.7203 26.2234C55.5355 26.3291 55.3819 26.4815 55.275 26.6651C55.1681 26.8488 55.1117 27.0573 55.1114 27.2696V38.8408C55.1122 39.053 55.1689 39.2613 55.2757 39.4448C55.3826 39.6284 55.5358 39.7809 55.7203 39.887L65.7674 45.6726C65.9519 45.7781 66.1609 45.8336 66.3737 45.8336C66.5864 45.8336 66.7955 45.7781 66.98 45.6726L77.0376 39.8817C77.222 39.7756 77.3753 39.6232 77.4822 39.4396C77.589 39.256 77.6457 39.0477 77.6465 38.8355V10.0018C77.6441 9.78805 77.585 9.57872 77.4753 9.39501C77.3657 9.21129 77.2092 9.05971 77.0219 8.9556L71.0482 5.62863ZM104.533 30.9732C104.717 30.8669 104.87 30.7142 104.976 30.5306C105.082 30.347 105.137 30.1388 105.137 29.927V27.1127C105.137 26.9009 105.082 26.6927 104.976 26.5091C104.87 26.3255 104.717 26.1728 104.533 26.0665L94.5597 20.3123C94.3747 20.2052 94.1647 20.1489 93.9508 20.1489C93.7369 20.1489 93.5268 20.2052 93.3419 20.3123L83.2685 26.0717C83.0837 26.1774 82.9301 26.3298 82.8232 26.5134C82.7163 26.6971 82.6599 26.9056 82.6596 27.1179V38.6838C82.6609 38.8966 82.7184 39.1052 82.8262 39.2888C82.934 39.4724 83.0883 39.6246 83.2737 39.73L93.2474 45.4058C93.4292 45.508 93.6344 45.5617 93.8432 45.5617C94.0519 45.5617 94.2571 45.508 94.439 45.4058L100.481 42.0579C100.574 42.0054 100.651 41.9293 100.704 41.8374C100.758 41.7455 100.786 41.6411 100.786 41.5348C100.786 41.4284 100.758 41.324 100.704 41.2321C100.651 41.1402 100.574 41.0642 100.481 41.0117L90.3865 35.2313C90.2939 35.1787 90.217 35.1025 90.1635 35.0107C90.1101 34.9188 90.082 34.8144 90.0821 34.7082V31.0831C90.082 30.9769 90.1101 30.8725 90.1635 30.7806C90.217 30.6887 90.2939 30.6126 90.3865 30.56L93.5361 28.75C93.6263 28.7046 93.7265 28.6828 93.8275 28.6864C93.9285 28.6901 94.0269 28.7192 94.1135 28.7709L97.2631 30.5809C97.3556 30.6335 97.4326 30.7097 97.4861 30.8015C97.5395 30.8934 97.5676 30.9978 97.5675 31.104V33.9549C97.5663 34.0619 97.5938 34.1672 97.647 34.2601C97.7002 34.3529 97.7773 34.43 97.8704 34.4833C97.9634 34.5366 98.069 34.5642 98.1764 34.5632C98.2837 34.5623 98.3888 34.5329 98.4809 34.478L104.533 30.9732Z" fill="#2C5FA2"/>
<path d="M93.7828 30.4239C93.8179 30.4037 93.8577 30.3931 93.8983 30.3931C93.9388 30.3931 93.9787 30.4037 94.0138 30.4239L95.9455 31.5329C95.9805 31.5531 96.0097 31.5821 96.0299 31.6169C96.0502 31.6518 96.0609 31.6914 96.061 31.7317V33.9549C96.0609 33.9952 96.0502 34.0348 96.0299 34.0697C96.0097 34.1046 95.9805 34.1335 95.9455 34.1537L94.0138 35.2627C93.9787 35.2829 93.9388 35.2935 93.8983 35.2935C93.8577 35.2935 93.8179 35.2829 93.7828 35.2627L91.8563 34.1537C91.8203 34.1342 91.7901 34.1055 91.7689 34.0706C91.7477 34.0357 91.7362 33.9958 91.7356 33.9549V31.7317C91.7357 31.6914 91.7464 31.6518 91.7667 31.6169C91.7869 31.5821 91.816 31.5531 91.8511 31.5329L93.7828 30.4239Z" fill="#2C5FA2"/>
<path d="M26.876 39L27.0583 32L26.876 25L33.0293 21.658L39.0003 18L44.9713 21.658L51.1247 25L50.9423 32L51.1247 39L44.9713 42.3421L39.0003 46L33.0293 42.3421L26.876 39Z" fill="#5D9ED5"/>
</g>
<defs>
<clipPath id="clip0_1_284">
<rect width="104.986" height="75.1602" fill="white" transform="translate(0.151367)"/>
</clipPath>
<clipPath id="clip1_1_284">
<rect width="104.986" height="75.1602" fill="white" transform="translate(0.151367)"/>
</clipPath>
</defs>
</svg>
