<svg width="101" height="34" viewBox="0 0 101 34" fill="none" xmlns="http://www.w3.org/2000/svg">
<path d="M12.3381 7.93726C13.9752 7.93726 15.5213 8.26297 16.9754 8.91406C18.4292 9.5653 19.7073 10.4421 20.8104 11.5441C21.9132 12.6463 22.7906 13.9323 23.4423 15.4015C24.094 16.8717 24.4198 18.4409 24.4198 20.1105C24.4198 21.781 24.1018 23.3419 23.4674 24.7946C22.832 26.2474 21.9712 27.5248 20.8855 28.627C19.799 29.729 18.5207 30.5979 17.0504 31.232C15.5794 31.8669 13.9924 32.1839 12.2879 32.1839C10.6163 32.1839 9.04584 31.8834 7.57559 31.2822C6.10453 30.6809 4.81843 29.8381 3.7155 28.7524C2.61273 27.6673 1.74325 26.39 1.10869 24.9198C0.473476 23.4506 0.156113 21.8474 0.156113 20.1105C0.156113 18.4409 0.464746 16.8793 1.08347 15.4265C1.70154 13.9738 2.56229 12.7049 3.66538 11.6194C4.76815 10.5343 6.06298 9.66547 7.55053 9.01438C9.03728 8.36314 10.6336 8.00447 12.3381 7.93726ZM12.288 12.8967C11.3183 12.8967 10.391 13.0807 9.5058 13.4478C8.62 13.8156 7.85157 14.3246 7.1997 14.9758C6.548 15.6269 6.02952 16.387 5.64571 17.2551C5.26109 18.124 5.06918 19.0759 5.06918 20.1105C5.06918 21.0795 5.26125 22.0064 5.64571 22.891C6.02952 23.7761 6.548 24.5528 7.1997 25.2205C7.85141 25.8889 8.61984 26.4149 9.5058 26.7985C10.391 27.1828 11.3183 27.3746 12.288 27.3746C13.2569 27.3746 14.1844 27.1826 15.0704 26.7985C15.9556 26.4149 16.7246 25.8889 17.3765 25.2205C18.0282 24.5528 18.5459 23.7763 18.9305 22.891C19.3143 22.0064 19.5069 21.0795 19.5069 20.1105C19.4066 18.1404 18.7048 16.4786 17.4016 15.1259C16.098 13.7733 14.41 13.0304 12.3383 12.8965H12.288V12.8967Z" fill="#2C5FA2"/>
<path d="M47.2294 0.222438C47.7973 0.18948 48.3321 0.414855 48.8336 0.898728C49.335 1.38325 49.5854 1.90929 49.5854 2.47685V20.0606C49.5854 21.6974 49.2511 23.2503 48.5829 24.7195C47.9139 26.1897 47.0116 27.4749 45.8758 28.5769C44.7393 29.6791 43.4444 30.5559 41.9907 31.207C40.5369 31.8582 39.0078 32.1839 37.4037 32.1839C35.7658 32.1839 34.2118 31.8669 32.7414 31.232C31.2703 30.5979 29.9842 29.729 28.8813 28.627C27.7785 27.525 26.9011 26.2396 26.2494 24.7696C25.5977 23.3004 25.272 21.7308 25.272 20.0606C25.272 18.2571 25.5641 16.6712 26.1492 15.3013C26.7335 13.9323 27.6109 12.6463 28.7811 11.4439V11.4942C30.0172 10.3256 31.3793 9.4401 32.8667 8.83893C34.3534 8.23777 35.8824 7.93726 37.4537 7.93726C38.3889 7.93726 39.5004 8.08752 40.7874 8.38818C42.0736 8.68868 43.352 9.27337 44.6226 10.1416V2.72727C44.6226 2.39381 44.689 2.07602 44.823 1.77536C44.9561 1.47485 45.1317 1.19923 45.3494 0.948813C45.5664 0.698233 45.8256 0.50646 46.1264 0.372688C46.4271 0.239724 46.7282 0.18948 47.0289 0.222438H47.2294ZM44.6226 20.0606C44.6226 19.1589 44.4298 18.2742 44.046 17.4053C43.6614 16.5373 43.135 15.7608 42.4668 15.076C41.7978 14.3918 41.0294 13.8484 40.1607 13.4478C39.2912 13.0471 38.3725 12.8466 37.4036 12.8466C36.4338 12.8466 35.5065 13.039 34.6212 13.4226C33.7354 13.8069 32.9669 14.3244 32.3151 14.9756C31.6635 15.6267 31.1449 16.3954 30.7611 17.28C30.3764 18.1653 30.1847 19.0922 30.1847 20.0604C30.1847 21.0623 30.3766 21.9977 30.7611 22.8658C31.1449 23.7346 31.6635 24.494 32.3151 25.1451C32.9668 25.7963 33.7352 26.3144 34.6212 26.698C35.5065 27.0823 36.4338 27.2741 37.4036 27.2741C38.3725 27.2741 39.2912 27.0822 40.1607 26.698C41.0294 26.3144 41.7978 25.7963 42.4668 25.1451C43.135 24.494 43.6614 23.7346 44.046 22.8658C44.4297 21.9979 44.6226 21.0624 44.6226 20.0606Z" fill="#2C5FA2"/>
<path d="M63.1709 7.93726C64.808 7.93726 66.3541 8.26297 67.8082 8.91406C69.262 9.5653 70.5401 10.4421 71.6432 11.5441C72.746 12.6463 73.6234 13.9323 74.2751 15.4015C74.9268 16.8717 75.2526 18.4409 75.2526 20.1105C75.2526 21.781 74.9346 23.3419 74.3002 24.7946C73.6648 26.2474 72.8041 27.5248 71.7183 28.627C70.6318 29.729 69.3535 30.5979 67.8832 31.232C66.4122 31.8669 64.8252 32.1839 63.1207 32.1839C61.4491 32.1839 59.8786 31.8834 58.4084 31.2822C56.9373 30.6809 55.6512 29.8381 54.5483 28.7524C53.4455 27.6673 52.576 26.39 51.9415 24.9198C51.3063 23.4506 50.9889 21.8474 50.9889 20.1105C50.9889 18.4409 51.2975 16.8793 51.9163 15.4265C52.5343 13.9738 53.3951 12.7049 54.4982 11.6194C55.6009 10.5343 56.8958 9.66547 58.3833 9.01438C59.8701 8.36314 61.4664 8.00447 63.1709 7.93726ZM63.1208 12.8967C62.1511 12.8967 61.2238 13.0807 60.3386 13.4478C59.4528 13.8156 58.6844 14.3246 58.0325 14.9758C57.3808 15.6269 56.8623 16.387 56.4785 17.2551C56.0939 18.124 55.902 19.0759 55.902 20.1105C55.902 21.0795 56.094 22.0064 56.4785 22.891C56.8623 23.7761 57.3808 24.5528 58.0325 25.2205C58.6842 25.8889 59.4526 26.4149 60.3386 26.7985C61.2238 27.1828 62.1511 27.3746 63.1208 27.3746C64.0897 27.3746 65.0172 27.1826 65.9032 26.7985C66.7884 26.4149 67.5574 25.8889 68.2093 25.2205C68.861 24.5528 69.3787 23.7763 69.7633 22.891C70.1471 22.0064 70.3397 21.0795 70.3397 20.1105C70.2394 18.1404 69.5376 16.4786 68.2344 15.1259C66.9308 13.7733 65.2428 13.0304 63.1711 12.8965H63.1208V12.8967Z" fill="#2C5FA2"/>
<path d="M88.6375 7.93726C90.2746 7.93726 91.8206 8.26297 93.2747 8.91406C94.7285 9.5653 96.0067 10.4421 97.1098 11.5441C98.2125 12.6463 99.0899 13.9323 99.7416 15.4015C100.393 16.8717 100.719 18.4409 100.719 20.1105C100.719 21.781 100.401 23.3419 99.7667 24.7946C99.1313 26.2474 98.2706 27.5248 97.1848 28.627C96.0983 29.729 94.82 30.5979 93.3497 31.232C91.8787 31.8669 90.2917 32.1839 88.5872 32.1839C86.9156 32.1839 85.3452 31.8834 83.8749 31.2822C82.4038 30.6809 81.1177 29.8381 80.0148 28.7524C78.912 27.6673 78.0426 26.39 77.408 24.9198C76.7728 23.4506 76.4554 21.8474 76.4554 20.1105C76.4554 18.4409 76.7641 16.8793 77.3828 15.4265C78.0009 13.9738 78.8616 12.7049 79.9647 11.6194C81.0675 10.5343 82.3623 9.66547 83.8498 9.01438C85.3366 8.36314 86.9329 8.00447 88.6375 7.93726ZM88.5872 12.8967C87.6175 12.8967 86.6901 13.0807 85.805 13.4478C84.9192 13.8156 84.1507 14.3246 83.4989 14.9758C82.8471 15.6269 82.3287 16.387 81.9449 17.2551C81.5602 18.124 81.3683 19.0759 81.3683 20.1105C81.3683 21.0795 81.5604 22.0064 81.9449 22.891C82.3287 23.7761 82.8471 24.5528 83.4989 25.2205C84.1506 25.8889 84.919 26.4149 85.805 26.7985C86.6901 27.1828 87.6175 27.3746 88.5872 27.3746C89.5561 27.3746 90.4836 27.1826 91.3696 26.7985C92.2547 26.4149 93.0238 25.8889 93.6757 25.2205C94.3274 24.5528 94.845 23.7763 95.2297 22.891C95.6135 22.0064 95.806 21.0795 95.806 20.1105C95.7058 18.1404 95.004 16.4786 93.7006 15.1259C92.3972 13.7733 90.7091 13.0304 88.6375 12.8965H88.5872V12.8967Z" fill="#2C5FA2"/>
</svg>
