<svg width="59" height="59" viewBox="0 0 59 59" fill="none" xmlns="http://www.w3.org/2000/svg">
<g clip-path="url(#clip0_1_325)">
<path d="M29.2474 0.0166588C14.3071 0.0166588 15.2399 6.5217 15.2399 6.5217L15.2565 13.2611H29.5138V15.2845H9.59374C9.59374 15.2845 0.0334167 14.1959 0.0334167 29.3311C0.0334167 44.4668 8.3779 43.93 8.3779 43.93H13.3579V36.9065C13.3579 36.9065 13.0894 28.5285 21.5692 28.5285H35.7098C35.7098 28.5285 43.6545 28.6573 43.6545 20.8194V7.85973C43.6545 7.85973 44.8611 0.0166588 29.2474 0.0166588ZM21.386 4.54878C21.7229 4.54848 22.0565 4.61488 22.3678 4.74419C22.6792 4.87349 22.962 5.06317 23.2003 5.30236C23.4385 5.54154 23.6274 5.82555 23.7562 6.13812C23.885 6.45069 23.9511 6.7857 23.9508 7.12396C23.9511 7.46222 23.885 7.79723 23.7562 8.1098C23.6274 8.42237 23.4385 8.70638 23.2003 8.94556C22.962 9.18475 22.6792 9.37443 22.3678 9.50373C22.0565 9.63304 21.7229 9.69944 21.386 9.69914C21.049 9.69944 20.7154 9.63304 20.4041 9.50373C20.0927 9.37443 19.8099 9.18475 19.5716 8.94556C19.3334 8.70638 19.1445 8.42237 19.0157 8.1098C18.8869 7.79723 18.8208 7.46222 18.8211 7.12396C18.8208 6.7857 18.8869 6.45069 19.0157 6.13812C19.1445 5.82555 19.3334 5.54154 19.5716 5.30236C19.8099 5.06317 20.0927 4.87349 20.4041 4.74419C20.7154 4.61488 21.049 4.54848 21.386 4.54878Z" fill="#2C5FA2"/>
<path d="M29.6717 58.7978C44.612 58.7978 43.6792 52.2927 43.6792 52.2927L43.6626 45.5535H29.405V43.5302H49.3251C49.3251 43.5302 58.8854 44.6188 58.8854 29.4831C58.8854 14.3476 50.541 14.8844 50.541 14.8844H45.561V21.9077C45.561 21.9077 45.8295 30.2857 37.3497 30.2857H23.209C23.209 30.2857 15.2643 30.1569 15.2643 37.9951V50.9549C15.2643 50.9549 14.058 58.7978 29.6714 58.7978H29.6717ZM37.5331 54.2661C37.1962 54.2664 36.8626 54.2 36.5512 54.0707C36.2399 53.9414 35.9571 53.7517 35.7188 53.5125C35.4806 53.2734 35.2917 52.9893 35.1629 52.6768C35.0341 52.3642 34.968 52.0292 34.9683 51.6909C34.9679 51.3527 35.034 51.0176 35.1628 50.705C35.2916 50.3924 35.4805 50.1084 35.7187 49.8692C35.957 49.63 36.2399 49.4403 36.5512 49.311C36.8625 49.1816 37.1962 49.1152 37.5331 49.1155C37.8701 49.1152 38.2037 49.1816 38.515 49.3109C38.8264 49.4402 39.1092 49.6299 39.3475 49.8691C39.5857 50.1083 39.7746 50.3923 39.9034 50.7049C40.0322 51.0174 40.0983 51.3524 40.098 51.6907C40.0983 52.029 40.0322 52.364 39.9034 52.6765C39.7746 52.9891 39.5857 53.2731 39.3475 53.5123C39.1092 53.7515 38.8264 53.9412 38.515 54.0705C38.2037 54.1998 37.8701 54.2664 37.5331 54.2661Z" fill="#2C5FA2"/>
</g>
<defs>
<clipPath id="clip0_1_325">
<rect width="59" height="59" fill="white"/>
</clipPath>
</defs>
</svg>
