<svg width="65" height="81" viewBox="0 0 65 81" fill="none" xmlns="http://www.w3.org/2000/svg">
<g clip-path="url(#clip0_1_267)">
<path d="M32.0756 34.3636C35.2143 34.3636 37.7587 31.807 37.7587 28.6532C37.7587 25.4995 35.2143 22.9429 32.0756 22.9429C28.9369 22.9429 26.3925 25.4995 26.3925 28.6532C26.3925 31.807 28.9369 34.3636 32.0756 34.3636Z" fill="#00D8FF"/>
<path d="M32.0756 42.0124C24.0802 42.0124 17.0729 41.0601 11.8166 39.2636C4.52701 36.7545 0 32.692 0 28.6532C0 24.7664 4.19093 20.9741 11.215 18.5056C16.9284 16.5098 24.3222 15.4123 32.0756 15.4123C39.671 15.4123 46.9808 16.4895 52.6538 18.4515C59.8527 20.9505 64.1512 24.7664 64.1512 28.6634C64.1512 32.7157 59.4662 36.768 51.9212 39.2872C46.638 41.0398 39.587 42.0124 32.0756 42.0124ZM32.0756 18.6947C24.7927 18.6947 17.5804 19.755 12.2905 21.6056C6.09315 23.7837 3.26671 26.7892 3.26671 28.6532C3.26671 30.7402 6.56702 33.9854 12.8719 36.1534C17.7921 37.8419 24.4331 38.7266 32.0756 38.7266C39.2476 38.7266 45.9322 37.8149 50.8961 36.1602C57.7589 33.8807 60.8811 30.6726 60.8811 28.6532C60.8811 26.7824 57.974 23.7634 51.5884 21.5617C46.2515 19.7077 39.3215 18.6947 32.0756 18.6947Z" fill="#00D8FF"/>
<path d="M19.1869 57.4078C18.074 57.4323 16.9746 57.1596 16.0008 56.6176C12.64 54.6759 11.4637 49.1276 12.8551 41.7827C13.9843 35.8326 16.7368 28.8356 20.6051 22.0784C24.4197 15.4427 29.0072 9.62086 33.514 5.67998C39.261 0.644977 44.6988 -1.18194 48.0596 0.759793C51.5414 2.78595 52.711 8.89482 51.1179 16.709C49.9921 22.2033 47.3034 28.8255 43.5494 35.3564C39.5433 42.3197 35.2213 47.9524 31.0472 51.6164C26.7789 55.3816 22.5174 57.4078 19.1869 57.4078ZM23.4383 23.7094C19.7985 30.0547 17.1133 36.8693 16.0647 42.3838C14.838 48.8642 16.0176 52.8253 17.6308 53.7573C19.4322 54.8042 23.8819 53.548 28.8963 49.1411C32.8015 45.7034 36.8883 40.3611 40.7162 33.7119C44.2989 27.4781 46.8564 21.2172 47.9117 16.0438C49.3602 8.95223 48.1537 4.60949 46.4195 3.59979C44.8097 2.66776 40.7532 3.69097 35.6649 8.14176C31.4236 11.8564 27.0814 17.3777 23.4417 23.706L23.4383 23.7094Z" fill="#00D8FF"/>
<path d="M44.9677 57.4078C41.8119 57.4078 37.8394 55.5167 33.7257 51.9575C29.1718 48.02 24.5171 42.134 20.6186 35.3835C16.8041 28.7546 14.0751 21.8589 12.9257 15.956C11.4671 8.4457 12.5896 2.78597 15.9504 0.840854C19.4423 -1.1853 25.2935 0.840855 31.2253 6.14264C35.3994 9.85726 39.7651 15.5102 43.5225 22.0412C47.5555 29.0247 50.2441 35.5962 51.2961 41.0432C52.7916 48.6379 51.5582 54.6117 48.073 56.6244C47.1248 57.1561 46.0534 57.4264 44.9677 57.4078V57.4078ZM23.4585 33.7355C27.1218 40.0842 31.6454 45.8182 35.8699 49.4687C40.8372 53.7709 44.85 54.7232 46.4632 53.781C48.2613 52.7409 49.4039 48.2496 48.11 41.6815C47.1018 36.5857 44.5576 30.362 40.7162 23.6892C37.1336 17.452 32.9864 12.0962 29.0777 8.60104C23.9122 3.99153 19.3986 2.64414 17.6006 3.68423C15.9874 4.62302 14.8413 8.66858 16.1319 15.3279C17.2141 20.8796 19.8288 27.4173 23.4484 33.7355H23.4585Z" fill="#00D8FF"/>
<path d="M18.4845 80.5161L14.6598 74.8159C16.6091 74.6369 18.2929 73.2118 18.2929 70.7197C18.2929 68.1363 16.431 66.4445 13.9507 66.4445H8.36841V80.5128H10.1396V74.9037H12.8853L16.4344 80.5161H18.4845ZM13.7793 73.4786H10.1396V68.1363H13.7793C15.4597 68.1363 16.5251 69.2034 16.5251 70.8075C16.5251 72.4115 15.3723 73.4786 13.7793 73.4786ZM24.9473 80.7795C26.6322 80.7795 27.9619 80.2449 28.9366 79.1755L28.1401 78.1084C27.3056 78.9183 26.1881 79.367 25.028 79.3579C22.8132 79.3579 21.4823 77.7538 21.3949 75.7952H29.639V75.3494C29.639 72.3102 27.8678 69.916 24.7658 69.916C21.8419 69.916 19.8019 72.3203 19.8019 75.2583C19.8019 78.6352 21.9293 80.7795 24.9406 80.7795H24.9473ZM28.1367 74.8125H21.4857C21.573 73.2085 22.6384 71.4356 24.7658 71.4356C25.2101 71.4264 25.6517 71.5075 26.064 71.6742C26.4763 71.8408 26.8508 72.0894 27.165 72.4052C27.4793 72.7209 27.7267 73.0972 27.8925 73.5115C28.0584 73.9258 28.1391 74.3695 28.13 74.8159L28.1367 74.8125ZM40.1012 80.5128V73.5698C40.1012 71.0776 38.33 70.0983 36.2027 70.0983C35.4428 70.0728 34.6862 70.2101 33.9833 70.5013C33.2804 70.7924 32.6472 71.2306 32.126 71.7868L32.8351 72.8539C33.213 72.3981 33.6879 72.0335 34.2248 71.7868C34.7617 71.5402 35.3469 71.4178 35.9371 71.4288C37.4428 71.4288 38.5082 72.2292 38.5082 73.5664V75.4372C37.7117 74.4579 36.5589 74.0122 35.1474 74.0122C33.467 74.0122 31.6017 75.0793 31.6017 77.3891C31.6017 79.6145 33.4636 80.766 35.1474 80.766C35.7767 80.7859 36.4028 80.6688 36.9829 80.4228C37.5629 80.1768 38.0832 79.8078 38.5082 79.341V80.4993L40.1012 80.5128ZM35.759 79.7124C34.2534 79.7124 33.2787 78.8209 33.2787 77.487C33.2787 76.1532 34.3408 75.2616 35.759 75.2616C36.9118 75.2616 37.9738 75.7074 38.5048 76.5077V78.4664C37.9738 79.2667 36.8244 79.7124 35.759 79.7124ZM47.7235 80.7795C48.4411 80.8068 49.1545 80.6592 49.8029 80.3493C50.4514 80.0394 51.0156 79.5764 51.4473 78.9999L50.3853 78.0206C50.0979 78.4384 49.7137 78.7797 49.2658 79.015C48.8179 79.2504 48.3197 79.3727 47.8143 79.3714C45.6869 79.3714 44.3593 77.6829 44.3593 75.4541C44.3593 73.2254 45.7037 71.5369 47.8143 71.5369C48.3215 71.5253 48.8234 71.6432 49.273 71.8794C49.7226 72.1156 50.1053 72.4625 50.3853 72.8877L51.4473 71.9084C51.0192 71.3256 50.4566 70.8561 49.808 70.5402C49.1593 70.2244 48.444 70.0715 47.7235 70.0949C44.6988 70.0949 42.6823 72.4115 42.6823 75.4372C42.6823 78.463 44.7189 80.7795 47.7235 80.7795V80.7795ZM56.2297 80.7795C56.908 80.8254 57.5769 80.601 58.0916 80.1548L57.648 78.9965C57.5149 79.1452 57.3505 79.2623 57.1669 79.3394C56.9832 79.4165 56.7848 79.4516 56.586 79.4423C55.8768 79.4423 55.524 78.9087 55.524 78.0915V71.7868H57.564V70.3617H55.524V67.6028H53.9276V70.3617H52.2472V71.7868H53.9276V78.4664C53.9276 79.9792 54.7241 80.7829 56.2331 80.7829L56.2297 80.7795Z" fill="#00D8FF"/>
</g>
<g clip-path="url(#clip1_1_267)">
<path d="M32.0756 34.3636C35.2143 34.3636 37.7587 31.807 37.7587 28.6532C37.7587 25.4995 35.2143 22.9429 32.0756 22.9429C28.9369 22.9429 26.3925 25.4995 26.3925 28.6532C26.3925 31.807 28.9369 34.3636 32.0756 34.3636Z" fill="#2C5FA2"/>
<path d="M32.0756 42.0124C24.0802 42.0124 17.0729 41.0601 11.8166 39.2636C4.52701 36.7545 0 32.692 0 28.6532C0 24.7664 4.19093 20.9741 11.215 18.5056C16.9284 16.5098 24.3222 15.4123 32.0756 15.4123C39.671 15.4123 46.9808 16.4895 52.6538 18.4515C59.8527 20.9505 64.1512 24.7664 64.1512 28.6634C64.1512 32.7157 59.4662 36.768 51.9212 39.2872C46.638 41.0398 39.587 42.0124 32.0756 42.0124ZM32.0756 18.6947C24.7927 18.6947 17.5804 19.755 12.2905 21.6056C6.09315 23.7837 3.26671 26.7892 3.26671 28.6532C3.26671 30.7402 6.56702 33.9854 12.8719 36.1534C17.7921 37.8419 24.4331 38.7266 32.0756 38.7266C39.2476 38.7266 45.9322 37.8149 50.8961 36.1602C57.7589 33.8807 60.8811 30.6726 60.8811 28.6532C60.8811 26.7824 57.974 23.7634 51.5884 21.5617C46.2515 19.7077 39.3215 18.6947 32.0756 18.6947Z" fill="#2C5FA2"/>
<path d="M19.1869 57.4078C18.074 57.4323 16.9746 57.1596 16.0008 56.6176C12.64 54.6759 11.4637 49.1276 12.8551 41.7827C13.9843 35.8326 16.7368 28.8356 20.6051 22.0784C24.4197 15.4427 29.0072 9.62086 33.514 5.67998C39.261 0.644977 44.6988 -1.18194 48.0596 0.759793C51.5414 2.78595 52.711 8.89482 51.1179 16.709C49.9921 22.2033 47.3034 28.8255 43.5494 35.3564C39.5433 42.3197 35.2213 47.9524 31.0472 51.6164C26.7789 55.3816 22.5174 57.4078 19.1869 57.4078ZM23.4383 23.7094C19.7985 30.0547 17.1133 36.8693 16.0647 42.3838C14.838 48.8642 16.0176 52.8253 17.6308 53.7573C19.4322 54.8042 23.8819 53.548 28.8963 49.1411C32.8015 45.7034 36.8883 40.3611 40.7162 33.7119C44.2989 27.4781 46.8564 21.2172 47.9117 16.0438C49.3602 8.95223 48.1537 4.60949 46.4195 3.59979C44.8097 2.66776 40.7532 3.69097 35.6649 8.14176C31.4236 11.8564 27.0814 17.3777 23.4417 23.706L23.4383 23.7094Z" fill="#2C5FA2"/>
<path d="M44.9677 57.4078C41.8119 57.4078 37.8394 55.5167 33.7257 51.9575C29.1718 48.02 24.5171 42.134 20.6186 35.3835C16.8041 28.7546 14.0751 21.8589 12.9257 15.956C11.4671 8.4457 12.5896 2.78597 15.9504 0.840854C19.4423 -1.1853 25.2935 0.840855 31.2253 6.14264C35.3994 9.85726 39.7651 15.5102 43.5225 22.0412C47.5555 29.0247 50.2441 35.5962 51.2961 41.0432C52.7916 48.6379 51.5582 54.6117 48.073 56.6244C47.1248 57.1561 46.0534 57.4264 44.9677 57.4078V57.4078ZM23.4585 33.7355C27.1218 40.0842 31.6454 45.8182 35.8699 49.4687C40.8372 53.7709 44.85 54.7232 46.4632 53.781C48.2613 52.7409 49.4039 48.2496 48.11 41.6815C47.1018 36.5857 44.5576 30.362 40.7162 23.6892C37.1336 17.452 32.9864 12.0962 29.0777 8.60104C23.9122 3.99153 19.3986 2.64414 17.6006 3.68423C15.9874 4.62302 14.8413 8.66858 16.1319 15.3279C17.2141 20.8796 19.8288 27.4173 23.4484 33.7355H23.4585Z" fill="#2C5FA2"/>
<path d="M18.4845 80.5161L14.6598 74.8159C16.6091 74.6369 18.2929 73.2118 18.2929 70.7197C18.2929 68.1363 16.431 66.4445 13.9507 66.4445H8.36841V80.5128H10.1396V74.9037H12.8853L16.4344 80.5161H18.4845ZM13.7793 73.4786H10.1396V68.1363H13.7793C15.4597 68.1363 16.5251 69.2034 16.5251 70.8075C16.5251 72.4115 15.3723 73.4786 13.7793 73.4786ZM24.9473 80.7795C26.6322 80.7795 27.9619 80.2449 28.9366 79.1755L28.1401 78.1084C27.3056 78.9183 26.1881 79.367 25.028 79.3579C22.8132 79.3579 21.4823 77.7538 21.3949 75.7952H29.639V75.3494C29.639 72.3102 27.8678 69.916 24.7658 69.916C21.8419 69.916 19.8019 72.3203 19.8019 75.2583C19.8019 78.6352 21.9293 80.7795 24.9406 80.7795H24.9473ZM28.1367 74.8125H21.4857C21.573 73.2085 22.6384 71.4356 24.7658 71.4356C25.2101 71.4264 25.6517 71.5075 26.064 71.6742C26.4763 71.8408 26.8508 72.0894 27.165 72.4052C27.4793 72.7209 27.7267 73.0972 27.8925 73.5115C28.0584 73.9258 28.1391 74.3695 28.13 74.8159L28.1367 74.8125ZM40.1012 80.5128V73.5698C40.1012 71.0776 38.33 70.0983 36.2027 70.0983C35.4428 70.0728 34.6862 70.2101 33.9833 70.5013C33.2804 70.7924 32.6472 71.2306 32.126 71.7868L32.8351 72.8539C33.213 72.3981 33.6879 72.0335 34.2248 71.7868C34.7617 71.5402 35.3469 71.4178 35.9371 71.4288C37.4428 71.4288 38.5082 72.2292 38.5082 73.5664V75.4372C37.7117 74.4579 36.5589 74.0122 35.1474 74.0122C33.467 74.0122 31.6017 75.0793 31.6017 77.3891C31.6017 79.6145 33.4636 80.766 35.1474 80.766C35.7767 80.7859 36.4028 80.6688 36.9829 80.4228C37.5629 80.1768 38.0832 79.8078 38.5082 79.341V80.4993L40.1012 80.5128ZM35.759 79.7124C34.2534 79.7124 33.2787 78.8209 33.2787 77.487C33.2787 76.1532 34.3408 75.2616 35.759 75.2616C36.9118 75.2616 37.9738 75.7074 38.5048 76.5077V78.4664C37.9738 79.2667 36.8244 79.7124 35.759 79.7124ZM47.7235 80.7795C48.4411 80.8068 49.1545 80.6592 49.8029 80.3493C50.4514 80.0394 51.0156 79.5764 51.4473 78.9999L50.3853 78.0206C50.0979 78.4384 49.7137 78.7797 49.2658 79.015C48.8179 79.2504 48.3197 79.3727 47.8143 79.3714C45.6869 79.3714 44.3593 77.6829 44.3593 75.4541C44.3593 73.2254 45.7037 71.5369 47.8143 71.5369C48.3215 71.5253 48.8234 71.6432 49.273 71.8794C49.7226 72.1156 50.1053 72.4625 50.3853 72.8877L51.4473 71.9084C51.0192 71.3256 50.4566 70.8561 49.808 70.5402C49.1593 70.2244 48.444 70.0715 47.7235 70.0949C44.6988 70.0949 42.6823 72.4115 42.6823 75.4372C42.6823 78.463 44.7189 80.7795 47.7235 80.7795V80.7795ZM56.2297 80.7795C56.908 80.8254 57.5769 80.601 58.0916 80.1548L57.648 78.9965C57.5149 79.1452 57.3505 79.2623 57.1669 79.3394C56.9832 79.4165 56.7848 79.4516 56.586 79.4423C55.8768 79.4423 55.524 78.9087 55.524 78.0915V71.7868H57.564V70.3617H55.524V67.6028H53.9276V70.3617H52.2472V71.7868H53.9276V78.4664C53.9276 79.9792 54.7241 80.7829 56.2331 80.7829L56.2297 80.7795Z" fill="#2C5FA2"/>
</g>
<defs>
<clipPath id="clip0_1_267">
<rect width="64.1512" height="80.7829" fill="white"/>
</clipPath>
<clipPath id="clip1_1_267">
<rect width="64.1512" height="80.7829" fill="white"/>
</clipPath>
</defs>
</svg>
