<svg width="10" height="17" viewBox="0 0 10 17" fill="none" xmlns="http://www.w3.org/2000/svg">
<path d="M5.80229 16.2842C5.15079 16.2842 4.51387 16.193 3.89155 16.0105C3.27894 15.8281 2.72468 15.5373 2.22876 15.1382C1.73285 14.7505 1.33903 14.2487 1.04732 13.6329C0.755599 13.0171 0.609741 12.2759 0.609741 11.4092C0.609741 10.4741 0.770185 9.61888 1.09107 8.84344C1.41196 8.05659 1.86412 7.36098 2.44755 6.75659C3.03098 6.15221 3.72138 5.65045 4.51874 5.25133C5.00419 5.0044 5.51603 4.80079 6.05425 4.64051C6.66098 4.45982 7.26355 4.87049 7.39554 5.48963V5.48963C7.5306 6.12324 7.12338 6.73812 6.50542 6.93261C6.10848 7.05755 5.74283 7.19843 5.40847 7.35528C4.78614 7.65177 4.27078 7.99958 3.86237 8.3987C3.45397 8.79782 3.14767 9.22545 2.94347 9.68159C2.74899 10.1491 2.65175 10.6395 2.65175 11.1526C2.65175 11.5632 2.71496 11.9224 2.84137 12.2303C2.9775 12.5382 3.15739 12.7948 3.38104 13C3.60469 13.2167 3.85265 13.3877 4.12492 13.5132C4.39719 13.65 4.67918 13.7469 4.9709 13.804C5.26261 13.861 5.53974 13.8895 5.80229 13.8895C6.47323 13.8895 7.09556 13.8154 7.66927 13.6671C7.74144 13.6488 7.8125 13.6299 7.88244 13.6105C8.58377 13.4161 9.37487 13.7782 9.5609 14.4818V14.4818C9.6929 14.981 9.47284 15.5053 8.98836 15.6839C8.92547 15.7071 8.86014 15.7305 8.79238 15.754C8.37425 15.9022 7.90264 16.0276 7.37755 16.1303C6.86219 16.2329 6.3371 16.2842 5.80229 16.2842ZM3.2072 6.61903C3.01528 6.73692 2.77407 6.75464 2.58308 6.63527C2.36127 6.49663 2.15079 6.32611 1.95163 6.1237C1.66964 5.82721 1.44113 5.4623 1.2661 5.02896C1.1008 4.58423 1.01814 4.07677 1.01814 3.50659C1.01814 2.78817 1.17859 2.16668 1.49948 1.64212C1.82036 1.11756 2.24821 0.712735 2.78303 0.427647C3.31784 0.142559 3.90127 1.52588e-05 4.53332 1.52588e-05C4.84449 1.52588e-05 5.13134 0.0228225 5.39388 0.0684367V0.0684367C5.88258 0.15031 6.17477 0.63177 6.10556 1.12242L5.99409 1.9127C5.94659 2.24951 5.61307 2.46557 5.2772 2.41186V2.41186C5.06327 2.37765 4.87366 2.36054 4.70835 2.36054C4.36802 2.36054 4.07144 2.41756 3.81862 2.53159C3.57552 2.64563 3.38591 2.81098 3.24977 3.02765C3.12336 3.23291 3.06016 3.47809 3.06016 3.76317C3.06016 3.99124 3.1185 4.20791 3.23519 4.41317C3.3616 4.61844 3.52204 4.80089 3.71652 4.96054C3.91099 5.10879 4.12492 5.23423 4.35829 5.33686V5.33686C4.55863 5.41517 4.62584 5.74757 4.44255 5.86016L3.2072 6.61903Z" fill="#2C5FA2"/>
</svg>
