<svg width="59" height="52" viewBox="0 0 59 52" fill="none" xmlns="http://www.w3.org/2000/svg">
<g clip-path="url(#clip0_1_175)">
<path d="M4.09074 42.9763C2.09289 42.9763 0.0380859 44.5853 0.0380859 47.401C0.0380859 49.975 1.84475 51.793 4.09074 51.793C5.94506 51.793 6.7714 50.5425 6.7714 50.5425V51.0878C6.7714 51.3452 7.01372 51.633 7.31415 51.633H8.65419V43.1678H6.7714V44.242C6.7714 44.242 5.93809 42.9758 4.09074 42.9758V42.9763ZM4.42604 44.7067C6.07116 44.7067 6.93353 46.1598 6.93353 47.3998C6.93353 48.7806 5.90903 50.0918 4.42953 50.0918C3.19293 50.0924 1.95575 49.0859 1.95575 47.3817C1.95575 45.8458 3.01976 44.7073 4.42604 44.7073V44.7067Z" fill="#2C5FA2"/>
<path d="M11.2709 51.6324C11.199 51.6346 11.1275 51.622 11.0607 51.5954C10.9938 51.5688 10.9331 51.5287 10.8823 51.4776C10.8314 51.4265 10.7915 51.3655 10.765 51.2984C10.7385 51.2313 10.726 51.1594 10.7281 51.0872V43.169H12.6109V44.2164C13.0375 43.5742 13.8714 42.974 15.1504 42.974C17.2424 42.974 18.3552 44.649 18.3552 46.2147V51.633H17.0471C16.895 51.6324 16.7494 51.5715 16.6418 51.4634C16.5343 51.3554 16.4736 51.209 16.473 51.0562V46.6316C16.473 45.7634 15.9436 44.7091 14.7192 44.7091C13.3983 44.7091 12.6115 45.9631 12.6115 47.1441V51.6324H11.2709Z" fill="#2C5FA2"/>
<path d="M23.8444 42.9763C21.8465 42.9763 19.7917 44.5847 19.7917 47.4004C19.7917 49.9744 21.5984 51.7924 23.8444 51.7924C25.6987 51.7924 26.525 50.5419 26.525 50.5419V51.0872C26.525 51.3446 26.7673 51.6325 27.0678 51.6325H28.4078V38.937H26.525V44.2426C26.525 44.2426 25.6917 42.9763 23.8444 42.9763V42.9763ZM24.1797 44.7068C25.8248 44.7068 26.6871 46.1598 26.6871 47.3999C26.6871 48.7806 25.6626 50.0918 24.1831 50.0918C22.946 50.0918 21.707 49.0853 21.707 47.3818C21.707 45.8458 22.7734 44.7073 24.1797 44.7073V44.7068Z" fill="#2C5FA2"/>
<path d="M31.024 51.6324C30.9521 51.6346 30.8806 51.622 30.8137 51.5954C30.7469 51.5688 30.6862 51.5287 30.6354 51.4776C30.5845 51.4265 30.5446 51.3655 30.5181 51.2984C30.4916 51.2312 30.479 51.1594 30.4812 51.0872V43.169H32.364V44.5795C32.6883 43.789 33.3873 43.0727 34.6303 43.0727C34.8551 43.0748 35.0793 43.0963 35.3004 43.1369V45.0926C35.0135 44.989 34.7114 44.9347 34.4066 44.9321C33.0857 44.9321 32.364 46.1861 32.364 47.3671V51.6324H31.024Z" fill="#2C5FA2"/>
<path d="M46.7244 51.6324C46.6525 51.6346 46.581 51.622 46.5141 51.5954C46.4473 51.5687 46.3866 51.5287 46.3358 51.4776C46.2849 51.4265 46.245 51.3655 46.2185 51.2984C46.192 51.2312 46.1795 51.1594 46.1816 51.0872V43.169H48.0644V51.6342L46.7244 51.6324Z" fill="#2C5FA2"/>
<path d="M53.5855 42.9763C51.5871 42.9763 49.5329 44.5847 49.5329 47.4004C49.5329 49.9744 51.3395 51.7924 53.5855 51.7924C55.4398 51.7924 56.2662 50.5419 56.2662 50.5419V51.0872C56.2662 51.3446 56.5085 51.6325 56.8089 51.6325H58.149V38.937H56.2662V44.2426C56.2662 44.2426 55.4329 42.9763 53.5855 42.9763V42.9763ZM53.9208 44.7068C55.5659 44.7068 56.4283 46.1598 56.4283 47.3999C56.4283 48.7806 55.4038 50.0918 53.9243 50.0918C52.6871 50.0918 51.4482 49.0853 51.4482 47.3818C51.4482 45.8458 52.5122 44.7073 53.9208 44.7073V44.7068Z" fill="#2C5FA2"/>
<path d="M47.1085 41.3434C47.7963 41.3434 48.3538 40.7833 48.3538 40.0923C48.3538 39.4014 47.7963 38.8412 47.1085 38.8412C46.4207 38.8412 45.8632 39.4014 45.8632 40.0923C45.8632 40.7833 46.4207 41.3434 47.1085 41.3434Z" fill="#2C5FA2"/>
<path d="M40.2659 42.974C38.1739 42.974 35.8745 44.5433 35.8745 47.3858C35.8745 49.9762 37.8328 51.7936 40.2619 51.7936C43.2552 51.7936 44.7166 49.376 44.7166 47.4022C44.7166 44.9806 42.8344 42.974 40.2665 42.974H40.2659ZM40.2729 44.7406C41.7199 44.7406 42.7996 45.9123 42.7996 47.3917C42.7996 48.8967 41.6536 50.0579 40.2776 50.0579C38.9991 50.0579 37.7579 49.0135 37.7579 47.4174C37.7579 45.7944 38.9393 44.7412 40.2735 44.7412L40.2729 44.7406Z" fill="#2C5FA2"/>
<path d="M43.2748 10.6914L48.0945 2.30789C48.2245 2.08262 48.2603 1.81472 48.194 1.56298C48.1276 1.31124 47.9646 1.09622 47.7406 0.965135C47.6301 0.899663 47.5076 0.856978 47.3805 0.839573C47.2533 0.822167 47.124 0.830391 47.0001 0.863763C46.8761 0.897136 46.76 0.954988 46.6586 1.03394C46.5572 1.11289 46.4724 1.21136 46.4093 1.32359L41.528 9.81507C37.8042 8.10685 33.6133 7.15408 29.1056 7.15408C24.5979 7.15408 20.4087 8.10685 16.6856 9.81507L11.8042 1.32359C11.6683 1.11158 11.4562 0.960372 11.2121 0.901422C10.968 0.842472 10.7107 0.880313 10.4937 1.00708C10.2766 1.13384 10.1166 1.33977 10.0468 1.58204C9.97704 1.82432 10.0029 2.08429 10.119 2.30789L14.9364 10.6914C6.62714 15.2135 1.00084 23.6612 0.0716515 33.5492H58.1436C57.2144 23.6612 51.5881 15.2135 43.2748 10.6914ZM15.775 25.3543C15.2936 25.3543 14.8231 25.2109 14.4229 24.9422C14.0227 24.6736 13.7107 24.2917 13.5265 23.8449C13.3423 23.3982 13.2941 22.9066 13.388 22.4323C13.4819 21.958 13.7137 21.5224 14.0541 21.1804C14.3944 20.8385 14.8281 20.6056 15.3002 20.5113C15.7723 20.4169 16.2616 20.4654 16.7063 20.6504C17.151 20.8355 17.5311 21.1488 17.7985 21.5509C18.0659 21.953 18.2086 22.4257 18.2086 22.9093C18.2083 23.5576 17.9518 24.1793 17.4955 24.6378C17.0392 25.0963 16.4203 25.354 15.775 25.3543V25.3543ZM42.4339 25.3543C41.9526 25.3543 41.482 25.2109 41.0818 24.9422C40.6816 24.6736 40.3697 24.2917 40.1855 23.8449C40.0013 23.3982 39.9531 22.9066 40.047 22.4323C40.1409 21.958 40.3727 21.5224 40.713 21.1804C41.0534 20.8385 41.487 20.6056 41.9591 20.5113C42.4312 20.4169 42.9205 20.4654 43.3652 20.6504C43.8099 20.8355 44.19 21.1488 44.4574 21.5509C44.7249 21.953 44.8676 22.4257 44.8676 22.9093C44.8673 23.5576 44.6108 24.1793 44.1544 24.6378C43.6981 25.0963 43.0793 25.354 42.4339 25.3543V25.3543Z" fill="#32DE84"/>
</g>
<g clip-path="url(#clip1_1_175)">
<path d="M4.09074 42.9763C2.09289 42.9763 0.0380859 44.5853 0.0380859 47.401C0.0380859 49.975 1.84475 51.793 4.09074 51.793C5.94506 51.793 6.7714 50.5425 6.7714 50.5425V51.0878C6.7714 51.3452 7.01372 51.633 7.31415 51.633H8.65419V43.1678H6.7714V44.242C6.7714 44.242 5.93809 42.9758 4.09074 42.9758V42.9763ZM4.42604 44.7067C6.07116 44.7067 6.93353 46.1598 6.93353 47.3998C6.93353 48.7806 5.90903 50.0918 4.42953 50.0918C3.19293 50.0924 1.95575 49.0859 1.95575 47.3817C1.95575 45.8458 3.01976 44.7073 4.42604 44.7073V44.7067Z" fill="#2C5FA2"/>
<path d="M11.2709 51.6324C11.199 51.6346 11.1275 51.622 11.0607 51.5954C10.9938 51.5688 10.9331 51.5287 10.8823 51.4776C10.8314 51.4265 10.7915 51.3655 10.765 51.2984C10.7385 51.2313 10.726 51.1594 10.7281 51.0872V43.169H12.6109V44.2164C13.0375 43.5742 13.8714 42.974 15.1504 42.974C17.2424 42.974 18.3552 44.649 18.3552 46.2147V51.633H17.0471C16.895 51.6324 16.7494 51.5715 16.6418 51.4634C16.5343 51.3554 16.4736 51.209 16.473 51.0562V46.6316C16.473 45.7634 15.9436 44.7091 14.7192 44.7091C13.3983 44.7091 12.6115 45.9631 12.6115 47.1441V51.6324H11.2709Z" fill="#2C5FA2"/>
<path d="M23.8444 42.9763C21.8465 42.9763 19.7917 44.5847 19.7917 47.4004C19.7917 49.9744 21.5984 51.7924 23.8444 51.7924C25.6987 51.7924 26.525 50.5419 26.525 50.5419V51.0872C26.525 51.3446 26.7673 51.6325 27.0678 51.6325H28.4078V38.937H26.525V44.2426C26.525 44.2426 25.6917 42.9763 23.8444 42.9763V42.9763ZM24.1797 44.7068C25.8248 44.7068 26.6871 46.1598 26.6871 47.3999C26.6871 48.7806 25.6626 50.0918 24.1831 50.0918C22.946 50.0918 21.707 49.0853 21.707 47.3818C21.707 45.8458 22.7734 44.7073 24.1797 44.7073V44.7068Z" fill="#2C5FA2"/>
<path d="M31.024 51.6324C30.9521 51.6346 30.8806 51.622 30.8137 51.5954C30.7469 51.5688 30.6862 51.5287 30.6354 51.4776C30.5845 51.4265 30.5446 51.3655 30.5181 51.2984C30.4916 51.2312 30.479 51.1594 30.4812 51.0872V43.169H32.364V44.5795C32.6883 43.789 33.3873 43.0727 34.6303 43.0727C34.8551 43.0748 35.0793 43.0963 35.3004 43.1369V45.0926C35.0135 44.989 34.7114 44.9347 34.4066 44.9321C33.0857 44.9321 32.364 46.1861 32.364 47.3671V51.6324H31.024Z" fill="#2C5FA2"/>
<path d="M46.7244 51.6324C46.6525 51.6346 46.581 51.622 46.5141 51.5954C46.4473 51.5687 46.3866 51.5287 46.3358 51.4776C46.2849 51.4265 46.245 51.3655 46.2185 51.2984C46.192 51.2312 46.1795 51.1594 46.1816 51.0872V43.169H48.0644V51.6342L46.7244 51.6324Z" fill="#2C5FA2"/>
<path d="M53.5855 42.9763C51.5871 42.9763 49.5329 44.5847 49.5329 47.4004C49.5329 49.9744 51.3395 51.7924 53.5855 51.7924C55.4398 51.7924 56.2662 50.5419 56.2662 50.5419V51.0872C56.2662 51.3446 56.5085 51.6325 56.8089 51.6325H58.149V38.937H56.2662V44.2426C56.2662 44.2426 55.4329 42.9763 53.5855 42.9763V42.9763ZM53.9208 44.7068C55.5659 44.7068 56.4283 46.1598 56.4283 47.3999C56.4283 48.7806 55.4038 50.0918 53.9243 50.0918C52.6871 50.0918 51.4482 49.0853 51.4482 47.3818C51.4482 45.8458 52.5122 44.7073 53.9208 44.7073V44.7068Z" fill="#2C5FA2"/>
<path d="M47.1085 41.3434C47.7963 41.3434 48.3538 40.7833 48.3538 40.0923C48.3538 39.4014 47.7963 38.8412 47.1085 38.8412C46.4207 38.8412 45.8632 39.4014 45.8632 40.0923C45.8632 40.7833 46.4207 41.3434 47.1085 41.3434Z" fill="#2C5FA2"/>
<path d="M40.2659 42.974C38.1739 42.974 35.8745 44.5433 35.8745 47.3858C35.8745 49.9762 37.8328 51.7936 40.2619 51.7936C43.2552 51.7936 44.7166 49.376 44.7166 47.4022C44.7166 44.9806 42.8344 42.974 40.2665 42.974H40.2659ZM40.2729 44.7406C41.7199 44.7406 42.7996 45.9123 42.7996 47.3917C42.7996 48.8967 41.6536 50.0579 40.2776 50.0579C38.9991 50.0579 37.7579 49.0135 37.7579 47.4174C37.7579 45.7944 38.9393 44.7412 40.2735 44.7412L40.2729 44.7406Z" fill="#2C5FA2"/>
<path d="M43.2748 10.6914L48.0945 2.30789C48.2245 2.08262 48.2603 1.81472 48.194 1.56298C48.1276 1.31124 47.9646 1.09622 47.7406 0.965135C47.6301 0.899663 47.5076 0.856978 47.3805 0.839573C47.2533 0.822167 47.124 0.830391 47.0001 0.863763C46.8761 0.897136 46.76 0.954988 46.6586 1.03394C46.5572 1.11289 46.4724 1.21136 46.4093 1.32359L41.528 9.81507C37.8042 8.10685 33.6133 7.15408 29.1056 7.15408C24.5979 7.15408 20.4087 8.10685 16.6856 9.81507L11.8042 1.32359C11.6683 1.11158 11.4562 0.960372 11.2121 0.901422C10.968 0.842472 10.7107 0.880313 10.4937 1.00708C10.2766 1.13384 10.1166 1.33977 10.0468 1.58204C9.97704 1.82432 10.0029 2.08429 10.119 2.30789L14.9364 10.6914C6.62714 15.2135 1.00084 23.6612 0.0716515 33.5492H58.1436C57.2144 23.6612 51.5881 15.2135 43.2748 10.6914ZM15.775 25.3543C15.2936 25.3543 14.8231 25.2109 14.4229 24.9422C14.0227 24.6736 13.7107 24.2917 13.5265 23.8449C13.3423 23.3982 13.2941 22.9066 13.388 22.4323C13.4819 21.958 13.7137 21.5224 14.0541 21.1804C14.3944 20.8385 14.8281 20.6056 15.3002 20.5113C15.7723 20.4169 16.2616 20.4654 16.7063 20.6504C17.151 20.8355 17.5311 21.1488 17.7985 21.5509C18.0659 21.953 18.2086 22.4257 18.2086 22.9093C18.2083 23.5576 17.9518 24.1793 17.4955 24.6378C17.0392 25.0963 16.4203 25.354 15.775 25.3543V25.3543ZM42.4339 25.3543C41.9526 25.3543 41.482 25.2109 41.0818 24.9422C40.6816 24.6736 40.3697 24.2917 40.1855 23.8449C40.0013 23.3982 39.9531 22.9066 40.047 22.4323C40.1409 21.958 40.3727 21.5224 40.713 21.1804C41.0534 20.8385 41.487 20.6056 41.9591 20.5113C42.4312 20.4169 42.9205 20.4654 43.3652 20.6504C43.8099 20.8355 44.19 21.1488 44.4574 21.5509C44.7249 21.953 44.8676 22.4257 44.8676 22.9093C44.8673 23.5576 44.6108 24.1793 44.1544 24.6378C43.6981 25.0963 43.0793 25.354 42.4339 25.3543V25.3543Z" fill="#2C5FA2"/>
</g>
<defs>
<clipPath id="clip0_1_175">
<rect width="58.1109" height="50.9588" fill="white" transform="translate(0.0380859 0.834229)"/>
</clipPath>
<clipPath id="clip1_1_175">
<rect width="58.1109" height="50.9588" fill="white" transform="translate(0.0380859 0.834229)"/>
</clipPath>
</defs>
</svg>
