<svg width="100" height="38" viewBox="0 0 100 38" fill="none" xmlns="http://www.w3.org/2000/svg">
<g clip-path="url(#clip0_1_204)">
<path d="M13.8572 32.8758L29.1091 17.6239H18.0233L8.31433 27.324L13.8572 32.8758Z" fill="#39CEFD"/>
<path d="M0 19.0096L18.0233 0.986328H29.1091L5.54289 24.5525L0 19.0096Z" fill="#39CEFD"/>
<path d="M18.0233 37.033H29.1091L19.409 27.324L13.8661 32.8669L18.0233 37.033Z" fill="#03569B"/>
<path d="M19.409 27.324L13.8661 32.8669L22.0911 30.015L19.409 27.324Z" fill="url(#paint0_linear_1_204)"/>
<path d="M8.31433 27.324L13.8572 21.7811L19.4001 27.324L13.8572 32.8758L8.31433 27.324Z" fill="#16B9FD"/>
<path d="M29.1091 17.6239L19.409 27.324L29.1091 37.033H18.0233L13.8572 32.8758L8.31433 27.3329L18.0233 17.6239H29.1091ZM18.0233 0.986328L0 19.0096L5.54289 24.5525L29.1091 0.986328H18.0233Z" fill="url(#paint1_radial_1_204)"/>
<path d="M32.6226 10.6506H42.3405V12.5012H34.6609V18.2408H41.5985V20.0914H34.6609V27.315H32.712V10.6506H32.6226Z" fill="#808080"/>
<path d="M44.656 10.6506H46.596V27.4044H44.656V10.6506Z" fill="#808080"/>
<path d="M53.909 27.8067C53.2933 27.8369 52.6782 27.7371 52.1036 27.5137C51.5291 27.2904 51.008 26.9485 50.5744 26.5104C49.7857 25.5153 49.3911 24.2645 49.4658 22.997V15.4604H51.4058V22.684C51.352 23.5797 51.6146 24.4657 52.1478 25.1873C52.4237 25.4682 52.7559 25.6875 53.1227 25.8308C53.4894 25.9741 53.8823 26.0382 54.2756 26.0187C54.917 26.0404 55.5469 25.8451 56.0636 25.4644C56.5649 25.1101 56.963 24.6287 57.2169 24.0698C57.5114 23.4966 57.6704 22.8635 57.6818 22.2192V15.4604H59.6218V27.4044H57.798V25.6164H57.7086C57.3276 26.244 56.7839 26.7568 56.1351 27.1005C55.489 27.5706 54.7079 27.8184 53.909 27.8067V27.8067Z" fill="#808080"/>
<path d="M67.4176 27.5832C66.9422 27.5805 66.4717 27.4864 66.0319 27.3061C65.6602 27.1469 65.3162 26.9296 65.0127 26.6624C64.7144 26.3628 64.4641 26.0191 64.2707 25.6432C64.0685 25.2007 63.9735 24.7168 63.9935 24.2307V17.2216H61.8658V15.4336H63.9935V12.1257H65.9335V15.4604H68.8391V17.2484H65.9425V23.6943C65.8959 24.216 66.0249 24.7383 66.309 25.1783C66.4662 25.3663 66.6655 25.5144 66.8908 25.6108C67.116 25.7071 67.3609 25.7488 67.6053 25.7326C68.0657 25.7541 68.5206 25.6254 68.9016 25.3661V27.3061C68.6245 27.3955 68.4368 27.4938 68.1596 27.5832H67.4176Z" fill="#808080"/>
<path d="M75.8481 27.5832C75.3727 27.5805 74.9023 27.4864 74.4624 27.3061C74.0907 27.1469 73.7467 26.9296 73.4432 26.6624C73.145 26.3628 72.8947 26.0191 72.7012 25.6432C72.4959 25.2015 72.3979 24.7175 72.4151 24.2307V17.2216H70.4751V15.4336H72.6028V12.1257H74.5429V15.4604H77.4216V17.2484H74.5518V23.6943C74.5053 24.216 74.6343 24.7383 74.9183 25.1783C75.0755 25.3663 75.2748 25.5144 75.5001 25.6108C75.7254 25.7071 75.9702 25.7488 76.2147 25.7326C76.6751 25.7541 77.13 25.6254 77.511 25.3661V27.3061C77.2338 27.3955 77.0461 27.4938 76.769 27.5832H75.8481Z" fill="#808080"/>
<path d="M84.6363 27.8067C83.5539 27.7984 82.4952 27.4888 81.5788 26.9127C80.6926 26.3665 79.9603 25.6035 79.451 24.6956C78.9473 23.697 78.6811 22.5955 78.6732 21.4771C78.6771 20.3853 78.9309 19.3088 79.4153 18.3302C79.8873 17.398 80.5888 16.6011 81.4536 16.0147C82.1122 15.5916 82.8516 15.3101 83.6249 15.1883C84.3982 15.0664 85.1884 15.1069 85.9452 15.307C86.702 15.5071 87.4088 15.8626 88.0208 16.3507C88.6327 16.8389 89.1364 17.4491 89.4997 18.1424C89.9941 19.1174 90.2485 20.1963 90.2418 21.2894C90.2638 21.508 90.2331 21.7287 90.1524 21.9331H80.6579C80.707 22.7359 80.9265 23.5192 81.3016 24.2307C81.652 24.8263 82.1675 25.3076 82.7857 25.6164C83.3628 25.9004 83.9935 26.0589 84.6363 26.0813C85.3624 26.0909 86.0766 25.8966 86.6977 25.5205C87.3188 25.1443 87.8219 24.6014 88.1498 23.9535L89.8126 24.785C89.307 25.7217 88.5756 26.5176 87.6849 27.1005C86.7293 27.549 85.6826 27.7694 84.6274 27.7442L84.6363 27.8067ZM88.0604 20.2166C88.0466 19.6796 87.8925 19.1556 87.6134 18.6967C87.3143 18.1789 86.9017 17.7356 86.4064 17.4004C85.7997 17.0115 85.0882 16.818 84.3681 16.8461C83.9277 16.826 83.4878 16.8947 83.0746 17.0483C82.6614 17.2019 82.2834 17.4372 81.9632 17.7401C81.3 18.3938 80.8484 19.2317 80.6669 20.145L88.0604 20.2166Z" fill="#808080"/>
<path d="M92.5036 15.4604H94.3542V17.4004H94.4436C94.6898 16.7195 95.1849 16.1572 95.8293 15.827C96.4522 15.3918 97.1975 15.1663 97.9571 15.1833C98.4342 15.1675 98.9085 15.2623 99.3428 15.4604V17.5882C98.8323 17.3168 98.2573 17.1901 97.6799 17.2216C97.1234 17.2334 96.5801 17.394 96.1065 17.6865C95.6357 18.0494 95.2279 18.4873 94.8996 18.9828C94.6009 19.5319 94.4413 20.1458 94.4347 20.7709V27.4313H92.4947L92.5036 15.4604Z" fill="#808080"/>
</g>
<g clip-path="url(#clip1_1_204)">
<path d="M13.8572 32.8758L29.1091 17.6239H18.0233L8.31433 27.324L13.8572 32.8758Z" fill="#2C5FA2"/>
<path d="M0 19.0096L18.0233 0.986328H29.1091L5.54289 24.5525L0 19.0096Z" fill="#2C5FA2"/>
<path d="M18.0233 37.033H29.1091L19.409 27.324L13.8661 32.8669L18.0233 37.033Z" fill="#2C5FA2"/>
<path d="M19.409 27.324L13.8661 32.8669L22.0911 30.015L19.409 27.324Z" fill="url(#paint2_linear_1_204)"/>
<path d="M8.31433 27.324L13.8572 21.7811L19.4001 27.324L13.8572 32.8758L8.31433 27.324Z" fill="#16B9FD"/>
<path d="M29.1091 17.6239L19.409 27.324L29.1091 37.033H18.0233L13.8572 32.8758L8.31433 27.3329L18.0233 17.6239H29.1091ZM18.0233 0.986328L0 19.0096L5.54289 24.5525L29.1091 0.986328H18.0233Z" fill="#2C5FA2"/>
<path d="M32.6226 10.6506H42.3405V12.5012H34.6609V18.2408H41.5985V20.0914H34.6609V27.315H32.712V10.6506H32.6226Z" fill="#2C5FA2"/>
<path d="M44.656 10.6506H46.596V27.4044H44.656V10.6506Z" fill="#2C5FA2"/>
<path d="M53.909 27.8067C53.2933 27.8369 52.6782 27.7371 52.1036 27.5137C51.5291 27.2904 51.008 26.9485 50.5744 26.5104C49.7857 25.5153 49.3911 24.2645 49.4658 22.997V15.4604H51.4058V22.684C51.352 23.5797 51.6146 24.4657 52.1478 25.1873C52.4237 25.4682 52.7559 25.6875 53.1227 25.8308C53.4894 25.9741 53.8823 26.0382 54.2756 26.0187C54.917 26.0404 55.5469 25.8451 56.0636 25.4644C56.5649 25.1101 56.963 24.6287 57.2169 24.0698C57.5114 23.4966 57.6704 22.8635 57.6818 22.2192V15.4604H59.6218V27.4044H57.798V25.6164H57.7086C57.3276 26.244 56.7839 26.7568 56.1351 27.1005C55.489 27.5706 54.7079 27.8184 53.909 27.8067V27.8067Z" fill="#2C5FA2"/>
<path d="M67.4176 27.5832C66.9422 27.5805 66.4717 27.4864 66.0319 27.3061C65.6602 27.1469 65.3162 26.9296 65.0127 26.6624C64.7144 26.3628 64.4641 26.0191 64.2707 25.6432C64.0685 25.2007 63.9735 24.7168 63.9935 24.2307V17.2216H61.8658V15.4336H63.9935V12.1257H65.9335V15.4604H68.8391V17.2484H65.9425V23.6943C65.8959 24.216 66.0249 24.7383 66.309 25.1783C66.4662 25.3663 66.6655 25.5144 66.8908 25.6108C67.116 25.7071 67.3609 25.7488 67.6053 25.7326C68.0657 25.7541 68.5206 25.6254 68.9016 25.3661V27.3061C68.6245 27.3955 68.4368 27.4938 68.1596 27.5832H67.4176Z" fill="#2C5FA2"/>
<path d="M75.8481 27.5832C75.3727 27.5805 74.9023 27.4864 74.4624 27.3061C74.0907 27.1469 73.7467 26.9296 73.4432 26.6624C73.145 26.3628 72.8947 26.0191 72.7012 25.6432C72.4959 25.2015 72.3979 24.7175 72.4151 24.2307V17.2216H70.4751V15.4336H72.6028V12.1257H74.5429V15.4604H77.4216V17.2484H74.5518V23.6943C74.5053 24.216 74.6343 24.7383 74.9183 25.1783C75.0755 25.3663 75.2748 25.5144 75.5001 25.6108C75.7254 25.7071 75.9702 25.7488 76.2147 25.7326C76.6751 25.7541 77.13 25.6254 77.511 25.3661V27.3061C77.2338 27.3955 77.0461 27.4938 76.769 27.5832H75.8481Z" fill="#2C5FA2"/>
<path d="M84.6363 27.8067C83.5539 27.7984 82.4952 27.4888 81.5788 26.9127C80.6926 26.3665 79.9603 25.6035 79.451 24.6956C78.9473 23.697 78.6811 22.5955 78.6732 21.4771C78.6771 20.3853 78.9309 19.3088 79.4153 18.3302C79.8873 17.398 80.5888 16.6011 81.4536 16.0147C82.1122 15.5916 82.8516 15.3101 83.6249 15.1883C84.3982 15.0664 85.1884 15.1069 85.9452 15.307C86.702 15.5071 87.4088 15.8626 88.0208 16.3507C88.6327 16.8389 89.1364 17.4491 89.4997 18.1424C89.9941 19.1174 90.2485 20.1963 90.2418 21.2894C90.2638 21.508 90.2331 21.7287 90.1524 21.9331H80.6579C80.707 22.7359 80.9265 23.5192 81.3016 24.2307C81.652 24.8263 82.1675 25.3076 82.7857 25.6164C83.3628 25.9004 83.9935 26.0589 84.6363 26.0813C85.3624 26.0909 86.0766 25.8966 86.6977 25.5205C87.3188 25.1443 87.8219 24.6014 88.1498 23.9535L89.8126 24.785C89.307 25.7217 88.5756 26.5176 87.6849 27.1005C86.7293 27.549 85.6826 27.7694 84.6274 27.7442L84.6363 27.8067ZM88.0604 20.2166C88.0466 19.6796 87.8925 19.1556 87.6134 18.6967C87.3143 18.1789 86.9017 17.7356 86.4064 17.4004C85.7997 17.0115 85.0882 16.818 84.3681 16.8461C83.9277 16.826 83.4878 16.8947 83.0746 17.0483C82.6614 17.2019 82.2834 17.4372 81.9632 17.7401C81.3 18.3938 80.8484 19.2317 80.6669 20.145L88.0604 20.2166Z" fill="#2C5FA2"/>
<path d="M92.5036 15.4604H94.3542V17.4004H94.4436C94.6898 16.7195 95.1849 16.1572 95.8293 15.827C96.4522 15.3918 97.1975 15.1663 97.9571 15.1833C98.4342 15.1675 98.9085 15.2623 99.3428 15.4604V17.5882C98.8323 17.3168 98.2573 17.1901 97.6799 17.2216C97.1234 17.2334 96.5801 17.394 96.1065 17.6865C95.6357 18.0494 95.2279 18.4873 94.8996 18.9828C94.6009 19.5319 94.4413 20.1458 94.4347 20.7709V27.4313H92.4947L92.5036 15.4604Z" fill="#2C5FA2"/>
</g>
<defs>
<linearGradient id="paint0_linear_1_204" x1="-1184.72" y1="-593.488" x2="-1184.72" y2="-593.488" gradientUnits="userSpaceOnUse">
<stop stop-color="#1A237E" stop-opacity="0.4"/>
<stop offset="1" stop-color="#1A237E" stop-opacity="0"/>
</linearGradient>
<radialGradient id="paint1_radial_1_204" cx="0" cy="0" r="1" gradientUnits="userSpaceOnUse" gradientTransform="translate(-1184.72 -593.488) scale(0)">
<stop stop-color="white" stop-opacity="0.1"/>
<stop offset="1" stop-color="white" stop-opacity="0"/>
</radialGradient>
<linearGradient id="paint2_linear_1_204" x1="-1184.72" y1="-593.488" x2="-1184.72" y2="-593.488" gradientUnits="userSpaceOnUse">
<stop stop-color="#1A237E" stop-opacity="0.4"/>
<stop offset="1" stop-color="#1A237E" stop-opacity="0"/>
</linearGradient>
<clipPath id="clip0_1_204">
<rect width="99.3517" height="36.0466" fill="white" transform="translate(0 0.986328)"/>
</clipPath>
<clipPath id="clip1_1_204">
<rect width="99.3517" height="36.0466" fill="white" transform="translate(0 0.986328)"/>
</clipPath>
</defs>
</svg>
