<svg width="72" height="72" viewBox="0 0 72 72" fill="none" xmlns="http://www.w3.org/2000/svg">
<path d="M36.0002 72C35.6423 72 35.286 71.9937 34.9302 71.9833L42.2875 51.7637H52.4126C54.1898 51.7637 56.1406 50.3975 56.7484 48.7283L64.7301 26.804C66.0361 23.2145 63.9801 20.2778 60.1606 20.2778H46.1139L34.3285 52.6638H34.324L27.6423 71.0227C11.7907 67.2543 0 53.0047 0 36C0 19.4858 11.1201 5.57 26.2806 1.329L19.3864 20.2778H19.3844L7.92337 51.7637L15.5529 51.7643L25.2996 25.0093H31.0338L21.2871 51.7643L28.9138 51.7657L37.9968 26.804C39.3035 23.2145 37.2473 20.2778 33.4313 20.2778H27.018L34.3818 0.0378333C34.9185 0.014 35.4575 0 35.9998 0C55.8823 0 72 16.1177 72 36C72 55.8822 55.8823 72 35.9998 72H36.0002ZM57.7823 24.99H52.0497L44.0219 47.0163H49.7546L57.7823 24.99Z" fill="#2C5FA2"/>
</svg>
