<svg width="148" height="59" viewBox="0 0 148 59" fill="none" xmlns="http://www.w3.org/2000/svg">
<path d="M0.136719 0V4.03663H28.75V0H0.136719ZM32.804 0V4.03663H73.5793C73.5793 4.03663 69.4143 0 63.898 0H32.804ZM81.5782 0V4.03663H106.247L104.782 0H81.5782ZM123.933 0L122.468 4.03663H146.913V0H123.933ZM0.136719 7.85028V11.8869H28.75V7.85028H0.136719ZM32.804 7.85599V11.8869H78.3109C78.3109 11.8869 77.7794 8.78014 76.8523 7.85599H32.804ZM81.5782 7.85599V11.8869H108.951L107.596 7.85599H81.5782ZM121.004 7.85599L119.649 11.8869H146.913V7.85599H121.004ZM8.35953 15.7006V19.7429H20.7512V15.7006H8.35953ZM41.0268 15.7006V19.7429H53.4185V15.7006H41.0268ZM65.4713 15.7006V19.7429H77.863C77.863 19.7429 78.6496 17.6081 78.6496 15.7006H65.4713ZM89.801 15.7006V19.7429H111.771L110.306 15.7006H89.801ZM118.305 15.7006L116.835 19.7429H138.914V15.7006H118.305ZM8.35953 23.5565V27.5932H20.7512V23.5565H8.35953ZM41.0268 23.5565V27.5932H72.6778C72.6778 27.5932 75.3254 25.5219 76.169 23.5565H41.0268ZM89.801 23.5565V27.5932H102.193V25.3462L102.979 27.5932H125.678L126.522 25.3462V27.5932H138.914V23.5565H115.652L114.418 26.9757L113.177 23.5565H89.801ZM8.35953 31.4068V35.4434H20.7512V31.4068H8.35953ZM41.0268 31.4068V35.4434H76.169C75.3252 33.4845 72.6778 31.4068 72.6778 31.4068H41.0268ZM89.801 31.4068V35.4434H102.193V31.4068H89.801ZM104.444 31.4068L105.942 35.4434H122.962L124.386 31.4068H104.444ZM126.522 31.4068V35.4434H138.914V31.4068H126.522ZM8.35953 39.2571V43.2937H20.7512V39.2571H8.35953ZM41.0268 39.2571V43.2937H53.4185V39.2571H41.0268ZM65.4713 39.2571V43.2937H78.6496C78.6497 41.3887 77.863 39.2571 77.863 39.2571H65.4713ZM89.801 39.2571V43.2937H102.193V39.2571H89.801ZM107.257 39.2571L108.71 43.2937H120.12L121.584 39.2571H107.257ZM126.522 39.2571V43.2937H138.914V39.2571H126.522ZM0.360663 47.1074V51.1497H28.974V47.1074H0.360663ZM32.804 47.1074V51.1497H76.8523C77.7794 50.2241 78.3109 47.1074 78.3109 47.1074H32.804ZM81.8021 47.1074V51.1497H102.193V47.1074H81.8021ZM110.077 47.1074L111.57 51.1497H117.375L118.776 47.1074H110.077ZM126.522 47.1074V51.1497H147.137V47.1074H126.522ZM0.360663 54.9634V59H28.974V54.9634H0.360663ZM32.804 54.9634V58.9943H63.898C69.4143 58.9943 73.5793 54.9634 73.5793 54.9634H32.804ZM81.8021 54.9634V59H102.193V54.9634H81.8021ZM112.908 54.9634L114.343 58.9886L114.59 58.9943L116.049 54.9634H112.908ZM126.522 54.9634V59H147.137V54.9634H126.522Z" fill="#2C5FA2"/>
</svg>
