<svg width="63" height="31" viewBox="0 0 63 31" fill="none" xmlns="http://www.w3.org/2000/svg">
<g clip-path="url(#clip0_1_247)">
<path d="M0.983354 30.4435H6.02541V9.11138H0.983354V30.4435V30.4435ZM3.49427 6.31387C5.07372 6.31387 6.30891 5.10636 6.30891 3.59705C6.30891 2.06754 5.07372 0.860077 3.49427 0.860077C1.9351 0.860077 0.699905 2.06759 0.699905 3.59705C0.699905 5.10641 1.9351 6.31387 3.49427 6.31387ZM22.8127 0.920303C14.2879 0.920303 8.9419 6.69615 8.9419 15.9336C8.9419 25.171 14.2874 30.9268 22.8127 30.9268C31.3172 30.9268 36.6632 25.171 36.6632 15.9336C36.6632 6.69615 31.3177 0.920303 22.8127 0.920303V0.920303ZM22.8127 5.34778C28.0166 5.34778 31.3374 9.45326 31.3374 15.9335C31.3374 22.3935 28.0165 26.4991 22.8127 26.4991C17.5884 26.4991 14.2879 22.3936 14.2879 15.9335C14.2879 9.45336 17.5885 5.34778 22.8127 5.34778ZM38.7901 22.2729C39.0128 27.6263 43.4271 30.9267 50.1498 30.9267C57.2169 30.9267 61.6718 27.4652 61.6718 21.9509C61.6718 17.6241 59.1609 15.189 53.228 13.8408L49.8666 13.076C46.2825 12.2308 44.8043 11.1038 44.8043 9.17181C44.8043 6.75684 47.0317 5.14685 50.3323 5.14685C53.6734 5.14685 55.9614 6.77698 56.2045 9.49381H61.1858C61.0643 4.3821 56.812 0.920458 50.3729 0.920458C44.0145 0.920458 39.4989 4.40204 39.4989 9.55408C39.4989 13.6998 42.0503 16.2758 47.4363 17.5035L51.2229 18.389C54.9083 19.2544 56.4067 20.4619 56.4067 22.5549C56.4067 24.9698 53.9565 26.7006 50.4334 26.7006C46.8696 26.7006 44.1766 24.9497 43.8526 22.2731H38.7904L38.7901 22.2729Z" fill="#002575"/>
</g>
<g clip-path="url(#clip1_1_247)">
<path d="M0.983354 30.4435H6.02541V9.11138H0.983354V30.4435V30.4435ZM3.49427 6.31387C5.07372 6.31387 6.30891 5.10636 6.30891 3.59705C6.30891 2.06754 5.07372 0.860077 3.49427 0.860077C1.9351 0.860077 0.699905 2.06759 0.699905 3.59705C0.699905 5.10641 1.9351 6.31387 3.49427 6.31387ZM22.8127 0.920303C14.2879 0.920303 8.9419 6.69615 8.9419 15.9336C8.9419 25.171 14.2874 30.9268 22.8127 30.9268C31.3172 30.9268 36.6632 25.171 36.6632 15.9336C36.6632 6.69615 31.3177 0.920303 22.8127 0.920303V0.920303ZM22.8127 5.34778C28.0166 5.34778 31.3374 9.45326 31.3374 15.9335C31.3374 22.3935 28.0165 26.4991 22.8127 26.4991C17.5884 26.4991 14.2879 22.3936 14.2879 15.9335C14.2879 9.45336 17.5885 5.34778 22.8127 5.34778ZM38.7901 22.2729C39.0128 27.6263 43.4271 30.9267 50.1498 30.9267C57.2169 30.9267 61.6718 27.4652 61.6718 21.9509C61.6718 17.6241 59.1609 15.189 53.228 13.8408L49.8666 13.076C46.2825 12.2308 44.8043 11.1038 44.8043 9.17181C44.8043 6.75684 47.0317 5.14685 50.3323 5.14685C53.6734 5.14685 55.9614 6.77698 56.2045 9.49381H61.1858C61.0643 4.3821 56.812 0.920458 50.3729 0.920458C44.0145 0.920458 39.4989 4.40204 39.4989 9.55408C39.4989 13.6998 42.0503 16.2758 47.4363 17.5035L51.2229 18.389C54.9083 19.2544 56.4067 20.4619 56.4067 22.5549C56.4067 24.9698 53.9565 26.7006 50.4334 26.7006C46.8696 26.7006 44.1766 24.9497 43.8526 22.2731H38.7904L38.7901 22.2729Z" fill="#2C5FA2"/>
</g>
<defs>
<clipPath id="clip0_1_247">
<rect width="61.6869" height="30.3965" fill="white" transform="translate(0.351562 0.562256)"/>
</clipPath>
<clipPath id="clip1_1_247">
<rect width="61.6869" height="30.3965" fill="white" transform="translate(0.351562 0.562256)"/>
</clipPath>
</defs>
</svg>
