<?xml version="1.0" encoding="utf-8"?>
<!-- Generator: Adobe Illustrator 21.0.2, SVG Export Plug-In . SVG Version: 6.00 Build 0)  -->
<svg version="1.1" id="Layer_1" xmlns="http://www.w3.org/2000/svg" xmlns:xlink="http://www.w3.org/1999/xlink" x="0px" y="0px"
	 viewBox="0 0 185.6 49" style="enable-background:new 0 0 185.6 49;" xml:space="preserve">
<style type="text/css">
	.st0{fill:#5D9ED6;}
</style>
<g id="Layer_2" transform="translate(23.995 0.016)">
	<g id="UDT_logo_Image" transform="translate(-23.995 -0.016)">
		<path id="Path_43" d="M153.5,16.2c-0.4,2.7-0.8,5.4-1.3,8.1c-0.2,0.8,0.2,2.1-1.4,2.1c-1.5,0-1.2-1.2-1.3-2
			c-0.4-2.6-0.9-5.3-1.6-7.8v8.1c0,0.8,0.3,1.8-1.2,1.7c-1.3,0-1.1-0.8-1.1-1.6V11.7c0-0.9,0-1.7,1.2-1.5c1,0.2,2.5-0.8,2.7,1.3
			c0.3,3,0.8,6,1.6,9c0.4-2.8,1-5.5,1.2-8.3c0.1-2.2,1.3-2,2.8-2c2,0,1.2,1.4,1.2,2.3c0.1,4.1,0,8.2,0,12.3c0,0.9,0.1,1.7-1.3,1.7
			c-1.5,0-1.2-0.9-1.2-1.7v-8.5L153.5,16.2z"/>
		<path id="Path_44" d="M83.4,17.4c0-2,0-4,0-6c0-0.9,0.2-1.3,1.2-1.3s1.2,0.5,1.2,1.4V25c0,0.7,0,1.4-1,1.3c-0.8-0.1-1.7,0.3-2-1
			c-0.7-3.1-1.6-6.2-2.8-9.2v8.7c0,0.9,0.1,1.5-1.2,1.5s-1.2-0.8-1.2-1.6V11.7c0-0.7-0.2-1.6,1-1.5c0.9,0.1,2.2-0.7,2.6,1
			c0.4,2.1,1.1,4.1,1.6,6.1L83.4,17.4z"/>
		<path id="Path_45" d="M173.5,17.4v-5.9c0-0.8,0-1.4,1.1-1.4c1,0,1.3,0.4,1.2,1.3c0,4.5,0,9,0,13.5c0,0.6,0.2,1.4-0.9,1.4
			c-0.9,0-1.8,0.3-2.1-1.1c-0.6-2.8-1.4-5.6-2.1-8.4c-0.1-0.3-0.3-0.6-0.6-0.7v8.8c0,0.8,0,1.4-1.1,1.4c-1,0-1.3-0.4-1.2-1.3
			c0-4.5,0-9,0-13.5c0-0.7-0.1-1.5,0.9-1.3c0.9,0.1,2.2-0.7,2.6,1c0.5,2.1,1.1,4.2,1.7,6.3L173.5,17.4z"/>
		<path id="Path_46" d="M109,18.3c0-2.2,0.1-4.4,0-6.6c0-1.2,0.4-1.6,1.5-1.4c0.1,0,0.1,0,0.2,0c5.5-0.1,6.2,0.6,6.2,6.1
			c0,2.1,0.1,4.1-0.1,6.2c-0.2,2.7-1.3,3.7-3.9,3.7c-3.9,0.1-3.9,0.1-3.9-3.8L109,18.3z M114.2,18.2L114.2,18.2v-4.4
			c0-1-0.6-1.1-1.5-1.2c-1,0-1,0.6-1,1.3v8.4c0,0.8-0.3,1.6,1.1,1.6c1.2,0,1.4-0.7,1.4-1.7C114.1,20.9,114.1,19.5,114.2,18.2
			L114.2,18.2z"/>
		<path id="Path_47" d="M122.2,18.2v-6.6c0-0.5-0.3-1.4,0.7-1.4c1.7,0,3.3-0.3,5,0.2c1.3,0.4,2.2,1.7,2.1,3.1c0.1,3.1,0.1,6.1,0,9.2
			c-0.1,2.5-1.4,3.5-3.9,3.5c-3.9,0.1-3.9,0.1-3.9-3.7L122.2,18.2z M127.4,18.3v-4.2c0-1-0.4-1.4-1.5-1.4c-1.2,0-1,0.7-1,1.4v8.4
			c0,0.7-0.2,1.5,1,1.4c1,0,1.5-0.4,1.5-1.4C127.4,21.1,127.4,19.7,127.4,18.3L127.4,18.3z"/>
		<path id="Path_48" d="M177.7,18.3c0-2.3,0-4.5,0-6.8c0-0.9,0.3-1.4,1.2-1.3c0.1,0,0.3,0,0.4,0c5.6-0.1,6.3,0.6,6.3,6.1
			c0,2.1,0.1,4.3-0.1,6.4c-0.2,2.5-1.4,3.5-3.9,3.6c-3.9,0.1-3.9,0.1-3.9-3.8L177.7,18.3z M180.4,18.2c0,1.4,0,2.8,0,4.2
			c0,0.7-0.3,1.5,1,1.5c1,0,1.5-0.3,1.5-1.3v-8.6c0-1.1-0.6-1.3-1.6-1.3c-1.1,0-0.9,0.7-0.9,1.3C180.4,15.4,180.4,16.8,180.4,18.2
			L180.4,18.2z"/>
		<path id="Path_49" d="M165.6,18.3c0,1.7,0.1,3.3,0,5c-0.2,2.1-1.6,3.2-3.9,3.2s-3.7-1.2-3.7-3.3c-0.1-3.3-0.1-6.5,0-9.8
			c0.1-2.1,1.5-3.3,3.7-3.4c2.3,0,3.7,1.1,3.9,3.3C165.7,15,165.6,16.7,165.6,18.3L165.6,18.3z M160.4,18.1v4.4
			c0,0.9,0.3,1.6,1.3,1.6s1.4-0.6,1.4-1.6v-8.6c0-0.9-0.4-1.6-1.4-1.5c-0.9,0-1.3,0.7-1.3,1.5C160.4,15.3,160.4,16.7,160.4,18.1z"/>
		<path id="Path_50" d="M76,17.3c0,1.9,0.1,3.8,0,5.6c0.1,1.9-1.3,3.5-3.2,3.5c-0.1,0-0.2,0-0.3,0c-2.3,0.1-3.9-1-4-3.3
			c-0.2-4-0.1-8-0.1-12c0-1.1,0.6-0.9,1.3-1c0.9-0.1,1.3,0.2,1.3,1.2c0,3.1,0,6.3,0,9.4v1.6c0.1,0.8,0.2,1.6,1.3,1.6
			s1.3-0.8,1.3-1.6V12c0-0.9-0.3-1.9,1.3-1.8c1.5,0,1.2,0.9,1.2,1.7L76,17.3L76,17.3z"/>
		<path id="Path_51" d="M144.3,25.3c0.2,0.5,0.2,1.1-0.8,1c-0.7-0.1-1.6,0.4-1.8-0.9c-0.1-0.8,0.4-2.3-1.4-2.3c-1.3,0-2,0.3-2,1.7
			c0,0.9-0.1,1.7-1.4,1.6c-0.9-0.1-1.2-0.2-1-1.2c0.8-4.7,1.6-9.4,2.3-14c0.3-1.6,1.4-0.8,2.2-0.9s1.5,0,1.7,1.1
			C142.8,15.9,143.6,20.5,144.3,25.3z M140.1,13.8h-0.2c-0.3,1.9-0.6,3.8-0.9,5.7c-0.1,0.8,0,1.2,1,1.3c1.2,0,1.1-0.6,1-1.4
			C140.7,17.5,140.4,15.6,140.1,13.8L140.1,13.8z"/>
		<path id="Path_52" d="M104.2,10.2c0.7,0,1.5,0,2.2,0c0.9-0.1,1.3,0.2,1.3,1.2s-0.3,1.4-1.3,1.2c-0.3,0-0.5,0-0.8,0
			c-2.3,0-3.2,1.3-2.4,3.5c0.3,0.9,1,0.4,1.5,0.5c0.9,0.2,2.1-0.5,2.1,1.3c0,1.7-1.2,1.2-2,1.1c-1.3-0.1-1.8,0.3-1.7,1.7
			c0.1,0.6,0.1,1.2,0,1.8c-0.1,1,0.2,1.5,1.3,1.4c0.7-0.1,1.5,0,2.2,0c1.1-0.1,0.9,0.7,0.9,1.3s-0.1,1.2-1,1.1h-0.6
			c-1.8-0.1-4.1,0.7-5.2-0.4c-1.1-1-0.3-3.3-0.3-5c0-2.8,0.1-5.6,0-8.4c-0.1-1.8,0.4-2.6,2.3-2.3C103.2,10.2,103.7,10.2,104.2,10.2z
			"/>
		<path id="Path_53" d="M94.1,19.4c0-1.8,0-3.6,0-5.4c0-1-0.2-1.5-1.3-1.4s-1.3-0.3-1.4-1.3c0-1.1,0.6-1.1,1.4-1.1
			c1.8,0,3.6,0,5.4,0c0.8,0,1.2,0.2,1.2,1.1s-0.1,1.5-1.2,1.3c-1.5-0.3-1.6,0.6-1.5,1.8c0,3.5,0,7,0,10.5c0,1.1-0.2,1.5-1.4,1.5
			s-1.3-0.6-1.3-1.5C94.1,23,94.1,21.2,94.1,19.4z"/>
		<path id="Path_54" d="M90.3,18.3c0,2.3,0,4.5,0,6.8c0,1-0.3,1.3-1.3,1.3s-1.5-0.2-1.4-1.3c0.1-4.5,0-9.1,0-13.6
			c0-1,0.3-1.3,1.3-1.3s1.5,0.2,1.4,1.3C90.3,13.7,90.3,16,90.3,18.3z"/>
		<path id="Path_55" d="M134.6,18.5c0,2.2,0,4.4,0,6.6c0,0.9-0.3,1.3-1.3,1.3s-1.5-0.1-1.5-1.3c0.1-4.5,0.1-9.1,0-13.6
			c0-1.2,0.5-1.3,1.5-1.3s1.3,0.3,1.2,1.3C134.5,13.8,134.6,16.1,134.6,18.5z"/>
		<path id="Path_56" d="M115.7,38.7v-5.5c0-0.3,0.1-0.5,0.4-0.5c0.3,0,0.7,0.1,0.8,0.5c0.7,1.2,1.4,2.3,2.5,4.1l0.2-4.6l0.7,0
			c0.1,1.9,0.1,3.7-0.1,5.6c-0.1,0.9-0.9,0.5-1.2-0.1c-0.7-1.2-1.6-2.4-2.6-3.4v3.9L115.7,38.7z"/>
		<path id="Path_57" d="M153.3,35.8c0.1,1.5-1,2.9-2.6,3c-0.1,0-0.2,0-0.3,0c-1.7-0.1-3-1.5-3-3.1c0.1-1.7,1.4-3,3.1-3
			c1.6,0.1,2.8,1.4,2.7,2.9C153.3,35.7,153.3,35.7,153.3,35.8z M152.4,35.8c-0.1-1.2-0.5-2.2-2-2.2c-1.3,0-1.9,0.8-1.9,2.1
			c0,1.3,0.5,2.2,1.9,2.2C151.8,37.9,152.3,37,152.4,35.8z"/>
		<path id="Path_58" d="M129.3,32.7c1.6,0,2.8,1.2,2.9,2.8c0,0.1,0,0.2,0,0.3c0.1,1.6-1.2,2.9-2.7,2.9c-1.6,0.1-2.9-1.2-2.9-2.7
			c0-0.1,0-0.3,0-0.4c-0.1-1.5,1-2.8,2.6-2.9C129.2,32.7,129.3,32.7,129.3,32.7z M131.4,35.6c-0.3-1.1-0.7-2.1-2.2-2
			c-1.4,0.1-1.9,1.1-1.8,2.4c-0.1,1,0.7,1.9,1.7,2c0.1,0,0.2,0,0.3,0C130.8,37.9,131.2,36.9,131.4,35.6z"/>
		<path id="Path_59" d="M88.1,38.5c-1.9,0.3-4.1,0.7-4.4,0c-0.6-1.6-0.2-3.6-0.2-5.5c0-0.4,2.2-0.4,4.1,0c-0.7,0.9-1.6,0.4-2.4,0.5
			c-0.6,0.1-1,0-1,0.8s0.5,0.8,1,0.8c0.8-0.1,1.5,0,2.2,0.3c-0.7,0.7-1.5,0.5-2.1,0.5c-0.8,0-1.2,0.2-1.2,1.1s0.4,0.9,1.1,0.9
			C86.3,37.8,87.3,38,88.1,38.5z"/>
		<path id="Path_60" d="M98.6,35.2c-1.2-0.9-1.8-2.1-3.1-1.4c-0.7,0.4-1.1,1.2-1,2c-0.1,0.9,0.4,1.8,1.3,2.1c0.7,0.3,1.5,0,1.8-0.7
			c0-0.1,0.1-0.1,0.1-0.2c0.1-0.3,0.3-0.7,0.7-0.5c0.6,0.2,0.2,0.7,0.1,1c-0.3,1-1.4,1.6-2.4,1.4c-1.4-0.1-2.5-1.3-2.4-2.7
			c0-0.1,0-0.1,0-0.2c0-1.5,0.5-2.9,2.2-3.1C97.2,32.5,98.2,33,98.6,35.2z"/>
		<path id="Path_61" d="M163.2,38.3c-1.9,0.9-3,0.5-3.7-1.1s-0.2-3.7,1.4-4.3s2.8-0.3,3.7,1.7c-1.5-0.6-2.8-2.1-4.1-0.3
			c-0.6,0.8-0.6,1.8,0,2.6c0.7,1.1,1.7,1.1,2.8,0.6C163.2,37.8,163.2,38.1,163.2,38.3z"/>
		<path id="Path_62" d="M109.1,39c-1.1-1.1,0.5-3.4-2.3-3.1c-2.4,0.3-0.3,2.2-1.7,2.9v-6.4c0.9,1.1-0.1,3.1,2.3,2.9
			c2-0.2,0.4-2,1.7-2.5V39z"/>
		<path id="Path_63" d="M170.4,32.8c1,0.6,1.9,1.4,2.5,2.4c1-0.6,0.7-2.3,2.5-2.5c-0.9,2-2.4,3.6-2.1,5.7c0,0.1-0.3,0.3-0.4,0.3
			c-0.2,0-0.4-0.2-0.5-0.4c0,0,0-0.1,0-0.1C172.9,36.1,171.3,34.6,170.4,32.8z"/>
		<path id="Path_64" d="M142,38.3c-2.9,1.2-3.7,0.7-3.7-2.1v-3.4c1.2,0.9,0.9,2.1,0.8,3.1c-0.2,1.7,0.4,2.4,2.1,2.1
			C141.5,37.9,141.9,38,142,38.3L142,38.3z"/>
		<path id="Path_65" d="M74.9,38.9c-0.3-0.9-0.4-1.9-0.3-2.8c0-1.4,0.3-3-2.1-3c1.6-0.5,3.3-0.5,4.9-0.1
			C73.5,33.8,76.6,37.1,74.9,38.9z"/>
		<path id="Path_66" d="M163.2,38.3v-0.7c1.6-2-1.1-0.8-1.2-1.8c0.6-0.6,1.5-0.6,2.2-0.2c0.7,0.6,0.4,1.8,0.2,2.7
			S163.6,37.8,163.2,38.3z"/>
		<path id="Path_67" d="M31.4,49c-1.7-2-3.4-4-5.1-6C17.6,32.8,8.9,22.6,0.3,12.5c-0.4-0.4-0.4-0.7,0-1.1c3.3-3.6,6.5-7.2,9.8-10.8
			C10.4,0.2,10.8,0,11.3,0h40.2c0.4,0,0.8,0.1,1.1,0.4c3.3,3.7,6.6,7.4,9.9,11c0.3,0.3,0.3,0.5,0,0.9C52.2,24.4,42,36.5,31.7,48.7
			C31.6,48.8,31.5,48.9,31.4,49z M31.4,45.5l0.2-0.2c9.2-10.9,18.5-21.8,27.8-32.6c0.5-0.6,0.4-0.9,0-1.4c-2.6-2.8-5.1-5.6-7.6-8.4
			c-0.3-0.4-0.7-0.6-1.2-0.6c-12.7,0-25.5,0-38.2,0c-0.4,0-0.9,0.2-1.1,0.5c-2.6,2.9-5.2,5.8-7.8,8.6c-0.4,0.4-0.5,0.6,0,1.1
			c5.2,6.1,10.5,12.3,15.7,18.4C23.1,35.8,27.2,40.6,31.4,45.5L31.4,45.5z"/>
		<path id="Path_68" class="st0" d="M31.3,3.1c6.2,0,12.5,0,18.7,0c0.3,0,0.5,0.1,0.7,0.3c2.4,2.8,4.9,5.6,7.4,8.3
			c0,0.1,0.1,0.1,0.1,0.2c-0.3,0.1-0.6,0.2-0.9,0.1c-6,0-12.1-0.1-18.1-0.1c-0.7,0-0.9,0.2-1,0.8c-2.1,10-4.2,20-6.3,30.1
			c-0.1,0.5-0.2,1-0.4,1.6c-0.2-0.2-0.3-0.5-0.3-0.8c0.2-0.2,0.1-0.5,0.1-0.8C31.3,29.6,31.3,16.4,31.3,3.1z"/>
		<path id="Path_69" d="M31.3,3.1v39.7c0,0.3,0.1,0.6-0.1,0.8c-2.2-10.3-4.4-20.7-6.5-31c-0.1-0.6-0.3-0.7-0.9-0.7
			c-6.3,0-12.7,0-19.1,0c-0.1-0.2,0.2-0.3,0.3-0.5c2.3-2.7,4.7-5.3,7-8c0.2-0.3,0.5-0.4,0.8-0.4C18.9,3.1,25.1,3.1,31.3,3.1z"/>
	</g>
</g>
</svg>
