<svg width="120" height="121" viewBox="0 0 120 121" fill="none" xmlns="http://www.w3.org/2000/svg">
<path d="M90.7022 120.073C84.4402 120.073 77.8456 118.577 71.0293 115.695C64.3793 112.869 57.6739 108.989 51.1347 104.279C44.651 99.5132 38.3889 94.1933 32.4593 88.3745C26.5852 82.4449 21.2652 76.1828 16.5547 69.7545C11.7889 63.1045 7.96516 56.4545 5.24975 50.0262C2.36808 43.1545 0.927246 36.5045 0.927246 30.2424C0.927246 25.9199 1.70308 21.8191 3.19933 17.9953C4.751 14.0608 7.24475 10.4033 10.6252 7.2445C14.8922 3.03284 19.7689 0.927002 24.9781 0.927002C27.1393 0.927002 29.356 1.42575 31.2402 2.31242C33.4014 3.30992 35.2302 4.80617 36.5602 6.80117L49.4168 24.9224C50.5806 26.5295 51.4672 28.0812 52.0768 29.6328C52.7972 31.2953 53.1852 32.9578 53.1852 34.5649C53.1852 36.6708 52.5756 38.7212 51.4118 40.6608C50.5806 42.157 49.306 43.7641 47.6989 45.3712L43.9306 49.3057C43.986 49.472 44.0414 49.5828 44.0968 49.6937C44.7618 50.8574 46.0918 52.8524 48.641 55.8449C51.3564 58.9482 53.9056 61.7745 56.4547 64.3791C59.7243 67.5932 62.4397 70.1424 64.9889 72.2483C68.1477 74.9082 70.1981 76.2383 71.4172 76.8478L71.3064 77.1249L75.3518 73.1349C77.0697 71.417 78.7322 70.1424 80.3393 69.3112C83.3872 67.427 87.2664 67.0945 91.1456 68.7016C92.5864 69.3112 94.1381 70.1424 95.8006 71.3062L114.199 84.3845C116.249 85.7699 117.746 87.5433 118.632 89.6491C119.463 91.7549 119.851 93.6945 119.851 95.6341C119.851 98.2941 119.242 100.954 118.078 103.448C116.914 105.942 115.473 108.103 113.645 110.098C110.486 113.589 107.05 116.083 103.06 117.69C99.2364 119.242 95.0802 120.073 90.7022 120.073ZM24.9781 9.2395C21.9302 9.2395 19.1039 10.5695 16.3885 13.2295C13.8393 15.6124 12.066 18.217 10.9577 21.0433C9.79391 23.9249 9.23975 26.9728 9.23975 30.2424C9.23975 35.3962 10.4589 40.9933 12.8972 46.7566C15.391 52.6308 18.8822 58.7266 23.3156 64.8224C27.7489 70.9183 32.7918 76.8478 38.3335 82.4449C43.8752 87.9312 49.8602 93.0295 56.0114 97.5182C61.9964 101.896 68.1477 105.443 74.2435 107.992C83.7197 112.037 92.5864 112.979 99.9014 109.932C102.728 108.768 105.221 106.994 107.493 104.445C108.768 103.06 109.766 101.564 110.597 99.7903C111.262 98.4049 111.594 96.9641 111.594 95.5232C111.594 94.6366 111.428 93.7499 110.985 92.7524C110.818 92.4199 110.486 91.8103 109.433 91.0899L91.0347 78.0116C89.9264 77.2357 88.9289 76.6816 87.9868 76.2937C86.7677 75.7949 86.2689 75.2962 84.3847 76.4599C83.2764 77.0141 82.2789 77.8453 81.1706 78.9537L76.9589 83.1099C74.7977 85.2158 71.4727 85.7145 68.9235 84.7724L67.4272 84.1074C65.1552 82.8883 62.4952 81.0041 59.5581 78.5103C56.8981 76.2383 54.0164 73.5782 50.5252 70.1424C47.8097 67.3716 45.0943 64.4345 42.2681 61.1649C39.6635 58.117 37.7793 55.5124 36.6156 53.3512L35.9506 51.6887C35.6181 50.4141 35.5072 49.6937 35.5072 48.9178C35.5072 46.9228 36.2277 45.1495 37.6131 43.7641L41.7693 39.4416C42.8777 38.3332 43.7089 37.2803 44.2631 36.3382C44.7064 35.6178 44.8727 35.0083 44.8727 34.4541C44.8727 34.0108 44.7064 33.3458 44.4293 32.6808C44.0414 31.7941 43.4318 30.7966 42.656 29.7437L29.7993 11.567C29.2452 10.7912 28.5802 10.237 27.7489 9.84908C26.8622 9.46117 25.9202 9.2395 24.9781 9.2395ZM71.3064 77.1803L70.4197 80.9487L71.916 77.0695C71.6389 77.0141 71.4172 77.0695 71.3064 77.1803Z" fill="#70AEE2"/>
</svg>
