<svg width="146" height="50" viewBox="0 0 146 50" fill="none" xmlns="http://www.w3.org/2000/svg">
<g clip-path="url(#clip0_1_328)">
<path fill-rule="evenodd" clip-rule="evenodd" d="M0 0H49.6807V50H0V0ZM5.16871 44.8045H44.512V5.19553H5.16871V44.8045ZM14.7017 12.905V28.0074C14.7017 31.8063 16.2921 34.1061 19.8704 34.1061C23.2453 34.1061 24.9374 31.9088 24.9374 28.0074V12.905H30.1061V28.0074C30.1061 34.9069 26.3244 39.013 19.7687 39.013C13.4165 39.013 9.63471 34.9069 9.63471 28.0074V12.905H14.7017ZM36.7635 16.0056C35.0067 16.0056 33.5828 14.5996 33.5828 12.8585C33.5828 11.1173 35.0067 9.71136 36.7635 9.71136C38.5203 9.71136 39.9443 11.1173 39.9443 12.8585C39.9443 14.5996 38.5203 16.0056 36.7635 16.0056ZM34.1745 18.4078H39.3433V38.7058H34.1745V18.4078ZM64.9742 30.5121H60.4065V38.8082H55.2377V12.9143H64.9742C70.6422 12.9143 74.2205 16.3128 74.2205 21.6108C74.2205 27.1136 70.5405 30.4097 64.9742 30.4097V30.5121ZM68.9501 21.6108C68.9501 18.8175 67.3597 17.1136 64.3824 17.1136H60.3047V26.3128H64.3824C67.3597 26.3128 68.9501 24.6089 68.9501 21.6108ZM85.2422 18.2123C88.4229 18.2123 90.5126 19.5158 91.8071 21.6108V18.4171H96.9666V38.8175H91.8071V35.9125C90.6143 37.8119 88.5246 39.013 85.2422 39.013C79.7776 39.013 75.9034 34.7114 75.9034 28.6127C75.9034 22.6164 79.6851 18.2123 85.2422 18.2123ZM91.8071 28.5661C91.8071 25.3259 89.4308 22.7095 86.4904 22.7095C83.5501 22.7095 81.1738 25.3259 81.1738 28.5661C81.1738 31.797 83.5501 34.4134 86.4904 34.4134C89.4308 34.4134 91.8071 31.797 91.8071 28.5661ZM111.973 34.311V38.7151H109.292C104.327 38.7151 102.237 36.4153 102.237 31.6108V22.8119H99.8514V18.4171H102.237V12.8119H107.406V18.4171H111.872V22.8119H107.406V31.6108C107.406 33.4171 107.896 34.311 109.884 34.311H111.973ZM125.982 18.2123C130.753 18.2123 134.525 21.7132 134.525 27.0112V38.7151H129.366V27.514C129.366 24.4134 127.775 22.4115 124.789 22.4115C121.71 22.4115 119.925 24.5158 119.925 28.0168V38.8175H114.757V11.7132H119.925V21.3128C121.118 19.311 123.004 18.2123 125.982 18.2123ZM138.399 11.6108V12.4115H136.818V17.6164H135.82V12.4115H134.128V11.6108H138.399ZM145.954 11.6108V17.6164H145.057V13.0168L143.171 17.6164H142.477L140.489 13.0168V17.6164H139.592V11.6108H140.785L142.773 16.4153L144.863 11.6108H145.954Z" fill="#2C5FA2"/>
</g>
<defs>
<clipPath id="clip0_1_328">
<rect width="146" height="50" fill="white"/>
</clipPath>
</defs>
</svg>
