<svg width="20" height="20" viewBox="0 0 20 20" fill="none" xmlns="http://www.w3.org/2000/svg">
<path d="M14.5417 18.9583C13.6 18.9583 12.6083 18.7333 11.5833 18.3C10.5833 17.875 9.575 17.2917 8.59166 16.5833C7.61666 15.8667 6.675 15.0667 5.78333 14.1917C4.9 13.3 4.1 12.3583 3.39166 11.3917C2.675 10.3917 2.1 9.39167 1.69166 8.425C1.25833 7.39167 1.04166 6.39167 1.04166 5.45C1.04166 4.8 1.15833 4.18333 1.38333 3.60833C1.61666 3.01667 1.99166 2.46667 2.5 1.99167C3.14166 1.35833 3.875 1.04167 4.65833 1.04167C4.98333 1.04167 5.31666 1.11667 5.6 1.25C5.925 1.4 6.2 1.625 6.4 1.925L8.33333 4.65C8.50833 4.89167 8.64166 5.125 8.73333 5.35833C8.84166 5.60833 8.9 5.85833 8.9 6.1C8.9 6.41667 8.80833 6.725 8.63333 7.01667C8.50833 7.24167 8.31666 7.48334 8.075 7.725L7.50833 8.31667C7.51666 8.34167 7.525 8.35834 7.53333 8.375C7.63333 8.55 7.83333 8.85 8.21666 9.3C8.625 9.76667 9.00833 10.1917 9.39166 10.5833C9.88333 11.0667 10.2917 11.45 10.675 11.7667C11.15 12.1667 11.4583 12.3667 11.6417 12.4583L11.625 12.5L12.2333 11.9C12.4917 11.6417 12.7417 11.45 12.9833 11.325C13.4417 11.0417 14.025 10.9917 14.6083 11.2333C14.825 11.325 15.0583 11.45 15.3083 11.625L18.075 13.5917C18.3833 13.8 18.6083 14.0667 18.7417 14.3833C18.8667 14.7 18.925 14.9917 18.925 15.2833C18.925 15.6833 18.8333 16.0833 18.6583 16.4583C18.4833 16.8333 18.2667 17.1583 17.9917 17.4583C17.5167 17.9833 17 18.3583 16.4 18.6C15.825 18.8333 15.2 18.9583 14.5417 18.9583ZM4.65833 2.29167C4.2 2.29167 3.775 2.49167 3.36666 2.89167C2.98333 3.25 2.71666 3.64167 2.55 4.06667C2.375 4.5 2.29166 4.95833 2.29166 5.45C2.29166 6.225 2.475 7.06667 2.84166 7.93334C3.21666 8.81667 3.74166 9.73333 4.40833 10.65C5.075 11.5667 5.83333 12.4583 6.66666 13.3C7.5 14.125 8.4 14.8917 9.325 15.5667C10.225 16.225 11.15 16.7583 12.0667 17.1417C13.4917 17.75 14.825 17.8917 15.925 17.4333C16.35 17.2583 16.725 16.9917 17.0667 16.6083C17.2583 16.4 17.4083 16.175 17.5333 15.9083C17.6333 15.7 17.6833 15.4833 17.6833 15.2667C17.6833 15.1333 17.6583 15 17.5917 14.85C17.5667 14.8 17.5167 14.7083 17.3583 14.6L14.5917 12.6333C14.425 12.5167 14.275 12.4333 14.1333 12.375C13.95 12.3 13.875 12.225 13.5917 12.4C13.425 12.4833 13.275 12.6083 13.1083 12.775L12.475 13.4C12.15 13.7167 11.65 13.7917 11.2667 13.65L11.0417 13.55C10.7 13.3667 10.3 13.0833 9.85833 12.7083C9.45833 12.3667 9.025 11.9667 8.5 11.45C8.09166 11.0333 7.68333 10.5917 7.25833 10.1C6.86666 9.64167 6.58333 9.25 6.40833 8.925L6.30833 8.675C6.25833 8.48333 6.24166 8.375 6.24166 8.25833C6.24166 7.95833 6.35 7.69167 6.55833 7.48333L7.18333 6.83333C7.35 6.66667 7.475 6.50833 7.55833 6.36667C7.625 6.25833 7.65 6.16667 7.65 6.08334C7.65 6.01667 7.625 5.91667 7.58333 5.81667C7.525 5.68333 7.43333 5.53333 7.31666 5.375L5.38333 2.64167C5.3 2.525 5.2 2.44167 5.075 2.38333C4.94166 2.325 4.8 2.29167 4.65833 2.29167ZM11.625 12.5083L11.4917 13.075L11.7167 12.4917C11.675 12.4833 11.6417 12.4917 11.625 12.5083Z" fill="white"/>
</svg>
